<svg width="24" height="24" viewBox="0 0 24 24" fill="none"
    xmlns="http://www.w3.org/2000/svg">
    <path d="M17.288 14.3448C16.2797 15.1077 14.5174 16.3057 13.5091 16.9593C12.5018 17.6119 10.8397 18.5923 9.68115 19.1908C8.52264 19.7903 7.56541 20.1712 7.01166 20.1712C6.45698 20.1712 6.05443 20.0078 5.80213 19.5727C5.49975 19.1908 5.34856 18.5923 5.24839 17.8846C5.14728 17.1768 5.0972 16.3057 5.04711 15.3253C4.99609 14.3448 4.99609 12.0041 4.99609 12.0041C4.99609 12.0041 4.99609 9.66229 5.04711 8.68287C5.04711 7.70245 5.14728 6.8313 5.24839 6.06942C5.34856 5.36168 5.49975 4.81733 5.80213 4.43539C6.05443 4.00032 6.45698 3.83691 7.01166 3.83691C7.56541 3.83691 8.52264 4.21785 9.68115 4.81733C10.8397 5.41581 12.5018 6.39623 13.5091 7.04884C14.5675 7.70245 16.2797 8.84628 17.288 9.66229C18.2953 10.4793 19.0002 10.9695 19.0002 12.0041C19.0002 13.0386 18.2953 13.5288 17.288 14.3448Z" fill="#BB131A"/>
    <path fill-rule="evenodd" clip-rule="evenodd" d="M17.8011 10.9704V13.0936C17.8011 13.2029 17.7 13.3111 17.5989 13.3111H17.3976C17.2974 13.3111 17.1963 13.2029 17.1963 13.0936V10.9704C17.1963 10.8611 17.2974 10.7528 17.3976 10.7528H17.5989C17.7 10.7528 17.8011 10.8611 17.8011 10.9704ZM10.799 9.9358V6.56047C10.799 6.4512 10.8992 6.34193 11.0003 6.34193H11.2016C11.3027 6.34193 11.4038 6.4512 11.4038 6.56047V9.88167C11.4038 9.98994 11.3027 10.0992 11.2016 10.0992H11.0003C10.8992 10.0992 10.799 10.0451 10.799 9.9358ZM13.1661 15.9797V16.1973C13.1661 16.3065 13.066 16.4148 12.9649 16.4148H12.7636C12.6625 16.4148 12.5623 16.3065 12.5623 16.1973V15.9797C12.5623 15.8705 12.6625 15.7622 12.7636 15.7622H12.9649C13.066 15.7622 13.1661 15.8705 13.1661 15.9797ZM6.16406 8.62958V5.90686C6.16406 5.79759 6.26517 5.68932 6.36627 5.68932H6.51746C6.61763 5.68932 6.71874 5.79759 6.71874 5.90686V8.30277H8.48201V7.64916H7.52478C7.42367 7.64916 7.3235 7.53989 7.3235 7.43162V5.30738C7.3235 5.19911 7.42367 5.08984 7.52478 5.08984H8.88457C8.98567 5.08984 9.08584 5.19911 9.08584 5.30738V6.94141H9.69061V5.90686C9.69061 5.79759 9.79171 5.68932 9.89188 5.68932H10.0941C10.1943 5.68932 10.2954 5.79759 10.2954 5.90686V7.37649C10.2954 7.48576 10.1943 7.59503 10.0941 7.59503H9.13686V8.62958C9.13686 8.73785 9.03576 8.84712 8.93465 8.84712H6.36627C6.26517 8.84712 6.16406 8.79198 6.16406 8.62958ZM8.5321 6.99555V5.74346H7.92733V6.99555H8.5321ZM16.6927 10.3167V13.6931C16.6927 13.8013 16.5925 13.9106 16.4914 13.9106H15.4841V14.9452C15.4841 15.0544 15.383 15.1627 15.2828 15.1627H14.3256V15.5988C14.3256 15.707 14.2245 15.8163 14.1234 15.8163H13.9221C13.8219 15.8163 13.7208 15.707 13.7208 15.5988V15.1627H11.0003C10.9001 15.1627 10.799 15.0544 10.799 14.9452V12.2224C10.799 12.1142 10.9001 12.0049 11.0003 12.0049H12.9649C13.066 12.0049 13.1671 12.1142 13.1671 12.2224V12.44C13.1671 12.5493 13.066 12.6585 12.9649 12.6585H11.4038V14.5642H13.7208V13.9106H12.1588C12.0586 13.9106 11.9575 13.8013 11.9575 13.6931V13.4745C11.9575 13.3663 12.0586 13.257 12.1588 13.257H14.0232C14.1234 13.257 14.2245 13.3663 14.2245 13.4745V14.5091H14.8292V13.4745C14.8292 13.3663 14.9294 13.257 15.0305 13.257H16.0378V10.3167C16.0378 10.2085 16.1389 10.0992 16.2391 10.0992H16.4413C16.5415 10.0992 16.6426 10.2085 16.6927 10.3167ZM12.0586 15.9797V16.8509C12.0586 16.9601 11.9575 17.0684 11.8574 17.0684H11.6552C11.555 17.0684 11.4539 16.9601 11.4539 16.8509V16.4148H10.8491V17.4493C10.8491 17.5586 10.7489 17.6679 10.6478 17.6679H6.36627C6.26517 17.6679 6.16499 17.5586 6.16499 17.4493V15.9256C6.16499 15.8163 6.26517 15.707 6.36627 15.707H9.43924C9.53941 15.707 9.64052 15.8163 9.64052 15.9256V16.1431C9.64052 16.2514 9.53941 16.3607 9.43924 16.3607H6.71874V17.0143H10.2453V15.9797C10.2453 15.8705 10.3455 15.7622 10.4466 15.7622H11.8063C11.9074 15.7622 11.9575 15.8705 12.0586 15.9797ZM7.3235 18.539V18.7566C7.3235 18.8648 7.2224 18.9741 7.12222 18.9741H6.92002C6.81984 18.9741 6.71874 18.8648 6.71874 18.7566V18.539C6.71874 18.4298 6.81984 18.3205 6.92002 18.3205H7.12222C7.2224 18.3205 7.3235 18.3756 7.3235 18.539ZM8.48201 18.539V18.7566C8.48201 18.8648 8.38091 18.9741 8.28073 18.9741H8.07852C7.97835 18.9741 7.87725 18.8648 7.87725 18.7566V18.539C7.87725 18.4298 7.97835 18.3205 8.07852 18.3205H8.28073C8.43192 18.3205 8.48201 18.3756 8.48201 18.539ZM6.56755 14.5091C6.66865 14.5091 6.76882 14.6184 6.76882 14.7276V14.9452C6.76882 15.0544 6.66865 15.1627 6.56755 15.1627H6.36627C6.26517 15.1627 6.16499 15.0544 6.16499 14.9452V14.7276C6.16499 14.6184 6.26517 14.5091 6.36627 14.5091H6.56755ZM7.72606 14.5091C7.82716 14.5091 7.92733 14.6184 7.92733 14.7276V14.9452C7.92733 15.0544 7.82716 15.1627 7.72606 15.1627H7.52478C7.42367 15.1627 7.3235 15.0544 7.3235 14.9452V14.7276C7.3235 14.6184 7.42367 14.5091 7.52478 14.5091H7.72606ZM8.68329 14.5642H9.64052V12.2224C9.64052 12.1142 9.74069 12.0049 9.8418 12.0049H10.0431C10.1442 12.0049 10.2444 12.1142 10.2444 12.2224V14.9452C10.2444 15.0544 10.1442 15.1627 10.0431 15.1627H8.68329C8.58218 15.1627 8.48108 15.0544 8.48108 14.9452V14.7276C8.48108 14.6184 8.58218 14.5091 8.68329 14.5642ZM14.1234 12.0049C14.2245 12.0049 14.3246 12.1142 14.3246 12.2224V12.44C14.3246 12.5493 14.2245 12.6585 14.1234 12.6585H13.9221C13.821 12.6585 13.7208 12.5493 13.7208 12.44V12.2224C13.7208 12.1142 13.821 12.0049 13.9221 12.0049H14.1234ZM13.116 8.0301V7.81256C13.116 7.70329 13.2162 7.59503 13.3173 7.59503H13.5186C13.6197 7.59503 13.7199 7.70329 13.7199 7.81256V8.0301C13.7199 8.13937 13.6197 8.24764 13.5186 8.24764H13.3173C13.2162 8.24764 13.1661 8.13937 13.116 8.0301ZM10.2444 8.41104V8.68371C10.2444 8.79198 10.1433 8.90125 10.0431 8.90125H9.8418C9.74069 8.90125 9.63959 8.79198 9.63959 8.68371V8.46618C9.63959 8.35691 9.74069 8.24764 9.8418 8.24764H10.0431C10.1433 8.24764 10.2444 8.30277 10.2444 8.41104ZM9.08584 10.9704V11.1879C9.08584 11.2972 8.98474 11.4064 8.88457 11.4064H8.68236C8.58218 11.4064 8.48108 11.2972 8.48108 11.1879V10.9704C8.48108 10.8611 8.58218 10.7528 8.68236 10.7528H8.88457C8.98474 10.7528 9.08584 10.8611 9.08584 10.9704ZM15.4832 12.2224V12.44C15.4832 12.5493 15.3821 12.6585 15.2819 12.6585H15.0806C14.9795 12.6585 14.8784 12.5493 14.8784 12.44V12.2224C14.8784 12.1142 14.9795 12.0049 15.0806 12.0049H15.2819C15.3821 12.0049 15.4832 12.1142 15.4832 12.2224ZM6.16406 13.8013V9.7724C6.16406 9.66313 6.26517 9.55486 6.36534 9.55486H6.51653C6.61763 9.55486 6.71781 9.66313 6.71781 9.7724V13.3663H8.43099V12.7127H7.47376C7.37266 12.7127 7.27248 12.6034 7.27248 12.4951V9.71827C7.27248 9.609 7.37266 9.50073 7.47376 9.50073H9.99206C10.0932 9.50073 10.1943 9.609 10.1943 9.71827V10.7528H11.9575V7.15895C11.9575 7.04968 12.0577 6.94141 12.1588 6.94141H12.3601C12.4612 6.94141 12.5614 7.04968 12.5614 7.15895V9.44559H13.7199V9.01052C13.7199 8.90125 13.821 8.79198 13.9221 8.79198H15.2819C15.3821 8.79198 15.4832 8.90125 15.4832 9.01052V11.1338C15.4832 11.243 15.3821 11.3513 15.2819 11.3513H9.8418C9.74069 11.3513 9.63959 11.243 9.63959 11.1338V10.0992H7.92733V12.0049H8.93465C9.03576 12.0049 9.13593 12.1142 9.13593 12.2224V13.6931C9.13593 13.8013 9.03576 13.9106 8.93465 13.9106H6.36534C6.26517 13.9106 6.16406 13.8013 6.16406 13.8013ZM12.6124 10.0992V10.6977H14.9294V9.44559H14.3246V10.0992H12.6124Z" fill="#ED1B24"/>
</svg>
