<svg width="24" height="24" viewBox="0 0 24 24" fill="none" xmlns="http://www.w3.org/2000/svg">
<g clip-path="url(#clip0_2996_5292)">
<path d="M0 0.0301514H23.9404V12.9539L22.7554 14.8054L23.9404 16.4533V23.9706H0V11.7874L0.740616 10.9357L0 10.121V0.0301514Z" fill="#006FCF"/>
<path d="M4.64648 16.7125V12.9539H8.62617L9.05315 13.5105L9.49424 12.9539H23.9395V16.4533C23.9395 16.4533 23.5618 16.7087 23.1248 16.7125H15.1262L14.6448 16.12V16.7125H13.0673V15.7011C13.0673 15.7011 12.8518 15.8423 12.3859 15.8423H11.849V16.7125H9.46049L9.03412 16.1439L8.60121 16.7125H4.64648Z" fill="white"/>
<path d="M0 10.121L0.897435 8.02881H2.44946L2.95876 9.20079V8.02881H4.88806L5.19125 8.87588L5.48519 8.02881H14.1458V8.45466C14.1458 8.45466 14.601 8.02881 15.3493 8.02881L18.1593 8.03863L18.6598 9.19528V8.02881H20.2744L20.7187 8.69321V8.02881H22.3481V11.7874H20.7187L20.2929 11.1209V11.7874H17.9208L17.6822 11.1949H17.0445L16.8098 11.7874H15.2011C14.5573 11.7874 14.1458 11.3703 14.1458 11.3703V11.7874H11.7202L11.2388 11.1949V11.7874H2.21953L1.98115 11.1949H1.34547L1.10877 11.7874H0V10.121Z" fill="white"/>
<path d="M1.21435 8.49219L0.00390625 11.3065H0.791968L1.01531 10.743H2.3137L2.53589 11.3065H3.34131L2.13202 8.49219H1.21435ZM1.66219 9.14717L2.05796 10.132H1.26527L1.66219 9.14717Z" fill="#006FCF"/>
<path d="M3.42578 11.306V8.4917L4.54566 8.49586L5.19702 10.3104L5.83278 8.4917H6.94371V11.306H6.24012V9.23232L5.49431 11.306H4.87726L4.12937 9.23232V11.306H3.42578Z" fill="#006FCF"/>
<path d="M7.42383 11.306V8.4917H9.71974V9.12122H8.13482V9.60262H9.68271V10.1951H8.13482V10.695H9.71974V11.306H7.42383Z" fill="#006FCF"/>
<path d="M10.127 8.49219V11.3065H10.8305V10.3067H11.1268L11.9704 11.3065H12.8302L11.9044 10.2697C12.2844 10.2376 12.6763 9.91151 12.6763 9.40523C12.6763 8.81299 12.2115 8.49219 11.6927 8.49219H10.127ZM10.8305 9.12171H11.6348C11.8277 9.12171 11.9681 9.27263 11.9681 9.41796C11.9681 9.60493 11.7862 9.7142 11.6452 9.7142H10.8305V9.12171Z" fill="#006FCF"/>
<path d="M13.6832 11.306H12.9648V8.4917H13.6832V11.306Z" fill="#006FCF"/>
<path d="M15.3863 11.306H15.2312C14.4809 11.306 14.0254 10.7149 14.0254 9.91044C14.0254 9.08607 14.4758 8.4917 15.4233 8.4917H16.201V9.15825H15.3949C15.0102 9.15825 14.7382 9.45841 14.7382 9.91738C14.7382 10.4624 15.0493 10.6913 15.4974 10.6913H15.6825L15.3863 11.306Z" fill="#006FCF"/>
<path d="M16.9175 8.49219L15.707 11.3065H16.4951L16.7184 10.743H18.0168L18.239 11.3065H19.0444L17.8351 8.49219H16.9175ZM17.3653 9.14717L17.7611 10.132H16.9684L17.3653 9.14717Z" fill="#006FCF"/>
<path d="M19.127 11.306V8.4917H20.0215L21.1636 10.2599V8.4917H21.8672V11.306H21.0016L19.8305 9.49153V11.306H19.127Z" fill="#006FCF"/>
<path d="M5.12891 16.2311V13.4167H7.42482V14.0463H5.8399V14.5277H7.38778V15.1202H5.8399V15.6201H7.42482V16.2311H5.12891Z" fill="#006FCF"/>
<path d="M16.3789 16.2311V13.4167H18.6748V14.0463H17.0899V14.5277H18.6304V15.1202H17.0899V15.6201H18.6748V16.2311H16.3789Z" fill="#006FCF"/>
<path d="M7.51294 16.2311L8.63081 14.8413L7.48633 13.4167H8.37275L9.05435 14.2974L9.73826 13.4167H10.59L9.46053 14.8239L10.5805 16.2311H9.69417L9.03236 15.3643L8.38664 16.2311H7.51294Z" fill="#006FCF"/>
<path d="M10.6641 13.4172V16.2316H11.3862V15.3428H12.1268C12.7534 15.3428 13.2284 15.0104 13.2284 14.3638C13.2284 13.8282 12.8559 13.4172 12.2182 13.4172H10.6641ZM11.3862 14.0537H12.1661C12.3686 14.0537 12.5133 14.1778 12.5133 14.3777C12.5133 14.5656 12.3693 14.7017 12.1638 14.7017H11.3862V14.0537Z" fill="#006FCF"/>
<path d="M13.5352 13.4167V16.2311H14.2387V15.2313H14.535L15.3786 16.2311H16.2384L15.3126 15.1942C15.6926 15.1622 16.0845 14.8361 16.0845 14.3298C16.0845 13.7376 15.6197 13.4167 15.1009 13.4167H13.5352ZM14.2387 14.0463H15.043C15.2359 14.0463 15.3763 14.1972 15.3763 14.3425C15.3763 14.5295 15.1944 14.6388 15.0534 14.6388H14.2387V14.0463Z" fill="#006FCF"/>
<path d="M19.0014 16.2311V15.6201H20.4095C20.6179 15.6201 20.7081 15.5075 20.7081 15.384C20.7081 15.2657 20.6182 15.1461 20.4095 15.1461H19.7732C19.2201 15.1461 18.9121 14.8091 18.9121 14.3032C18.9121 13.8519 19.1942 13.4167 20.0161 13.4167H21.3862L21.09 14.05H19.905C19.6785 14.05 19.6088 14.1688 19.6088 14.2823C19.6088 14.399 19.6949 14.5277 19.868 14.5277H20.5345C21.1511 14.5277 21.4186 14.8774 21.4186 15.3354C21.4186 15.8278 21.1205 16.2311 20.501 16.2311H19.0014Z" fill="#006FCF"/>
<path d="M21.5835 16.2311V15.6201H22.9916C23.1999 15.6201 23.2901 15.5075 23.2901 15.384C23.2901 15.2657 23.2002 15.1461 22.9916 15.1461H22.3553C21.8022 15.1461 21.4941 14.8091 21.4941 14.3032C21.4941 13.8519 21.7762 13.4167 22.5981 13.4167H23.9683L23.672 14.05H22.487C22.2605 14.05 22.1908 14.1688 22.1908 14.2823C22.1908 14.399 22.277 14.5277 22.45 14.5277H23.1166C23.7331 14.5277 24.0007 14.8774 24.0007 15.3354C24.0007 15.8278 23.7025 16.2311 23.083 16.2311H21.5835Z" fill="#006FCF"/>
</g>
<defs>
<clipPath id="clip0_2996_5292">
<rect width="24" height="24" fill="white"/>
</clipPath>
</defs>
</svg>
