<svg width="24" height="24" viewBox="0 0 24 24" fill="none"
    xmlns="http://www.w3.org/2000/svg">
    <path fill-rule="evenodd" clip-rule="evenodd" d="M7.27088 11.6239V16.3694H5.69019V11.6239C5.69019 11.3379 5.48898 11.1825 5.40362 11.1303C5.31674 11.0794 5.08657 10.9749 4.8 11.0794C3.7645 11.4937 2.78692 12.0121 1.86726 12.6346C1.69501 12.7391 1.60965 12.9206 1.60965 13.1021C1.60965 13.2053 1.63709 13.4129 1.86726 13.5422C2.67209 14.0881 3.5638 14.5804 4.48295 14.9695L4.10949 16.3955C2.96018 15.9293 1.89622 15.3587 0.890187 14.6835C0.34449 14.2943 0 13.7251 0 13.1021C0 12.4792 0.315529 11.8824 0.890187 11.4933C1.89622 10.8195 2.98914 10.2227 4.13846 9.78266C4.82896 9.49664 5.63379 9.54889 6.26485 9.93804C6.89743 10.3011 7.27088 10.924 7.27088 11.6239ZM24 12.9976C24 13.6206 23.6555 14.1912 23.1098 14.5804C22.1038 15.2803 21.0109 15.851 19.8615 16.3185C19.5735 16.4477 19.2579 16.5 18.9409 16.5C18.51 16.5 18.1076 16.396 17.7336 16.1879C17.0736 15.8248 16.7002 15.1772 16.7002 14.502V7.5H18.2809V14.502C18.2809 14.788 18.4821 14.9434 18.5674 14.9956C18.6833 15.0465 18.9134 15.1772 19.2 15.0465C20.2345 14.6322 21.2121 14.1138 22.1327 13.4913C22.3614 13.3607 22.3903 13.1544 22.3903 13.0499C22.3903 12.8684 22.305 12.6869 22.1327 12.5837C21.299 12.0131 20.4072 11.5194 19.4591 11.1303L19.8036 9.78266L19.8326 9.73041C20.9819 10.1718 22.0748 10.7672 23.0809 11.4424C23.6265 11.8316 23.971 12.427 24 12.9976ZM15.435 16.3694H13.7964V12.2977C13.7964 11.6239 13.1928 11.0532 12.4169 11.0532H10.1457V16.3955H8.565V11.0532C8.565 10.2749 9.28295 9.6259 10.1457 9.6259H12.4459C14.0845 9.6259 15.435 10.8195 15.435 12.2977V16.3694Z" fill="#0073CF"/>
</svg>
