<svg width="24" height="24" viewBox="0 0 24 24" fill="none"
    xmlns="http://www.w3.org/2000/svg">
    <path fill-rule="evenodd" clip-rule="evenodd" d="M16.8614 10.3881C17.4184 10.708 17.9592 11.0198 18.5011 11.3317C18.9004 11.5618 19.302 11.7896 19.699 12.0244C20.4227 12.4524 20.8439 13.0899 20.9831 13.916C20.998 14.0058 20.998 14.1001 20.998 14.1922C20.9992 15.115 21.0026 16.0378 20.998 16.9618C20.9946 17.5878 20.7587 18.1263 20.3548 18.598C20.1397 18.8512 19.8727 19.0376 19.585 19.201C18.8824 19.6029 18.1812 20.0072 17.4816 20.4138C17.0214 20.6819 16.5255 20.805 15.9962 20.7762C15.6072 20.7555 15.2367 20.6554 14.8973 20.4621C13.9944 19.9458 13.0938 19.4253 12.1955 18.9007C12.0644 18.8247 11.9666 18.8086 11.8227 18.8926C10.9448 19.4104 10.0576 19.9132 9.17508 20.423C8.71828 20.6876 8.2258 20.8038 7.70225 20.7762C7.24889 20.7532 6.83351 20.6013 6.44228 20.3723C5.73003 19.9558 5.00857 19.5554 4.30207 19.1296C3.46785 18.6268 3.01794 17.8835 3.00529 16.9008C2.99493 16.0183 3.00298 15.1369 3.00298 14.2543C3.00298 13.6226 3.22046 13.0737 3.62204 12.5916C3.8303 12.3408 4.0869 12.1486 4.36996 11.9864C5.25481 11.4789 6.13506 10.9658 7.02106 10.4606C7.11657 10.4054 7.14303 10.3444 7.14188 10.242C7.13958 9.19605 7.12577 8.15011 7.14418 7.10416C7.16144 6.16178 7.57338 5.4127 8.37653 4.91332C9.01975 4.51289 9.68713 4.15044 10.3441 3.77187C10.5167 3.67292 10.6905 3.57281 10.8677 3.48191C11.1496 3.33693 11.4499 3.26328 11.7652 3.23222C12.3486 3.17468 12.879 3.31852 13.3807 3.60963C14.0803 4.01466 14.7799 4.42314 15.4853 4.82012C16.0629 5.1469 16.4691 5.61407 16.705 6.23197C16.8074 6.50237 16.8603 6.78428 16.8603 7.07194C16.8637 8.11789 16.8626 9.16498 16.8626 10.2109C16.8614 10.2673 16.8614 10.3225 16.8614 10.3881ZM11.993 17.1505C12.0137 17.1448 12.0195 17.1448 12.023 17.1425C12.9113 16.6304 13.8053 16.1299 14.6833 15.604C15.1677 15.3141 15.4243 14.8665 15.4243 14.29C15.4254 13.3108 15.4231 12.3316 15.4266 11.3524C15.4277 11.2523 15.3978 11.197 15.3104 11.1476C14.46 10.662 13.6178 10.1649 12.7651 9.68508C12.2519 9.39741 11.7238 9.40892 11.2129 9.69888C10.3752 10.1753 9.54444 10.6608 8.70792 11.1372C8.61127 11.1924 8.57444 11.2511 8.57444 11.365C8.57905 12.3281 8.5779 13.2924 8.57675 14.2555C8.57675 14.8757 8.85981 15.3313 9.38335 15.6455C9.61579 15.7858 9.85282 15.917 10.0887 16.0528C10.7227 16.4187 11.3567 16.7835 11.993 17.1505ZM7.14073 12.0405C7.07169 12.0773 7.03142 12.0968 6.99115 12.1199C6.35253 12.4892 5.71622 12.8632 5.07416 13.2256C4.64612 13.4673 4.42634 13.8297 4.42174 14.3142C4.41368 15.1599 4.41483 16.0068 4.42174 16.8525C4.42519 17.3208 4.63691 17.6775 5.04309 17.9134C5.78756 18.346 6.53088 18.7787 7.27996 19.2021C7.64932 19.4115 8.03939 19.4207 8.4099 19.2136C9.09914 18.8293 9.77803 18.4277 10.4615 18.0331C10.4891 18.0169 10.5133 17.9939 10.5444 17.9698C10.5029 17.941 10.4742 17.9191 10.4443 17.9019C9.86202 17.567 9.28094 17.2311 8.69756 16.8997C8.22925 16.6327 7.84953 16.2749 7.57107 15.8123C7.27766 15.3279 7.14073 14.7986 7.14073 14.2336C7.13958 13.5674 7.14073 12.9 7.14073 12.2338C7.14073 12.1774 7.14073 12.1222 7.14073 12.0405ZM13.4486 17.9698C13.5027 18.0054 13.543 18.0365 13.5855 18.0607C14.2376 18.4366 14.89 18.8117 15.5428 19.186C15.9409 19.415 16.3448 19.4173 16.7406 19.1929C17.4932 18.766 18.2411 18.3311 18.9879 17.8938C19.3779 17.666 19.577 17.3151 19.5804 16.8663C19.5873 16.0102 19.5896 15.1541 19.5804 14.298C19.5747 13.8332 19.3664 13.4765 18.9556 13.2417C18.378 12.9115 17.8027 12.5755 17.2262 12.243C17.1134 12.1774 16.9972 12.1153 16.8626 12.0405C16.8626 12.121 16.8626 12.1751 16.8626 12.2303C16.8626 12.9173 16.8637 13.6042 16.8603 14.2911C16.8603 14.4292 16.8522 14.5684 16.8304 14.7042C16.6762 15.6363 16.2033 16.3577 15.3886 16.8456C15.0331 17.0596 14.6718 17.2621 14.3127 17.4704C14.0297 17.6338 13.7466 17.7972 13.4486 17.9698ZM8.5779 9.5585C8.63888 9.52744 8.67915 9.50903 8.71828 9.48716C9.31316 9.14542 9.9046 8.79792 10.5041 8.46423C11.4971 7.91192 12.5005 7.91767 13.4935 8.45733C14.101 8.78757 14.6925 9.14657 15.2908 9.49177C15.3288 9.51363 15.369 9.52974 15.4174 9.55275C15.4208 9.50903 15.4243 9.48371 15.4243 9.4584C15.4243 8.64834 15.4254 7.83828 15.4243 7.02822C15.4243 6.97299 15.4139 6.91661 15.4024 6.86253C15.323 6.51158 15.1171 6.25498 14.8087 6.07778C14.0769 5.65664 13.345 5.2332 12.6121 4.81436C12.2036 4.58193 11.7928 4.58769 11.3843 4.81782C11.1657 4.94209 10.9494 5.06866 10.7319 5.19408C10.2049 5.499 9.67332 5.79702 9.14977 6.11C8.77581 6.33438 8.5779 6.67152 8.5779 7.11337C8.57675 7.86704 8.5779 8.62072 8.5779 9.3744C8.5779 9.42848 8.5779 9.48256 8.5779 9.5585Z" fill="#221AFB"/>
</svg>
