<?xml version="1.0" encoding="utf-8"?>
<!-- Generator: Adobe Illustrator 19.2.1, SVG Export Plug-In . SVG Version: 6.00 Build 0)  -->
<svg version="1.1" id="layer" xmlns="http://www.w3.org/2000/svg" xmlns:xlink="http://www.w3.org/1999/xlink" x="0px" y="0px"
	 viewBox="0 0 652 652" style="enable-background:new 0 0 652 652;" xml:space="preserve">
<path d="M333,325.5l-14.6,15.9v-35h-7v54.6h7v-15.7l14.5,15.7h8.9l-16.2-17.7l16.2-17.8H333z M218,333.5c4.1-1.1,8.6-4.8,8.6-11.8
	c0-2.5-0.8-15.2-16.7-15.2h-18.7v54.6h19.1c12.3,0,16.7-8.3,16.7-15.4C227.1,340,223.4,335,218,333.5L218,333.5z M198.5,313.1h11.3
	c6.9,0,9.3,4.6,9.3,8.6c0,0.9-0.3,8.5-9.2,8.5h-11.5V313.1z M210.2,354.4h-11.7v-17.6h11.9c7.3,0,9.2,5.8,9.2,8.9
	C219.6,349,217.6,354.4,210.2,354.4L210.2,354.4z M260.5,331.2c-2.5-4.1-7.1-6.6-12.5-6.6c-4.9,0-9.5,2-12.8,5.6
	c-3.3,3.6-5.1,8.3-5.1,13.1c0,10.4,7.8,18.6,17.8,18.6c5.5,0,10.1-2.5,12.6-6.6v5.7h6.9v-35.5h-6.9L260.5,331.2z M248.8,355.6
	c-6.8,0-11.7-5.2-11.7-12.3c-0.1-3.2,1.1-6.3,3.2-8.7c2.2-2.3,5.3-3.7,8.5-3.7c3.2,0,6.3,1.3,8.5,3.7c2.1,2.4,3.2,5.5,3.2,8.7
	C260.5,350.4,255.6,355.6,248.8,355.6L248.8,355.6z M292.9,324.6c-5.6,0-10,2.4-12.4,6.7v-5.8h-7v35.5h7v-18.3
	c0-8.8,5.4-11.8,10-11.8c3.9,0,8.7,2,8.7,11.3v18.8h7v-21c0-4.9-0.8-8.2-2.7-10.8C301.1,326.2,297.5,324.6,292.9,324.6L292.9,324.6z
	 M386,331.2c-2.5-4.1-7.1-6.6-12.5-6.6c-4.9,0-9.5,2-12.8,5.6c-3.3,3.6-5.1,8.3-5.1,13.1c0,10.4,7.8,18.6,17.8,18.6
	c5.5,0,10.1-2.5,12.6-6.6v5.7h6.9v-35.5H386V331.2z M374.3,355.6c-6.8,0-11.7-5.2-11.7-12.3c-0.1-3.2,1.1-6.3,3.2-8.7
	c2.2-2.3,5.3-3.7,8.5-3.7c3.2,0,6.3,1.3,8.5,3.7c2.1,2.4,3.2,5.5,3.2,8.7C386,350.4,381.1,355.6,374.3,355.6L374.3,355.6z
	 M398.9,306.5h7v54.6h-7V306.5z M430,361.1h30.8v-6.6h-23.4v-17.2h23.4v-6.6h-23.4v-17.5h23.4v-6.6H430V361.1z M484.2,355.1
	c-3.1,0-5.7-0.6-5.7-7.5v-16.1h9.2v-5.9h-9.2v-11.8h-7v11.8H465v5.9h6.5v17.6c0,5.1,1.3,8.7,3.9,10.6c2.2,1.6,5,1.9,7.2,1.9
	c2.1,0,4.1-0.2,6.2-0.5h0.1v-6.3h-0.2C487.3,355,485.8,355.1,484.2,355.1L484.2,355.1z M498.4,307.4c-2.7,0-4.9,2.3-4.9,5
	c0,6.6,9.9,6.6,9.9,0C503.4,309.7,501.2,307.4,498.4,307.4L498.4,307.4z M495,325.5h7v35.5h-7V325.5z M530,324.6
	c-5.6,0-10,2.4-12.4,6.7v-24.9h-7v54.6h7v-18.3c0-8.8,5.4-11.8,10-11.8c3.9,0,8.7,2,8.7,11.3v18.8h7v-21c0-4.9-0.8-8.2-2.7-10.8
	C538.3,326.2,534.7,324.6,530,324.6L530,324.6z M577.9,331.2c-2.5-4.1-7.1-6.6-12.5-6.6c-4.9,0-9.5,2-12.8,5.6
	c-3.3,3.6-5.1,8.3-5.1,13.1c0,10.4,7.9,18.6,17.8,18.6c5.5,0,10.1-2.5,12.6-6.6v5.7h6.9v-35.5h-6.9V331.2z M566.1,355.6
	c-6.8,0-11.7-5.2-11.7-12.3c-0.1-3.2,1.1-6.3,3.2-8.7c2.2-2.3,5.3-3.7,8.5-3.7c3.2,0,6.3,1.3,8.5,3.7c2.1,2.4,3.2,5.5,3.2,8.7
	C577.9,350.4,572.9,355.6,566.1,355.6L566.1,355.6z M620.1,331.2c-2.5-4.1-7.1-6.6-12.5-6.6c-4.9,0-9.5,2-12.8,5.6
	c-3.3,3.6-5.1,8.3-5.1,13.1c0,10.4,7.8,18.6,17.8,18.6c5.5,0,10.1-2.5,12.6-6.6v5.7h6.9v-54.6h-6.9V331.2z M608.4,355.6
	c-6.8,0-11.7-5.2-11.7-12.3c-0.1-3.2,1.1-6.3,3.2-8.7c2.2-2.3,5.3-3.7,8.5-3.7s6.3,1.3,8.5,3.7c2.1,2.4,3.2,5.5,3.2,8.7
	C620.1,350.4,615.2,355.6,608.4,355.6L608.4,355.6z M85.4,303.4c3.4,1.4,6,1.4,7.9,0.3c2-1.3,3.6-3.2,4.4-5.5
	c-8.3,1.6-10.2-5.2-15.9-4.6c-2.6,0.3-4.8,2.1-5.5,4.7c-0.6,2.5-0.3,5.2,0.7,7.6C78.8,303.1,82.4,302,85.4,303.4L85.4,303.4z
	 M85.4,303.4 M84.3,277.6c-3.8-0.1-7.2,2.6-8.7,6.6c-1,2.7-1.5,5.5-1.5,8.4c3.3-5.5,9.9-5.5,14.6-1.8c2.5,2,5.7,3.6,9.2,3
	c3.5-0.6,6-3,8-5.2c-6.2-0.2-9.9-2.7-13.5-6.6C90.2,279.6,87.9,277.7,84.3,277.6L84.3,277.6z M84.3,277.6 M95.8,278.5
	c3.8,4.7,8,6.4,13,5.8c3-0.3,5.9-1.4,8.4-3c-4.5-1.3-8.4-4.1-11.2-7.9l-4.7-6.5c-5-6.8-14.4-6.6-19.9-0.6c-2.5,2.6-4.2,6-4.9,9.5
	C82.5,270.5,90.7,272.1,95.8,278.5L95.8,278.5z M68.8,317c3.2-1.8,4.8-3.8,5.2-6c0.3-2.4-0.3-4.8-1.6-6.9
	c-3.9,7.5-10.4,4.7-13.6,9.5c-1.4,2.2-1.3,5.1,0.2,7.2c1.6,2.1,3.9,3.6,6.4,4.3C64.4,322,65.8,318.6,68.8,317L68.8,317z M68.8,317
	 M48,301.8c-2.4,2.9-2.4,7.2-0.3,11c1.5,2.4,3.4,4.6,5.6,6.4c-2.2-6,1.8-11.2,7.7-12.5c3.1-0.7,6.4-2.2,8.1-5.3
	c1.7-3.1,1.4-6.6,0.9-9.5c-4,4.7-8.3,6.1-13.6,6.4C53.2,298.5,50.3,299.1,48,301.8L48,301.8z M48,301.8 M55.9,293.4
	c6.1-0.1,10-2.2,12.6-6.5c1.6-2.6,2.6-5.4,2.9-8.4c-3.8,2.7-8.4,4.1-13.1,3.9l-8-0.3c-8.4-0.4-14.1,7.1-12.8,15.2
	c0.5,3.6,2,7,4.4,9.8C41.3,298.8,47.7,293.5,55.9,293.4L55.9,293.4z M69.1,338.5c0.6-3.6,0-6.1-1.5-7.8c-1.7-1.7-4-2.8-6.4-3.1
	c3.4,7.7-2.8,11.1-1,16.5c0.8,2.5,3.1,4.2,5.8,4.3c2.6,0,5.2-0.8,7.3-2.3C70.3,345.1,68.5,341.8,69.1,338.5L69.1,338.5z M69.1,338.5
	 M44.3,345.3c0.8,3.7,4.1,6.4,8.4,7c2.8,0.3,5.7,0.2,8.5-0.4c-6.1-2-7.6-8.4-5-13.8c1.4-2.8,2.2-6.4,0.9-9.7
	c-1.3-3.3-4.3-5.2-6.9-6.6c1.2,6.1-0.4,10.3-3.5,14.6C44.9,339.2,43.5,341.9,44.3,345.3L44.3,345.3z M44.3,345.3 M42.5,333.9
	c3.7-4.8,4.5-9.2,2.8-13.9c-1-2.8-2.7-5.4-4.8-7.5c-0.3,4.7-2.1,9.1-5.2,12.7l-5.3,6.1c-5.5,6.4-3.2,15.5,3.9,19.6
	c3.1,1.9,6.8,2.8,10.4,2.7C37.7,348.7,37.5,340.4,42.5,333.9L42.5,333.9z M86.1,351.7c-2.4-2.7-4.8-3.9-7-3.7
	c-2.4,0.3-4.6,1.4-6.4,3.1c8.1,2.2,6.9,9.1,12.3,11.1c2.5,0.9,5.3,0.2,7-1.8c1.6-2,2.6-4.5,2.7-7.2C92,354.9,88.3,354.2,86.1,351.7
	L86.1,351.7z M86.1,351.7 M75.9,375.4c3.4,1.7,7.6,0.8,10.7-2.2c2-2,3.7-4.3,5-6.9c-5.4,3.5-11.3,0.7-13.9-4.7
	c-1.4-2.8-3.6-5.7-7-6.7c-3.4-1-6.7,0.1-9.4,1.2c5.5,2.9,7.8,6.7,9.3,11.8C71.5,371,72.8,373.8,75.9,375.4L75.9,375.4z M75.9,375.4
	 M65.9,369.6c-1.4-5.9-4.4-9.3-9.2-10.9c-2.8-1-5.9-1.3-8.9-1c3.5,3.1,5.8,7.3,6.7,11.9l1.5,7.9c1.5,8.3,10.1,12.2,17.7,9.2
	c3.4-1.3,6.4-3.5,8.6-6.5C74.5,382.6,67.9,377.5,65.9,369.6L65.9,369.6z M107,346.6c-3.6,0.2-6,1.3-7.3,3.1
	c-1.3,2.1-1.8,4.5-1.6,6.9c6.8-5,11.4,0.3,16.3-2.7c2.3-1.4,3.4-4,3-6.6c-0.6-2.5-1.9-4.8-3.9-6.6C113.2,344,110.4,346.5,107,346.6
	L107,346.6z M107,346.6 M119.2,369.3c3.4-1.6,5.3-5.5,4.9-9.8c-0.3-2.9-1.1-5.6-2.3-8.2c-0.6,6.4-6.5,9.3-12.4,8
	c-3.1-0.7-6.7-0.8-9.6,1.3c-2.9,2-4.1,5.3-4.9,8.1c5.7-2.5,10.1-1.9,15,0.1C113,370.1,116,370.8,119.2,369.3L119.2,369.3z
	 M119.2,369.3 M108.4,373.6c-5.5-2.6-10-2.3-14.2,0.4c-2.5,1.6-4.7,3.8-6.3,6.4c4.6-0.8,9.4,0,13.5,2.2l7.1,3.8
	c7.5,3.9,15.8-0.3,18.2-8.1c1.1-3.5,1.2-7.2,0.3-10.7C123.9,374.9,115.8,377,108.4,373.6L108.4,373.6z M116.1,327.1
	c-2.1,3-2.7,5.5-2.1,7.6c0.8,2.3,2.4,4.2,4.4,5.5c0.3-8.4,7.3-8.8,8.1-14.5c0.3-2.6-1-5.2-3.3-6.4c-2.4-1.1-5-1.5-7.6-1.1
	C117.9,320.7,118.1,324.4,116.1,327.1L116.1,327.1z M116.1,327.1 M141.4,331.8c0.9-3.7-1-7.6-4.5-10c-2.4-1.5-5.1-2.7-7.9-3.4
	c4.6,4.5,3.2,10.9-1.5,14.6c-2.4,2-4.8,4.8-5,8.3c-0.2,3.5,1.6,6.5,3.3,8.9c1.6-6,4.8-9.1,9.5-11.7
	C138.1,337.1,140.5,335.2,141.4,331.8L141.4,331.8z M141.4,331.8 M138,342.8c-5.5,2.7-8.1,6.4-8.6,11.4c-0.3,3,0.1,6,1.1,8.9
	c2.3-4.1,5.8-7.3,10.2-9.2l7.4-3.2c7.8-3.3,9.6-12.6,5-19.3c-2-3-4.9-5.4-8.2-6.9C148.8,331.6,145.3,339.2,138,342.8L138,342.8z
	 M106.4,307.9c1,3.5,2.6,5.5,4.7,6.4c2.3,0.8,4.8,0.8,7.1,0c-6.4-5.5-2.3-11.2-6.3-15.3c-1.8-1.9-4.7-2.4-7.1-1.4
	c-2.3,1.1-4.3,3-5.6,5.3C102.6,302.5,105.6,304.6,106.4,307.9L106.4,307.9z M106.4,307.9 M125.9,291c-2.3-3-6.5-3.9-10.6-2.7
	c-2.7,0.9-5.3,2.3-7.5,4.1c6.4-0.8,10.5,4.3,10.5,10.3c0,3.1,0.8,6.7,3.4,9.1c2.6,2.4,6.1,2.8,9,3c-3.7-4.9-4.1-9.4-3.2-14.7
	C128,296.8,128.1,293.8,125.9,291L125.9,291z M125.9,291 M132.4,300.5c-1.3,5.9,0,10.3,3.5,13.8c2.2,2.1,4.7,3.7,7.6,4.7
	c-1.8-4.3-2.1-9.1-0.8-13.7l2.1-7.8c2.2-8.1-3.8-15.3-12-15.9c-3.6-0.3-7.3,0.4-10.5,2.1C130.3,285.1,134.1,292.5,132.4,300.5
	L132.4,300.5z M132.4,300.5"/>
</svg>
