<svg width="24" height="24" viewBox="0 0 24 24" fill="none" xmlns="http://www.w3.org/2000/svg">
<g clip-path="url(#clip0_99_1325)">
<path d="M23.976 12.792C24 12.528 24 12.264 24 12C24 11.736 24 11.472 23.976 11.208H18.072L23.76 9.672C23.664 9.144 23.52 8.64 23.352 8.136L17.664 9.672L22.776 6.72C22.536 6.24 22.272 5.784 21.984 5.328L16.848 8.28L21.024 4.104C20.664 3.696 20.304 3.336 19.896 2.976L15.72 7.152L18.672 2.04C18.216 1.728 17.76 1.464 17.28 1.224L14.328 6.336L15.864 0.648C15.36 0.48 14.832 0.336 14.328 0.24L12.792 5.928V0.024C12.528 0 12.264 0 12 0C11.736 0 11.472 0.024 11.208 0.024V8.064C13.368 7.608 15.504 9.024 15.936 11.184C16.392 13.344 14.976 15.48 12.816 15.912C10.656 16.344 8.52 14.952 8.088 12.792C7.68 10.8 8.808 8.832 10.752 8.184L6.696 1.224C6.216 1.464 5.76 1.728 5.304 2.016L8.256 7.128L4.104 2.976C3.696 3.336 3.312 3.696 2.976 4.104L7.152 8.28L2.016 5.328C1.728 5.76 1.44 6.24 1.224 6.72L6.336 9.672L0.648 8.136C0.48 8.64 0.336 9.168 0.24 9.672L5.928 11.208H0.024C0 11.472 0 11.736 0 12C0 12.264 0 12.528 0.024 12.792H5.928L0.216 14.328C0.312 14.856 0.456 15.36 0.624 15.864L6.312 14.328L1.224 17.28C1.464 17.76 1.728 18.216 2.016 18.672L7.128 15.72L2.976 19.896C3.336 20.304 3.696 20.664 4.104 21.024L8.28 16.848L5.328 21.984C5.76 22.272 6.24 22.56 6.72 22.776L9.672 17.664L8.136 23.352C8.64 23.52 9.168 23.664 9.672 23.76L11.208 18.072V23.976C11.472 24 11.736 24 12 24C12.264 24 12.528 23.976 12.792 23.976V18.072L14.328 23.76C14.856 23.664 15.36 23.52 15.864 23.352L14.328 17.664L17.28 22.776C17.76 22.536 18.216 22.272 18.672 21.984L15.72 16.872L19.896 21.048C20.304 20.688 20.664 20.328 21.024 19.92L16.848 15.72L21.96 18.672C22.248 18.24 22.536 17.76 22.752 17.28L17.664 14.328L23.352 15.864C23.52 15.36 23.664 14.832 23.76 14.328L18.072 12.792H23.976Z" fill="black"/>
</g>
<defs>
<clipPath id="clip0_99_1325">
<rect width="24" height="24" fill="white"/>
</clipPath>
</defs>
</svg>
