<svg width="24" height="25" viewBox="0 0 24 25" fill="none" xmlns="http://www.w3.org/2000/svg">
<g clip-path="url(#clip0_1_25229)">
<path d="M11.1775 0.573806C10.5413 0.573806 10.4098 0.684694 10.2033 0.91486C10.1223 0.909508 10.0374 0.907976 9.9487 0.907976C9.45931 0.907976 8.83075 0.979846 8.29471 1.33848C7.77703 1.68029 7.5308 2.28513 7.80685 2.72788C7.80685 2.72788 7.9919 2.45643 8.60058 2.45643C8.68622 2.45643 8.78104 2.46559 8.88198 2.474C9.72312 2.57341 10.3456 3.01616 10.2699 4.18534C10.2026 5.35376 9.76441 6.65677 7.97202 6.67207C7.97202 6.67207 7.74109 6.67207 7.49486 6.64913C6.66061 6.55813 6.39833 6.03432 6.39833 6.03432C6.39833 6.03432 7.11941 5.83856 7.12553 4.92325C7.11941 4.30081 6.57726 3.73114 5.795 3.50097C5.53883 3.42603 5.25744 3.38933 4.96457 3.38933C4.04237 3.38933 3.00701 3.77548 2.30886 4.68697C0.72599 6.77682 0.597525 9.82327 0.983685 12.6564C1.37214 15.4956 3.17294 18.1253 3.2257 18.1972C3.26394 18.2477 3.29835 18.2752 3.33734 18.2752C3.35723 18.2752 3.37787 18.266 3.39928 18.2484C4.17695 17.4937 4.91869 16.4622 5.23602 15.7724C5.57554 16.0431 5.39814 16.6189 5.21156 17.2337C5.03415 17.8623 4.60288 18.6965 4.44688 18.9657C4.29624 19.2287 4.09437 19.5346 4.36583 19.6944C4.39336 19.7112 4.42853 19.7204 4.47059 19.7204C4.81928 19.7204 5.63977 19.1125 6.55508 17.8921C7.57974 16.5187 8.09972 15.2999 8.09972 15.2999C8.17466 15.3167 8.30006 15.4436 8.27942 15.7893C8.26565 16.1402 7.90473 17.4463 7.202 18.6621C6.49162 19.8772 5.83553 20.6373 5.70324 20.8101C5.62142 20.9103 5.691 20.973 5.74377 21.0135C5.79576 21.0487 7.05212 22.2217 8.87739 23.2127C11.0399 24.365 11.9988 24.5723 11.9988 24.5723C11.9988 24.5723 12.9554 24.3704 15.1179 23.2188C16.9424 22.2262 18.2041 21.0479 18.2507 21.0081C18.3035 20.9722 18.3708 20.9156 18.2913 20.8055C18.1666 20.6403 17.5082 19.8764 16.7994 18.6614C16.099 17.454 15.7243 16.1395 15.7189 15.7931C15.7044 15.4436 15.8221 15.3281 15.894 15.2991C15.894 15.2991 16.4194 16.5256 17.444 17.8913C18.3639 19.1133 19.1768 19.7197 19.527 19.7197C19.5713 19.7197 19.6065 19.7105 19.6356 19.6937C19.8986 19.5338 19.7029 19.2234 19.5484 18.9634C19.4046 18.6957 18.9672 17.8669 18.7814 17.233C18.6033 16.6113 18.4182 16.0362 18.7638 15.7717C19.0819 16.4614 19.8183 17.4983 20.5983 18.2423C20.6189 18.2637 20.6426 18.2744 20.6656 18.2744C20.7 18.2744 20.7367 18.2476 20.7688 18.201C20.8262 18.1245 22.63 15.4994 23.0154 12.6556C23.4023 9.81638 23.2746 6.77682 21.6902 4.6862C20.9967 3.77242 19.9537 3.38397 19.0254 3.38397C18.7355 3.38397 18.4587 3.42144 18.2056 3.49409C17.4172 3.73114 16.8774 4.30618 16.882 4.9225C16.882 5.83782 17.6069 6.03355 17.6069 6.03355C17.6069 6.03355 17.3645 6.54436 16.5004 6.64836C16.3391 6.66824 16.1823 6.67741 16.0324 6.67741C15.3825 6.67741 14.835 6.47095 14.3303 5.75828C13.8409 5.07237 13.8569 3.66003 13.8286 3.18899C13.8065 2.71107 13.704 1.639 13.2016 1.20161C12.7008 0.75275 12.0905 0.602088 11.3297 0.572266C11.2739 0.573795 11.2242 0.573806 11.1775 0.573806Z" fill="#00AFE9"/>
</g>
<defs>
<clipPath id="clip0_1_25229">
<rect width="24" height="24" fill="white" transform="translate(0 0.572266)"/>
</clipPath>
</defs>
</svg>
