<svg width="24" height="24" viewBox="0 0 24 24" fill="none" xmlns="http://www.w3.org/2000/svg">
<path d="M11.9999 0.000183105C9.62681 0.000183105 7.30648 0.703972 5.33319 2.02256C3.3599 3.34114 1.82168 5.21531 0.91347 7.40801C0.00520921 9.60076 -0.23244 12.0135 0.230571 14.3414C0.693581 16.6691 1.83651 18.8073 3.51494 20.4856C5.19303 22.1638 7.33096 23.3067 9.65897 23.7697C11.987 24.2327 14.3995 23.9951 16.5921 23.0869C18.7848 22.1786 20.6592 20.6405 21.9778 18.6671C23.2963 16.6937 24 14.3736 24 12.0002C24 8.81764 22.7357 5.76535 20.4854 3.51492C18.2347 1.26447 15.1828 0.000183105 11.9999 0.000183105Z" fill="#ED1C24"/>
<path d="M11.6334 8.33352L9.55018 5.61686C9.50698 5.55978 9.45082 5.51351 9.38698 5.48169C9.32266 5.44986 9.2521 5.4334 9.1801 5.43349C9.11049 5.43311 9.04185 5.44885 8.97945 5.47953C8.91705 5.5102 8.86233 5.55489 8.82009 5.61018L6.3404 8.73351V13.6336L8.81337 10.4702C8.85849 10.4132 8.91562 10.3671 8.9809 10.3353C9.04618 10.3035 9.1177 10.287 9.19018 10.2869C9.26362 10.2866 9.3361 10.3033 9.40186 10.3357C9.4681 10.3681 9.5257 10.4152 9.57034 10.4735L11.6636 13.2102C11.703 13.2616 11.7534 13.3037 11.811 13.3336C11.8686 13.3636 11.932 13.3806 11.9968 13.3835C12.062 13.3813 12.1254 13.3646 12.183 13.3346C12.2406 13.3046 12.291 13.2621 12.3304 13.2102L14.4236 10.4735C14.4688 10.4158 14.5264 10.369 14.5921 10.3367C14.6579 10.3044 14.7304 10.2874 14.8038 10.2869C14.8763 10.2862 14.9483 10.3024 15.0136 10.3343C15.0788 10.366 15.136 10.4126 15.1801 10.4702L17.6469 13.6302V8.7302L15.1667 5.60687C15.124 5.55153 15.0688 5.50679 15.0059 5.47617C14.943 5.44549 14.8734 5.4298 14.8038 5.43018C14.7323 5.43081 14.6617 5.44761 14.5974 5.47938C14.5336 5.51111 14.4774 5.557 14.4337 5.6135L12.3668 8.33352C12.3241 8.38993 12.2684 8.43557 12.2046 8.46682C12.1412 8.49807 12.0711 8.51405 12.0001 8.51353C11.9295 8.51329 11.8595 8.49697 11.7961 8.46577C11.7328 8.43461 11.6771 8.38935 11.6334 8.33352ZM17.6637 17.2236H6.33032V13.6302H17.6637V17.2236Z" fill="white"/>
</svg>
