<svg width="24" height="24" viewBox="0 0 24 24" fill="none"
    xmlns="http://www.w3.org/2000/svg">
    <g clip-path="url(#clip0_643_990)">
        <path d="M9.15437 2C8.76424 2 8.44824 2.3161 8.44824 2.70587V7.65654H21.5219L15.5682 2.00046L9.15437 2Z" fill="#117ACA"/>
        <path d="M21.9998 9.15367C21.9998 8.76298 21.686 8.44824 21.2936 8.44824H16.3457V21.526L21.9975 15.5679L21.9998 9.15367Z" fill="#117ACA"/>
        <path d="M14.8465 21.9998C15.2357 21.9998 15.5517 21.6833 15.5517 21.2926V16.3438H2.47754L8.43216 21.9989L14.8465 21.9998Z" fill="#117ACA"/>
        <path d="M2 14.8471C2 15.2373 2.31601 15.5552 2.70705 15.5552H7.65406V2.47656L2.00091 8.43282L2 14.8471Z" fill="#117ACA"/>
    </g>
    <defs>
        <clipPath id="clip0_643_990">
            <rect width="20" height="20" fill="white" transform="translate(2 2)"/>
        </clipPath>
    </defs>
</svg>
