<svg width="24" height="24" viewBox="0 0 24 24" fill="none"
    xmlns="http://www.w3.org/2000/svg">
    <rect width="24" height="24" fill="#1858A8"/>
    <path fill-rule="evenodd" clip-rule="evenodd" d="M8.71324 13.8977V13.0595C8.32327 13.0895 7.93329 13.2392 7.63331 13.4487C7.90329 13.6882 8.29027 13.8379 8.71324 13.8977ZM8.71324 12.5806V12.1615H6.91036C6.94036 12.5207 7.09035 12.8201 7.30033 13.0895C7.69031 12.8171 8.17028 12.6075 8.71324 12.5806ZM8.71324 11.7094V11.2903C8.17028 11.2604 7.69031 11.0509 7.30033 10.7814C7.08735 11.0509 6.96735 11.3802 6.91036 11.7094H8.71324ZM8.71324 10.8084V9.96719C8.29327 10.0271 7.93329 10.1797 7.63331 10.4162C7.93029 10.6288 8.29027 10.7814 8.71324 10.8084ZM9.19321 9.97018V10.8114C9.58318 10.7814 9.97316 10.6318 10.2731 10.4222C9.97316 10.1797 9.58318 10.0301 9.19321 9.97018ZM9.19321 11.2903V11.7094H10.9961C10.9661 11.3472 10.8161 11.0479 10.6061 10.7814C10.2161 11.0479 9.70618 11.2305 9.19321 11.2903ZM9.19321 12.1585V12.5776C9.73617 12.6075 10.2161 12.8171 10.6061 13.0865C10.8161 12.8171 10.9361 12.4878 10.9961 12.1585H9.19321ZM9.19321 13.0296V13.8678C9.61318 13.8079 9.97316 13.6583 10.2731 13.4188C9.97316 13.2092 9.58318 13.0895 9.19321 13.0296ZM6.40039 11.919C6.40039 10.5689 7.54032 9.49121 8.95322 9.49121C10.3661 9.49121 11.5061 10.5689 11.5061 11.919C11.5061 13.2691 10.3631 14.3468 8.95322 14.3468C7.54032 14.3468 6.40039 13.2691 6.40039 11.919Z" fill="#F58423"/>
    <path fill-rule="evenodd" clip-rule="evenodd" d="M3.99391 8.44043H10.7555V9.06908H5.58681C5.22683 9.06908 4.95685 9.3385 4.95685 9.66779V14.4066C4.95685 14.7359 5.22683 15.0053 5.58681 15.0053H10.7255V15.634H3.99391C3.45095 15.634 3.00098 15.2149 3.00098 14.706V9.36844C3.00398 8.85953 3.45395 8.44043 3.99391 8.44043ZM14.6312 14.9784C14.2712 14.9784 13.9713 14.709 13.9713 14.3797V9.67079C13.9713 9.34149 14.2412 9.07207 14.6012 9.07207H14.6312C14.9942 9.07207 15.2642 9.34149 15.2642 9.67079V14.4096C15.2642 14.709 14.9912 14.9784 14.6312 14.9784ZM17.784 9.06908C17.424 9.06908 17.1541 9.3385 17.1541 9.66779V14.4066C17.1541 14.7359 17.424 15.0053 17.784 15.0053H17.934C18.597 15.0053 19.1369 14.4066 19.1369 13.6852C19.1369 12.9637 18.597 12.365 17.934 12.365H17.784V11.7064H17.934C18.597 11.7064 19.1369 11.1077 19.1369 10.3862C19.1369 9.6648 18.597 9.06609 17.934 9.06609H17.784V9.06908ZM11.4154 15.637V15.0083C11.7754 15.0083 12.0754 14.7389 12.0754 14.4096V9.67079C12.0754 9.34149 11.8054 9.07207 11.4454 9.07207V8.44342H18.8669C19.8869 8.44342 20.7298 9.25169 20.7298 10.2426C20.7298 10.9341 20.3099 11.5627 19.7069 11.8621C20.4568 12.1315 20.9998 12.85 20.9998 13.6911C20.9998 14.7688 20.0999 15.64 19.0169 15.64H11.4154V15.637Z" fill="white"/>
</svg>

