<svg width="12" height="12" viewBox="0 0 12 12" fill="none" xmlns="http://www.w3.org/2000/svg">
<path d="M11 5H1M5.5 7H3M1 4.1L1 7.9C1 8.46005 1 8.74008 1.10899 8.95399C1.20487 9.14215 1.35785 9.29513 1.54601 9.39101C1.75992 9.5 2.03995 9.5 2.6 9.5L9.4 9.5C9.96005 9.5 10.2401 9.5 10.454 9.39101C10.6422 9.29513 10.7951 9.14215 10.891 8.95399C11 8.74008 11 8.46005 11 7.9V4.1C11 3.53995 11 3.25992 10.891 3.04601C10.7951 2.85785 10.6422 2.70487 10.454 2.60899C10.2401 2.5 9.96005 2.5 9.4 2.5L2.6 2.5C2.03995 2.5 1.75992 2.5 1.54601 2.60899C1.35785 2.70487 1.20487 2.85785 1.10899 3.04601C1 3.25992 1 3.53995 1 4.1Z" stroke="#181B28" stroke-width="0.6" stroke-linecap="round" stroke-linejoin="round"/>
</svg>
