<svg width="24" height="24" viewBox="0 0 24 24" fill="none"
    xmlns="http://www.w3.org/2000/svg">
    <rect width="24" height="24" fill="#001E5E"/>
    <path d="M4.00586 0.0107422H19.986V23.9905H4.00586V0.0107422Z" fill="#001E5E"/>
    <path d="M10.5893 14.6051C10.8 8.67045 13.942 3.41909 18.6611 0.00585938H15.5267C11.7023 3.39107 9.13587 8.14127 9.02747 13.4222C8.9435 17.6074 9.73434 20.7887 11.9145 23.9981H12.713C11.0076 21.0455 10.4687 17.9452 10.5893 14.6051Z" fill="white"/>
    <path d="M11.108 23.9936C9.21945 21.9516 6.94006 18.1088 6.67288 13.9547C6.34464 8.87455 7.99349 3.92825 11.3187 0.0107422H13.8943C9.82555 4.1228 7.76143 9.57028 8.23319 14.9835C8.537 18.4419 9.86983 21.0006 11.9172 23.9936H11.108Z" fill="#FDB811"/>
    <path d="M11.9783 18.9909C13.6944 17.1807 15.2959 14.5644 15.7982 11.9527C16.5051 8.2967 15.5753 5.27413 15.5142 5.06557C15.4715 4.91615 15.447 4.8181 15.4715 4.80565C15.5188 4.77608 15.8822 5.436 16.1295 5.9574C16.6043 6.96596 17.1158 8.59709 17.0913 10.4726C17.0562 12.7994 16.2409 15.1138 14.7646 16.899C14.2532 17.5185 13.6669 18.0663 13.0043 18.527C12.5722 18.8243 11.8303 19.2337 11.8058 19.1932C11.789 19.1698 11.8745 19.0998 11.9783 18.9909Z" fill="white"/>
    <path d="M11.917 19.0436C13.0712 17.6879 14.1094 15.772 14.3613 13.9089C14.7155 11.2942 13.9292 9.19921 13.8773 9.05291C13.8376 8.95174 13.8178 8.8817 13.833 8.87392C13.8697 8.85057 14.1567 9.30038 14.3521 9.65835C14.7323 10.351 15.1674 11.4809 15.2223 12.807C15.291 14.4506 14.8086 16.1222 13.8254 17.4451C13.4819 17.9043 13.088 18.3183 12.6315 18.6731C12.3368 18.9004 11.8254 19.2226 11.8055 19.193C11.7888 19.1728 11.8498 19.1245 11.917 19.0436Z" fill="#FDB811"/>
</svg>
