<svg width="24" height="24" viewBox="0 0 24 24" fill="none"
    xmlns="http://www.w3.org/2000/svg">
    <path d="M11.542 6.44424L13.4623 5.33686V4.46875H11.542V6.44424Z" fill="#FFC627"/>
    <path d="M10.1989 12.698C9.76274 13.0322 9.11419 13.2644 8.426 13.406C7.83409 13.5278 7.21387 13.5844 6.6701 13.5844C4.88306 13.5844 2 12.4403 2 9.11259C2 5.59514 4.69898 4.41699 6.8995 4.41699C8.41467 4.41699 9.57016 5.10236 9.70043 5.18449L9.52201 5.91516C8.9386 5.15617 8.09464 4.63506 6.84003 4.63506C6.16033 4.63506 5.60241 4.87579 5.23141 5.16749C4.78394 5.51867 3.78421 6.28617 3.78421 9.0786C3.78421 11.871 5.11529 13.355 6.73241 13.355C7.37246 13.355 8.09748 13.188 8.42883 12.7377V10.2029L7.59903 10.6844V10.067L10.2017 8.56316V12.698H10.1989ZM11.7367 7.67955L13.5096 6.65717V13.4258H11.7367V7.67955ZM19.4824 12.8679C19.4824 12.8679 19.1086 13.2588 18.0806 13.2588H16.8203V8.8662H18.0211C18.0211 8.8662 18.7461 8.8577 19.1426 9.09276C19.1426 9.09276 19.7232 9.3873 19.9073 10.2058C19.9044 10.2029 20.2754 12.1089 19.4824 12.8679ZM16.8175 4.90411H18.1457C18.1457 4.90411 19.5731 4.88145 19.709 6.15306C19.709 6.15306 19.8365 7.39351 19.4371 8.05055C19.4371 8.05055 19.103 8.70193 18.1457 8.70193H16.8175V4.90411ZM21.1987 9.42978C21.1987 9.42978 20.6266 8.90301 19.1058 8.75858C19.1058 8.75858 19.7855 8.74442 20.6917 8.21198C21.8841 7.50963 21.4621 6.18138 21.4621 6.18138C21.0514 4.68887 18.2732 4.74551 18.2732 4.74551H16.8175H16.8146L15.0446 5.7679V13.423H18.4799C18.4799 13.423 21.2865 13.508 21.8897 11.7351C21.8926 11.7379 22.4052 10.3615 21.1987 9.42978Z" fill="#56565A"/>
    <path d="M21.8651 14.7939H2.13965V14.9242H21.8651V14.7939Z" fill="#FFC627"/>
    <path d="M3.28516 18.4629C3.28516 18.4317 3.27383 18.4062 3.25118 18.3836C3.22852 18.3609 3.20303 18.3496 3.17188 18.3496C3.14072 18.3496 3.11524 18.3609 3.09258 18.3836C3.06992 18.4062 3.05859 18.4317 3.05859 18.4629C3.05859 18.494 3.06992 18.5195 3.09258 18.5422C3.11524 18.5648 3.14072 18.5762 3.17188 18.5762C3.20303 18.5762 3.22852 18.5648 3.25118 18.5422C3.27383 18.5224 3.28516 18.494 3.28516 18.4629Z" fill="#56565A"/>
    <path d="M2.91524 18.3846C2.89258 18.3619 2.86709 18.3506 2.83594 18.3506C2.80479 18.3506 2.7793 18.3619 2.75664 18.3846C2.73398 18.4072 2.72266 18.4327 2.72266 18.4639C2.72266 18.495 2.73398 18.5205 2.75664 18.5432C2.7793 18.5658 2.80479 18.5772 2.83594 18.5772C2.86709 18.5772 2.89258 18.5658 2.91524 18.5432C2.93789 18.5205 2.94922 18.495 2.94922 18.4639C2.94922 18.4327 2.93789 18.4044 2.91524 18.3846Z" fill="#56565A"/>
    <path d="M3.56047 17.3601C3.5095 17.3544 3.45852 17.3459 3.40754 17.3346C3.35657 17.3233 3.30559 17.3119 3.25461 17.2978C3.20646 17.2836 3.15832 17.2695 3.11301 17.2553H3.11017V17.4167L3.18664 17.4365C3.23762 17.4507 3.29426 17.4677 3.35373 17.4875C3.41321 17.5073 3.46702 17.53 3.51516 17.5527C3.56331 17.5782 3.60579 17.6065 3.63694 17.6348C3.66809 17.6659 3.68509 17.6971 3.68509 17.7339C3.68509 17.7764 3.66809 17.8132 3.63128 17.8444C3.59446 17.8755 3.54631 17.901 3.48401 17.9237C3.4217 17.9435 3.34807 17.9605 3.26594 17.969C3.18381 17.9775 3.09601 17.9831 3.00255 17.9831C2.75616 17.9831 2.57491 17.9435 2.46446 17.8699C2.35401 17.7934 2.29737 17.6744 2.29737 17.5102V17.1732H2.1416V17.5498C2.1416 17.6348 2.15576 17.7141 2.18125 17.7877C2.20674 17.8614 2.25205 17.9237 2.31719 17.9775C2.38233 18.0313 2.47012 18.0738 2.58057 18.1049C2.69103 18.1361 2.8298 18.1502 2.99972 18.1502C3.15266 18.1502 3.28293 18.1389 3.38772 18.1162C3.49251 18.0936 3.5803 18.0653 3.64544 18.0285C3.71058 17.9916 3.75872 17.952 3.78704 17.9038C3.81536 17.8557 3.82952 17.8075 3.82952 17.7566C3.82952 17.7254 3.82103 17.6886 3.80687 17.649C3.79271 17.6121 3.76722 17.5782 3.73323 17.5442L3.72474 17.5357H5.18326V16.1338H5.02183V17.3714H3.70208C3.6596 17.3686 3.61145 17.3657 3.56047 17.3601Z" fill="#56565A"/>
    <path d="M6.25402 17.2764C6.22287 17.3019 6.18038 17.3245 6.12657 17.3444C6.07277 17.367 6.00763 17.3755 5.93683 17.3755C5.84337 17.3755 5.7669 17.3528 5.70743 17.3075C5.65078 17.2622 5.61963 17.1829 5.61963 17.0753C5.61963 17.0385 5.6253 16.9988 5.63662 16.9564C5.64795 16.9139 5.66778 16.8771 5.69327 16.8431C5.71875 16.8091 5.75274 16.7808 5.79239 16.7581C5.83204 16.7355 5.88302 16.7241 5.93966 16.7241C5.9963 16.7241 6.04728 16.7355 6.08409 16.7581C6.12374 16.7808 6.1549 16.8119 6.18038 16.8516C6.20587 16.8912 6.22287 16.9394 6.23419 16.9932C6.24552 17.047 6.25119 17.1093 6.25119 17.1716V17.2764H6.25402ZM6.31632 16.7524C6.27951 16.6958 6.23136 16.6505 6.17189 16.6165C6.11241 16.5825 6.03878 16.5684 5.95099 16.5684C5.87169 16.5684 5.80372 16.5825 5.74141 16.6137C5.68194 16.6448 5.62813 16.6845 5.58848 16.7355C5.546 16.7864 5.51484 16.8431 5.49502 16.9054C5.4752 16.9677 5.46387 17.0328 5.46387 17.098C5.46387 17.1801 5.4752 17.2481 5.49785 17.3047C5.52051 17.3585 5.55449 17.4038 5.59414 17.4406C5.63379 17.4746 5.68194 17.5001 5.73575 17.5143C5.78956 17.5284 5.84903 17.5369 5.91134 17.5369C5.98497 17.5369 6.05011 17.5284 6.10675 17.5086C6.15773 17.4916 6.20304 17.4718 6.24269 17.4491L6.25119 17.4435V17.5369C6.25119 17.6191 6.23703 17.6842 6.20871 17.7323C6.18038 17.7805 6.1379 17.8201 6.08693 17.8485C6.03595 17.8768 5.97364 17.8938 5.90001 17.9051C5.82921 17.9136 5.74708 17.9193 5.65928 17.9193H5.6083V18.0835H5.66778C5.78672 18.0835 5.89434 18.075 5.98497 18.0552C6.0756 18.0354 6.1549 18.0014 6.22003 17.9561C6.28234 17.9108 6.33332 17.8456 6.36447 17.7692C6.39845 17.6899 6.41545 17.5907 6.41545 17.4718V17.2282C6.41545 17.1348 6.40695 17.0441 6.39279 16.9649C6.37863 16.8799 6.35314 16.8119 6.31632 16.7524Z" fill="#56565A"/>
    <path d="M7.59113 17.2752C7.54299 17.2129 7.48918 17.1308 7.42687 17.0288L7.12667 16.5332L6.9709 16.6323L7.21446 16.9892C7.24278 17.0345 7.26827 17.0741 7.28243 17.1138C7.29659 17.1506 7.30509 17.1903 7.30509 17.2271C7.30509 17.2696 7.2881 17.3035 7.25411 17.329C7.22013 17.3545 7.16065 17.3687 7.07569 17.3687H6.63672V17.5329H7.00489C7.05587 17.5329 7.10684 17.5301 7.15216 17.5273C7.19747 17.5244 7.23995 17.5131 7.27677 17.499C7.31359 17.482 7.34474 17.4593 7.37023 17.4281C7.39288 17.3998 7.40988 17.3602 7.41837 17.3149L7.42121 17.3035L7.42687 17.3149C7.47502 17.3913 7.52316 17.448 7.56847 17.482C7.61662 17.5188 7.67326 17.5386 7.73557 17.5386H8.33597V16.1367H8.17454V17.3743H7.7384C7.68742 17.3687 7.63644 17.3375 7.59113 17.2752Z" fill="#56565A"/>
    <path d="M8.83916 16.1299H8.67773V17.5318H8.83916V16.1299Z" fill="#56565A"/>
    <path d="M10.1594 17.8973C10.1367 17.8746 10.1112 17.8633 10.0801 17.8633C10.0489 17.8633 10.0234 17.8746 10.0008 17.8973C9.97813 17.9199 9.9668 17.9454 9.9668 17.9766C9.9668 18.0077 9.97813 18.0332 10.0008 18.0559C10.0234 18.0785 10.0489 18.0898 10.0801 18.0898C10.1112 18.0898 10.1367 18.0785 10.1594 18.0559C10.182 18.0332 10.1934 18.0077 10.1934 17.9766C10.1934 17.9454 10.182 17.9199 10.1594 17.8973Z" fill="#56565A"/>
    <path d="M12.7785 17.7898C12.7559 17.7672 12.7304 17.7559 12.6992 17.7559C12.6681 17.7559 12.6426 17.7672 12.6199 17.7898C12.5973 17.8125 12.5859 17.838 12.5859 17.8691C12.5859 17.9003 12.5973 17.9258 12.6199 17.9484C12.6426 17.9711 12.6681 17.9824 12.6992 17.9824C12.7304 17.9824 12.7559 17.9711 12.7785 17.9484C12.8012 17.9258 12.8125 17.9003 12.8125 17.8691C12.8097 17.838 12.7983 17.8097 12.7785 17.7898Z" fill="#56565A"/>
    <path d="M12.4387 17.7898C12.416 17.7672 12.3905 17.7559 12.3594 17.7559C12.3282 17.7559 12.3027 17.7672 12.2801 17.7898C12.2574 17.8125 12.2461 17.838 12.2461 17.8691C12.2461 17.9003 12.2574 17.9258 12.2801 17.9484C12.3027 17.9711 12.3282 17.9824 12.3594 17.9824C12.3905 17.9824 12.416 17.9711 12.4387 17.9484C12.4613 17.9258 12.4727 17.9003 12.4727 17.8691C12.4727 17.838 12.4613 17.8097 12.4387 17.7898Z" fill="#56565A"/>
    <path d="M14.4306 16.1985C14.4504 16.2212 14.4787 16.2325 14.507 16.2325C14.5382 16.2325 14.5637 16.2212 14.5863 16.1985C14.609 16.1759 14.6203 16.1504 14.6203 16.1192C14.6203 16.0881 14.609 16.0626 14.5863 16.0399C14.5637 16.0201 14.5354 16.0088 14.507 16.0088C14.4759 16.0088 14.4504 16.0201 14.4306 16.0399C14.4107 16.0626 14.3994 16.0881 14.3994 16.1192C14.3994 16.1476 14.4079 16.1759 14.4306 16.1985Z" fill="#56565A"/>
    <path d="M15.2197 17.3658C15.2197 17.2582 15.2056 17.1534 15.1773 17.0543C15.1489 16.9524 15.1065 16.8646 15.047 16.7909C14.9875 16.7173 14.9139 16.655 14.8204 16.6125C14.7298 16.5672 14.6193 16.5474 14.4919 16.5474C14.4324 16.5474 14.3786 16.553 14.3248 16.5644C14.271 16.5757 14.2285 16.587 14.1945 16.5955H14.1917V16.7513H14.1945C14.2342 16.7428 14.2767 16.7343 14.3248 16.7286C14.4607 16.7088 14.5797 16.7173 14.6901 16.7541C14.7609 16.7768 14.8232 16.8164 14.8742 16.8674C14.9252 16.9184 14.9677 16.9892 14.9988 17.0713C15.03 17.1534 15.0441 17.2554 15.0441 17.3715V17.3772H13.6593C13.5715 17.3772 13.512 17.3488 13.4808 17.2922C13.4497 17.2356 13.4327 17.1591 13.4327 17.06V16.1367H13.2713V17.1733C13.2713 17.2214 13.2628 17.2611 13.2486 17.2894C13.2344 17.3149 13.2146 17.3347 13.1891 17.3488C13.1636 17.3602 13.1353 17.3687 13.1042 17.3715C13.073 17.3743 13.039 17.3743 13.005 17.3743H12.8465C12.7587 17.3743 12.6992 17.346 12.668 17.2894C12.6369 17.2327 12.6199 17.1563 12.6199 17.0571V16.5814H12.4585V17.1704C12.4585 17.2186 12.45 17.2582 12.4358 17.2865C12.4216 17.312 12.4018 17.3319 12.3763 17.346C12.3508 17.3573 12.3225 17.3658 12.2914 17.3687C12.2602 17.3715 12.2262 17.3715 12.1894 17.3715H10.7762V17.3658C10.7762 17.2582 10.762 17.1534 10.7337 17.0543C10.7054 16.9524 10.6629 16.8646 10.6034 16.7909C10.544 16.7173 10.4675 16.655 10.3769 16.6125C10.2862 16.5672 10.1758 16.5474 10.0484 16.5474C9.98888 16.5474 9.93507 16.553 9.88126 16.5644C9.82745 16.5757 9.78497 16.587 9.75098 16.5955H9.74815V16.7513H9.75098C9.79063 16.7428 9.83311 16.7343 9.88126 16.7286C10.0172 16.7088 10.1418 16.7173 10.2466 16.7541C10.3174 16.7768 10.3797 16.8164 10.4307 16.8674C10.4845 16.9184 10.5241 16.9892 10.5553 17.0713C10.5864 17.1534 10.6006 17.2554 10.6006 17.3715V17.3772H10.0172C9.9379 17.3772 9.85577 17.3857 9.77364 17.4055C9.69151 17.4253 9.61788 17.4565 9.54991 17.5018C9.48477 17.5471 9.43096 17.6094 9.38848 17.6887C9.346 17.768 9.32617 17.8671 9.32617 17.9861C9.32617 18.0852 9.34316 18.173 9.37998 18.2466C9.41397 18.3203 9.46494 18.3854 9.52725 18.4335C9.58956 18.4845 9.66602 18.5213 9.75382 18.5468C9.84161 18.5723 9.94073 18.5865 10.0455 18.5865C10.071 18.5865 10.1022 18.5836 10.1446 18.5808C10.1843 18.578 10.2296 18.5695 10.2778 18.561C10.3259 18.5497 10.3769 18.5383 10.4279 18.5185C10.4788 18.5015 10.527 18.4789 10.5723 18.4505H10.5751L10.5072 18.3203H10.5043C10.4109 18.3627 10.3259 18.3911 10.2523 18.4024C10.0852 18.4279 9.9464 18.425 9.83028 18.3939C9.76514 18.3769 9.7085 18.3486 9.66036 18.3118C9.61221 18.2749 9.57256 18.2296 9.54424 18.173C9.51592 18.1163 9.50176 18.0484 9.50176 17.9691C9.50176 17.8841 9.51875 17.8133 9.54991 17.7567C9.58106 17.7029 9.62354 17.6604 9.67452 17.6292C9.7255 17.5981 9.77931 17.5754 9.84161 17.5641C9.90108 17.5528 9.96056 17.5471 10.0172 17.5471H12.2121C12.2602 17.5471 12.2999 17.5443 12.3367 17.5414C12.3735 17.5358 12.4075 17.5301 12.4358 17.5188C12.4641 17.5074 12.4924 17.4933 12.5151 17.4735C12.5349 17.4565 12.5547 17.4366 12.5717 17.4112L12.5774 17.4055L12.5802 17.414C12.6029 17.4621 12.6369 17.499 12.6822 17.5188C12.7275 17.5386 12.7785 17.5499 12.8351 17.5499C12.838 17.5499 12.838 17.5499 12.838 17.5499H13.0249C13.0702 17.5499 13.1127 17.5471 13.1495 17.5443C13.1863 17.5386 13.2203 17.5329 13.2486 17.5216C13.2769 17.5103 13.3052 17.4961 13.3279 17.4763C13.3477 17.4593 13.3676 17.4395 13.3845 17.414L13.3902 17.4083L13.393 17.4168C13.4157 17.465 13.4497 17.5018 13.495 17.5216C13.5403 17.5414 13.5941 17.5528 13.6508 17.5528H15.9561V16.1509H15.7946V17.3885H15.2141V17.3658H15.2197Z" fill="#56565A"/>
    <path d="M16.4661 16.1299H16.3047V17.5318H16.4661V16.1299Z" fill="#56565A"/>
    <path d="M18.2899 16.7327C18.2588 16.7072 18.2446 16.6732 18.2446 16.6279C18.2446 16.5996 18.2531 16.5713 18.273 16.5458C18.2928 16.5203 18.3296 16.5062 18.3834 16.5062C18.3976 16.5062 18.4089 16.5062 18.4231 16.509C18.4372 16.5118 18.4514 16.5146 18.4712 16.5175H18.474V16.4127H18.4712C18.4599 16.4099 18.4457 16.407 18.4259 16.4042C18.4089 16.4014 18.3891 16.4014 18.3721 16.4014C18.3126 16.4014 18.2616 16.4212 18.2163 16.458C18.171 16.4948 18.1483 16.5515 18.1483 16.6223C18.1483 16.6732 18.1653 16.7186 18.1993 16.761L18.205 16.7695H18.0889V16.8658H18.5193V16.7695H18.4202C18.3664 16.7695 18.3211 16.7582 18.2899 16.7327Z" fill="#56565A"/>
    <path d="M20.873 16.1946C20.8928 16.2173 20.9211 16.2286 20.9494 16.2286C20.9806 16.2286 21.0061 16.2173 21.0287 16.1946C21.0514 16.172 21.0627 16.1465 21.0627 16.1153C21.0627 16.0842 21.0514 16.0587 21.0287 16.036C21.0061 16.0162 20.9777 16.0049 20.9494 16.0049C20.9183 16.0049 20.8928 16.0162 20.873 16.036C20.8531 16.0587 20.8418 16.0842 20.8418 16.1153C20.8418 16.1465 20.8503 16.172 20.873 16.1946Z" fill="#56565A"/>
    <path d="M21.6772 17.3676H21.2552C21.1675 17.3676 21.108 17.3393 21.0768 17.2826C21.0457 17.226 21.0287 17.1495 21.0287 17.0504V16.5803H20.8673V17.1694C20.8673 17.2175 20.8588 17.2571 20.8446 17.2855C20.8304 17.311 20.8106 17.3308 20.7851 17.3449C20.7596 17.3563 20.7313 17.3648 20.7002 17.3676C20.669 17.3704 20.635 17.3704 20.5982 17.3704H19.4314C19.3861 17.3704 19.3493 17.3619 19.3209 17.3478C19.2926 17.3336 19.2671 17.311 19.2501 17.2855C19.2331 17.2571 19.2218 17.226 19.2133 17.1863C19.2048 17.1467 19.202 17.1042 19.202 17.0561V16.1328H19.0434V17.1694C19.0434 17.2175 19.0349 17.2571 19.0207 17.2855C19.0066 17.3138 18.9868 17.3336 18.9613 17.3449C18.9358 17.3563 18.9075 17.3648 18.8763 17.3676C18.8451 17.3704 18.8112 17.3704 18.7743 17.3704H17.8199C17.7321 17.3704 17.6585 17.3676 17.6019 17.3619C17.5452 17.3563 17.4971 17.3449 17.4631 17.3251C17.4291 17.3081 17.4064 17.2798 17.3923 17.243C17.3781 17.2062 17.3725 17.158 17.3725 17.0986V16.7984H17.2139V17.175C17.2139 17.2402 17.2224 17.2968 17.2394 17.3421C17.2563 17.3874 17.2847 17.4242 17.3215 17.4526C17.3583 17.4809 17.4121 17.5007 17.4744 17.5149C17.5367 17.5262 17.6189 17.5347 17.7123 17.5347H18.7942C18.8876 17.5347 18.9613 17.5262 19.0179 17.5064C19.0689 17.4894 19.1142 17.4526 19.1538 17.3959L19.1595 17.3903L19.1623 17.3988C19.185 17.4469 19.219 17.4837 19.2643 17.5035C19.3124 17.5262 19.3662 17.5375 19.4257 17.5375H20.6152C20.6605 17.5375 20.703 17.5347 20.7398 17.5319C20.7766 17.5262 20.8106 17.5205 20.8389 17.5092C20.8673 17.4979 20.8956 17.4837 20.9182 17.4639C20.9381 17.4469 20.9579 17.4271 20.9749 17.4016L20.9805 17.3959L20.9834 17.4044C21.006 17.4526 21.0428 17.4894 21.0853 17.5092C21.1306 17.529 21.1816 17.5404 21.2383 17.5404C21.2411 17.5404 21.2411 17.5404 21.2411 17.5404H21.8302V16.5803H21.6687V17.3676H21.6772Z" fill="#56565A"/>
    <path d="M21.8273 17.784C21.8047 17.7613 21.7792 17.75 21.748 17.75C21.7169 17.75 21.6914 17.7613 21.6688 17.784C21.6461 17.8066 21.6348 17.8321 21.6348 17.8633C21.6348 17.8944 21.6461 17.9199 21.6688 17.9426C21.6914 17.9652 21.7169 17.9766 21.748 17.9766C21.7792 17.9766 21.8047 17.9652 21.8273 17.9426C21.85 17.9199 21.8613 17.8944 21.8613 17.8633C21.8613 17.8321 21.85 17.8066 21.8273 17.784Z" fill="#56565A"/>
</svg>
