<svg width="24" height="24" viewBox="0 0 24 24" fill="none" xmlns="http://www.w3.org/2000/svg">
<rect width="24" height="24" fill="white"/>
<g clip-path="url(#clip0_49_1228)">
<path d="M14.331 11.7313C14.7332 11.6393 14.9931 11.349 14.9931 10.906C14.9931 10.3662 14.6421 10.0048 13.9135 10.0048H12.7372V13.5698H13.9543C14.7132 13.5698 15.1203 13.2131 15.1203 12.6069C15.1203 12.1231 14.83 11.8121 14.331 11.7313ZM12.9611 10.1879H13.9087C14.4845 10.1879 14.7596 10.4678 14.7596 10.9212C14.7596 11.3746 14.4845 11.6497 13.9087 11.6497H12.9611V10.1879ZM13.9439 13.3866H12.9611V11.8329H13.9439C14.5805 11.8329 14.886 12.1231 14.886 12.6069C14.886 13.0955 14.5805 13.3866 13.9439 13.3866ZM16.3989 11.0332C15.9303 11.0332 15.5945 11.2931 15.4721 11.6697L15.6656 11.7313C15.7928 11.3802 16.0575 11.2067 16.3989 11.2067C16.8268 11.2067 17.0715 11.4106 17.0715 11.9456V12.0879L16.7452 12.1031C15.6504 12.1391 15.3394 12.4798 15.3394 12.9132C15.3394 13.3562 15.696 13.6313 16.1694 13.6313C16.5869 13.6313 16.9075 13.433 17.0707 13.0764V13.5706H17.285V11.996C17.285 11.3291 16.9587 11.0332 16.3989 11.0332ZM17.0707 12.6069C17.0707 13.0804 16.7348 13.4578 16.195 13.4578C15.8184 13.4578 15.5585 13.2387 15.5585 12.9132C15.5585 12.567 15.7976 12.2919 16.7548 12.2615L17.0707 12.2511C17.0707 12.2503 17.0707 12.6069 17.0707 12.6069ZM18.838 11.0332C18.3846 11.0332 18.0487 11.3235 17.8959 11.7257V11.0939H17.6768V13.569H17.8959V12.3271C17.8959 11.6697 18.263 11.2171 18.7972 11.2171C19.2146 11.2171 19.4289 11.4666 19.4289 11.9552V13.5698H19.648V11.9096C19.648 11.3794 19.3626 11.0332 18.838 11.0332ZM20.9619 12.0672L21.8528 11.0939H21.5881L20.259 12.5606V10.0048H20.0399V13.5698H20.259V12.8261L20.8196 12.2199L21.7464 13.569H21.9959L20.9619 12.0672ZM8.95393 10.9652H9.17224C9.17224 10.9652 9.17064 10.1863 9.88235 10.1863C9.88235 10.1863 10.0623 10.1863 10.0991 10.1863C10.0991 10.2231 10.0991 13.3874 10.0991 13.3874H9.7584C9.54089 13.3658 9.35936 13.2259 9.18423 13.0596L8.92834 12.8125C8.98431 12.7373 9.05868 12.6221 9.11066 12.5022C9.16984 12.3662 9.21302 12.1111 9.23941 12.0488C9.24821 12.028 9.2578 12.0088 9.2698 11.9896C9.30339 11.936 9.36016 11.8912 9.41774 11.8664C9.46172 11.8472 9.5153 11.8345 9.56408 11.8345H9.59687V11.6497H8.5293V11.8345H8.60127C8.79559 11.8353 8.95393 11.9928 8.95393 12.1903C8.95393 12.4446 8.7636 12.6533 8.7636 12.6533L7.78799 11.7057C8.22382 11.5474 8.59007 11.3299 8.59007 10.9204C8.59007 10.4894 8.2614 10.1863 7.66804 10.1863C7.06588 10.1863 6.66524 10.519 6.66524 11.0572C6.66524 11.4114 6.82758 11.6417 6.98511 11.8001C6.49011 11.992 6.19583 12.2439 6.19583 12.7053C6.19583 13.3538 6.7804 13.6145 7.42974 13.6145C7.85676 13.6145 8.21502 13.4866 8.49251 13.2819C8.49651 13.2787 8.67724 13.5722 9.20982 13.5722C9.24821 13.5722 11.2354 13.5706 11.2354 13.5706V13.3874H10.8452C10.8452 13.3874 10.8452 10.2191 10.8452 10.1863C10.882 10.1863 11.0619 10.1863 11.0619 10.1863C11.7712 10.1863 11.772 10.9652 11.772 10.9652H11.9903V10.0048H8.95393V10.9652ZM7.64725 10.3678C7.88235 10.3678 8.0271 10.5566 8.0271 10.8253C8.0271 11.1243 7.89435 11.381 7.60886 11.5346C7.42494 11.3554 7.2674 11.1107 7.2674 10.8165C7.2666 10.5526 7.41214 10.3678 7.64725 10.3678ZM7.62566 13.3035C7.20343 13.3035 6.88755 12.9908 6.88755 12.5726C6.88755 12.2783 6.95553 12.0991 7.15225 11.9712L8.33018 13.1275C8.13745 13.2595 7.89035 13.3035 7.62566 13.3035ZM5.83437 10.1863H6.25661V10.004H5.11866C5.11866 10.004 4.17744 12.355 4.14705 12.431C4.11666 12.3542 3.17064 10.004 3.17064 10.004H2.00391V10.1871H2.42614L2.42534 13.3866H2.07588V13.569H3.10587V13.3866H2.64925C2.64925 13.3866 2.64925 10.7165 2.64925 10.5941C2.70283 10.7293 3.79679 13.4874 3.79679 13.4874H3.98152C3.98152 13.4874 5.06028 10.7301 5.11386 10.5941C5.11386 10.7437 5.11226 13.3874 5.11226 13.3874H4.75321V13.569H6.19503V13.3874H5.83437V10.1863Z" fill="#027856"/>
</g>
<defs>
<clipPath id="clip0_49_1228">
<rect width="20" height="3.63455" fill="white" transform="translate(2 9.99999)"/>
</clipPath>
</defs>
</svg>
