<?xml version="1.0" encoding="UTF-8"?>
<svg version="1.1" xmlns="http://www.w3.org/2000/svg" width="800" height="800">
<path d="M0 0 C1.50036301 0.00323273 1.50036301 0.00323273 3.03103638 0.00653076 C77.39348927 0.26223183 150.60333028 23.98497232 210.5 68.3125 C211.08861816 68.74804199 211.67723633 69.18358398 212.28369141 69.63232422 C233.18186983 85.20269434 254.12084865 103.05206053 270.30859375 123.5625 C272.27286761 126.02747112 274.30629225 128.41325935 276.3762207 130.78955078 C288.30218834 144.55305422 298.35842629 159.58954455 307.5 175.3125 C307.91846191 176.02841309 308.33692383 176.74432617 308.76806641 177.48193359 C333.13050695 219.42943657 348.81783286 266.10419714 354.5 314.3125 C354.60296387 315.15973633 354.70592773 316.00697266 354.81201172 316.87988281 C365.63984858 410.03691207 337.82530174 505.10923797 279.93359375 578.58984375 C275.73818561 583.79214985 271.34487536 588.7982781 266.8359375 593.73046875 C264.94008397 595.82605266 263.08807519 597.94683927 261.2421875 600.0859375 C257.40832721 604.47460408 253.37205509 608.63262693 249.25 612.75 C248.50202148 613.49717285 247.75404297 614.2443457 246.98339844 615.01416016 C242.22748568 619.71777633 237.40836186 624.10928886 232.13671875 628.23046875 C229.73342253 630.12818265 227.4303412 632.10991752 225.13110352 634.13134766 C210.89991994 646.54847063 194.83732854 656.8988097 178.5 666.3125 C177.16291992 667.08376221 177.16291992 667.08376221 175.79882812 667.87060547 C138.91699054 688.93780473 98.95093616 702.32930818 57.1875 709.5625 C56.31859131 709.71388428 55.44968262 709.86526855 54.55444336 710.02124023 C36.94201749 712.87256094 19.31548367 713.69306193 1.5 713.625 C-0.03587769 713.62176727 -0.03587769 713.62176727 -1.6027832 713.61846924 C-76.1462539 713.36790538 -149.4374663 689.76277808 -209.5 645.3125 C-210.08861816 644.87695801 -210.67723633 644.44141602 -211.28369141 643.99267578 C-232.28814271 628.34312613 -253.24296412 610.41093192 -269.5078125 589.796875 C-271.33861472 587.51375694 -273.25337611 585.38746458 -275.25 583.25 C-281.6480177 576.12551415 -287.01269793 568.14244478 -292.5 560.3125 C-292.94633789 559.68069824 -293.39267578 559.04889648 -293.85253906 558.39794922 C-334.83423419 500.09756276 -355.69680917 428.25103905 -355.75 357.3125 C-355.75067474 356.49090393 -355.75134949 355.66930786 -355.75204468 354.82281494 C-355.64145497 269.02794172 -323.90692224 183.41662376 -265.8359375 119.89453125 C-263.94008397 117.79894734 -262.08807519 115.67816073 -260.2421875 113.5390625 C-256.40832721 109.15039592 -252.37205509 104.99237307 -248.25 100.875 C-247.50202148 100.12782715 -246.75404297 99.3806543 -245.98339844 98.61083984 C-241.22748568 93.90722367 -236.40836186 89.51571114 -231.13671875 85.39453125 C-228.73342253 83.49681735 -226.4303412 81.51508248 -224.13110352 79.49365234 C-209.89991994 67.07652937 -193.83732854 56.7261903 -177.5 47.3125 C-176.60861328 46.7983252 -175.71722656 46.28415039 -174.79882812 45.75439453 C-121.64294969 15.39133356 -61.16450827 -0.23948164 0 0 Z M-102.5 37.3125 C-103.37156738 37.59206543 -104.24313477 37.87163086 -105.14111328 38.15966797 C-118.008754 42.32881277 -130.2959295 47.49549559 -142.5 53.3125 C-143.75345215 53.90635498 -143.75345215 53.90635498 -145.03222656 54.51220703 C-181.21228343 71.76698983 -218.96356986 97.15817433 -244.7890625 128.29296875 C-246.97325801 130.87111733 -249.3048477 133.29356369 -251.625 135.75 C-283.58429176 170.29208377 -306.09446166 214.4023966 -320.33984375 258.91015625 C-320.71484009 260.08010132 -320.71484009 260.08010132 -321.09741211 261.27368164 C-321.71162986 263.50097221 -321.71162986 263.50097221 -320.5 266.3125 C-319.675 265.301875 -318.85 264.29125 -318 263.25 C-303.41018519 246.36364026 -282.47833169 234.95262946 -261.6796875 227.72265625 C-260.60013794 227.34306763 -260.60013794 227.34306763 -259.4987793 226.95581055 C-257.5 226.3125 -257.5 226.3125 -254.26171875 225.6484375 C-249.95213056 223.56374279 -248.59030242 220.01421848 -246.4375 215.875 C-234.80079997 194.72633489 -220.22249242 175.69487374 -203.5 158.3125 C-202.9519873 157.74257324 -202.40397461 157.17264648 -201.83935547 156.58544922 C-194.45205763 148.95073979 -186.91691932 141.81896422 -178.5 135.3125 C-177.23528809 134.30778113 -175.9709947 133.30253529 -174.70703125 132.296875 C-124.03879189 92.34864652 -55.58939119 67.32335035 9.5 72.3125 C26.55288856 74.52041132 41.6832406 83.65121437 52.3125 97 C63.30644265 112.46638885 66.82666302 130.19768186 63.96484375 148.7890625 C63.27767664 151.69544142 62.45907674 154.48509195 61.5 157.3125 C61.09974609 158.58287109 61.09974609 158.58287109 60.69140625 159.87890625 C57.46962134 169.0287754 51.52174202 176.7163181 44.5 183.3125 C44.17 183.9725 43.84 184.6325 43.5 185.3125 C44.17764404 185.52753174 44.85528809 185.74256348 45.5534668 185.96411133 C59.01382384 190.28899293 71.7692124 194.93733049 84.08666992 201.94458008 C84.89209229 202.39857178 85.69751465 202.85256348 86.52734375 203.3203125 C87.22593506 203.72910645 87.92452637 204.13790039 88.64428711 204.55908203 C90.67165898 205.61632116 90.67165898 205.61632116 93.5 204.3125 C112.51624498 178.76458827 118.24848852 147.35919143 113.81201172 116.31787109 C109.48082952 88.48036676 93.1085118 61.50621883 70.67626953 44.51733398 C49.0254746 28.73675599 24.90723081 20.86930511 -1.9375 21 C-3.18611816 21.00563965 -4.43473633 21.0112793 -5.72119141 21.01708984 C-38.66450304 21.43284325 -71.19548199 27.14036117 -102.5 37.3125 Z M91.5 34.3125 C94.58453763 38.01394515 97.65256259 41.47744969 101.1875 44.75 C114.96598027 58.42330103 124.95501793 77.51359065 129.67871094 96.18237305 C131.4094272 102.24394539 133.64589054 104.83794877 139.08740234 108.00415039 C139.88355957 108.43590576 140.6797168 108.86766113 141.5 109.3125 C142.92077397 110.16461088 144.33883201 111.0212694 145.75390625 111.8828125 C146.45507568 112.29805176 147.15624512 112.71329102 147.87866211 113.14111328 C157.59775119 118.91063402 166.62704596 125.32244047 175.5 132.3125 C176.48484375 133.08335937 177.4696875 133.85421875 178.484375 134.6484375 C193.84198128 146.94339975 208.41760133 160.77237423 220.5 176.3125 C220.98581543 176.92722168 221.47163086 177.54194336 221.97216797 178.17529297 C261.94661763 228.78006719 291.61062307 299.64279594 284.265625 365.41113281 C282.39419952 377.64311446 278.03970903 387.58435847 270.5 397.3125 C269.9534375 398.02535156 269.406875 398.73820312 268.84375 399.47265625 C259.69454576 410.67180011 245.74103597 418.11379903 231.5 420.3125 C212.42984997 421.94739674 194.77807868 419.23609512 179.46484375 406.859375 C177.083473 404.7292037 174.76405711 402.56633563 172.5 400.3125 C170.35636999 402.45613001 169.99500093 403.45651995 169.16015625 406.29296875 C168.9070166 407.11684082 168.65387695 407.94071289 168.39306641 408.78955078 C167.98193604 410.13122314 167.98193604 410.13122314 167.5625 411.5 C163.93490371 422.92702836 158.90672254 433.50843533 153.51220703 444.19384766 C152.39654903 446.41680284 152.39654903 446.41680284 151.5 449.3125 C172.81067352 463.31665689 194.27007749 471.72355498 220.0625 471.6875 C220.72163391 471.68695618 221.38076782 471.68641235 222.05987549 471.68585205 C233.04101814 471.64431094 243.0566372 470.69744788 253.5 467.3125 C254.5223877 466.99104004 254.5223877 466.99104004 255.56542969 466.66308594 C285.58528037 456.99424514 308.78357269 435.71853856 323.37182617 407.99291992 C332.05632386 390.60634064 334.90534021 372.57188452 334.8125 353.3125 C334.81067719 352.52659485 334.80885437 351.7406897 334.80697632 350.93096924 C334.62104708 302.96849335 323.18262046 255.54072926 302.5 212.3125 C302.11618164 211.49716797 301.73236328 210.68183594 301.33691406 209.84179688 C281.05370782 166.91098067 249.26153973 125.34272642 211.5 96.3125 C210.43546012 95.4284882 209.37449917 94.54015573 208.31640625 93.6484375 C192.15990201 80.14996801 174.11438545 69.0789511 155.5 59.3125 C154.86143066 58.97202637 154.22286133 58.63155273 153.56494141 58.28076172 C123.80987198 41.71880514 123.80987198 41.71880514 91.5 34.3125 Z M-33.45703125 107.75390625 C-41.54232032 117.87984189 -44.73918824 129.54886112 -43.5 142.3125 C-40.99846103 154.47907591 -35.25608566 164.52402825 -25.5 172.3125 C-14.05126647 179.53400884 -2.80098727 181.5185174 10.5 179.3125 C21.73953409 176.57695202 30.8907599 169.78245596 37.5 160.3125 C43.64531914 148.84972856 45.46265998 136.82298952 42.81640625 124 C38.85260799 112.42110383 31.4831263 102.70465011 20.625 97 C1.27896516 87.97666285 -18.74628658 92.31413352 -33.45703125 107.75390625 Z M-61 99.37890625 C-61.87712646 99.61343506 -62.75425293 99.84796387 -63.65795898 100.08959961 C-64.59583252 100.34878174 -65.53370605 100.60796387 -66.5 100.875 C-67.47461182 101.1438501 -68.44922363 101.4127002 -69.45336914 101.68969727 C-82.30131993 105.30399506 -94.9353476 109.56380262 -107.1875 114.875 C-108.98767578 115.65037109 -108.98767578 115.65037109 -110.82421875 116.44140625 C-113.68576582 118.05317596 -113.68576582 118.05317596 -114.375 120.83203125 C-114.41625 121.98058594 -114.4575 123.12914062 -114.5 124.3125 C-114.54036377 125.10760986 -114.58072754 125.90271973 -114.62231445 126.72192383 C-116.03598971 159.92097112 -106.69496332 189.42157549 -84.25 214.375 C-64.45916777 235.75721037 -36.58032624 250.00095017 -7.21142578 251.42333984 C-5.51504842 251.48358004 -3.81859089 251.54159399 -2.12207031 251.59765625 C25.67569351 252.52795609 50.56518529 260.45493822 71.5 279.3125 C72.27988281 280.00988281 73.05976563 280.70726562 73.86328125 281.42578125 C79.27119608 286.53481305 83.36730436 292.12876231 87.45703125 298.296875 C89.35003349 301.09113452 91.35466464 303.70917169 93.5 306.3125 C93.75579834 305.80501221 94.01159668 305.29752441 94.27514648 304.7746582 C102.17284836 289.19917264 111.07974536 275.54473659 122.5 262.3125 C120.89013192 258.43961736 118.27010006 255.6403018 115.4375 252.625 C114.94217773 252.09463135 114.44685547 251.5642627 113.93652344 251.01782227 C112.9295465 249.94398335 111.91996575 248.87257982 110.90771484 247.80371094 C109.69391191 246.51791344 108.49580152 245.21733505 107.30078125 243.9140625 C80.88118162 216.03509451 41.6366082 202.29744926 4 200.875 C-14.88757409 200.09206931 -32.7792242 195.05722131 -46.5 181.3125 C-60.30952268 165.85845014 -64.4229052 148.81929888 -63.64355469 128.63720703 C-62.99202532 118.08642019 -58.40864337 109.45012842 -53.5 100.3125 C-53.17 99.6525 -52.84 98.9925 -52.5 98.3125 C-55.80373491 98.3125 -57.89631474 98.54899374 -61 99.37890625 Z M-144.3125 135.6875 C-144.98466553 136.14012207 -145.65683105 136.59274414 -146.34936523 137.05908203 C-152.94409004 141.54464464 -159.30356391 146.29137832 -165.5 151.3125 C-166.04978516 151.75787109 -166.59957031 152.20324219 -167.16601562 152.66210938 C-180.86917045 163.86803414 -193.72220735 176.24406054 -204.5 190.3125 C-205.56064878 191.66839849 -206.62189436 193.02383026 -207.68359375 194.37890625 C-218.52630316 206.37672198 -218.52630316 206.37672198 -224.5 220.3125 C-223.69071045 220.37719482 -222.8814209 220.44188965 -222.04760742 220.50854492 C-194.42379029 222.79110021 -168.98192332 227.27084904 -145.57348633 243.1628418 C-142.15421848 245.45994391 -140.74725938 246.3125 -136.5 246.3125 C-134.33472215 244.18688998 -134.33472215 244.18688998 -132.3125 241.375 C-125.3064662 232.44574123 -117.49833283 225.20683851 -108.5 218.3125 C-108.90089844 217.71566406 -109.30179687 217.11882812 -109.71484375 216.50390625 C-124.99832262 193.18013918 -133.82049212 168.8289401 -135.0625 140.8125 C-135.10568359 139.8946875 -135.14886719 138.976875 -135.19335938 138.03125 C-135.29833456 135.79177939 -135.40049248 133.55221908 -135.5 131.3125 C-138.93566594 131.3125 -141.54206891 133.81392152 -144.3125 135.6875 Z M136.5 131.3125 C136.46261719 132.55902344 136.42523437 133.80554688 136.38671875 135.08984375 C135.35572336 163.7424519 128.15949581 189.17645103 112.5 213.3125 C111.49300469 214.97494946 110.49054251 216.64019521 109.5 218.3125 C110.42941406 219.09753906 111.35882813 219.88257813 112.31640625 220.69140625 C122.07560827 228.96786387 130.63691453 237.16197148 138.5 247.3125 C141.23009353 245.98618335 143.82856938 244.54560515 146.4140625 242.95703125 C157.08809383 236.50639759 167.64385109 231.21090609 179.5 227.3125 C180.69753906 226.91417969 181.89507813 226.51585937 183.12890625 226.10546875 C196.82040451 222.16196278 211.35747124 221.51130029 225.5 220.3125 C221.99520291 213.59169061 218.33437798 207.30274816 213.6875 201.3125 C213.16397949 200.62808838 212.64045898 199.94367676 212.10107422 199.23852539 C210.57710005 197.25540217 209.0410348 195.28238069 207.5 193.3125 C206.36884766 191.85650391 206.36884766 191.85650391 205.21484375 190.37109375 C188.05426109 168.84819475 167.85514701 150.8458467 145.0625 135.5 C144.11322632 134.85961792 144.11322632 134.85961792 143.14477539 134.20629883 C140.08215943 132.01415575 140.08215943 132.01415575 136.5 131.3125 Z M-100.9375 239.125 C-101.47173584 239.62418945 -102.00597168 240.12337891 -102.55639648 240.63769531 C-103.66776722 241.68133754 -104.77621223 242.72810338 -105.88183594 243.77783203 C-107.36310512 245.1826688 -108.85673158 246.57444623 -110.3515625 247.96484375 C-138.85758027 275.27968787 -153.47742167 313.83565707 -154.9375 352.8125 C-155.58295604 369.60334256 -159.07253044 383.85841321 -169.5 397.3125 C-170.31984375 398.38177734 -170.31984375 398.38177734 -171.15625 399.47265625 C-178.16882427 408.0564441 -187.26969996 413.33404999 -197.5 417.3125 C-198.67175781 417.79396484 -198.67175781 417.79396484 -199.8671875 418.28515625 C-213.55157379 422.98506528 -231.26617825 421.87576265 -244.5 416.3125 C-247.53790599 414.80275278 -250.47897067 413.22447611 -253.390625 411.484375 C-255.38921271 410.15061902 -255.38921271 410.15061902 -257.5 410.3125 C-254.7448352 427.01568661 -249.71194623 443.0313733 -243.3125 458.6875 C-242.89677734 459.72156982 -242.48105469 460.75563965 -242.05273438 461.82104492 C-241.64990234 462.77470947 -241.24707031 463.72837402 -240.83203125 464.7109375 C-240.47858643 465.55317871 -240.1251416 466.39541992 -239.76098633 467.26318359 C-238.21916727 469.76890076 -237.28654832 470.40288559 -234.5 471.3125 C-231.56783233 471.63606462 -231.56783233 471.63606462 -228.328125 471.61328125 C-227.11431152 471.62286865 -225.90049805 471.63245605 -224.64990234 471.64233398 C-190.56835649 471.49085096 -161.93368902 461.61782113 -137.3125 437.5625 C-114.9919169 414.97593542 -105.14002164 385.8876829 -104 354.625 C-103.04449688 328.57446712 -94.19803615 304.71525067 -76.5 285.3125 C-75.81550781 284.54679687 -75.13101563 283.78109375 -74.42578125 282.9921875 C-69.06954357 277.30922923 -63.03635843 272.8903244 -56.63671875 268.4765625 C-54.21215195 266.80382276 -51.83820833 265.10223971 -49.5 263.3125 C-50.01796143 263.04622803 -50.53592285 262.77995605 -51.06958008 262.50561523 C-81.34283852 246.89360414 -81.34283852 246.89360414 -92.1875 235.546875 C-95.58743039 232.34932142 -98.37147983 236.71172392 -100.9375 239.125 Z M-307.04248047 281.64794922 C-331.35691245 309.41608947 -336.30139592 343.88886404 -333.98217773 379.43896484 C-332.29339496 402.15850934 -328.35802448 424.309371 -322.5 446.3125 C-322.27086914 447.18036133 -322.04173828 448.04822266 -321.80566406 448.94238281 C-311.52972225 487.16769321 -293.05669654 523.60731287 -269.5 555.3125 C-269.07654297 555.88758301 -268.65308594 556.46266602 -268.21679688 557.05517578 C-263.33940751 563.65433769 -258.16960475 569.97402653 -252.8125 576.1875 C-252.28986572 576.79416504 -251.76723145 577.40083008 -251.22875977 578.02587891 C-247.99140741 581.73399858 -244.6204139 585.25313834 -241.09619141 588.68994141 C-239.48429436 590.32846508 -238.01842405 592.03498841 -236.5625 593.8125 C-233.88756096 596.98591849 -230.96334817 599.64017104 -227.80078125 602.3203125 C-225.14689942 604.61824074 -222.61532603 607.02785573 -220.0625 609.4375 C-202.2457929 625.96230923 -181.45790949 639.18414215 -160.5 651.3125 C-159.87367676 651.67939941 -159.24735352 652.04629883 -158.60205078 652.42431641 C-141.48842092 662.37049233 -122.6486895 669.81106574 -103.9375 676.125 C-102.92695557 676.46853516 -101.91641113 676.81207031 -100.87524414 677.16601562 C-99.94574951 677.46830078 -99.01625488 677.77058594 -98.05859375 678.08203125 C-97.24704834 678.34604736 -96.43550293 678.61006348 -95.59936523 678.88208008 C-93.3225369 679.53130297 -93.3225369 679.53130297 -90.5 678.3125 C-91.38300781 677.4875 -92.26601563 676.6625 -93.17578125 675.8125 C-110.03438002 659.72824942 -122.92266921 640.1914149 -128.67871094 617.44262695 C-130.4094272 611.38105461 -132.64589054 608.78705123 -138.08740234 605.62084961 C-138.88355957 605.18909424 -139.6797168 604.75733887 -140.5 604.3125 C-141.92077397 603.46038912 -143.33883201 602.6037306 -144.75390625 601.7421875 C-145.45507568 601.32694824 -146.15624512 600.91170898 -146.87866211 600.48388672 C-156.59718701 594.71470089 -165.62966041 588.30523071 -174.5 581.3125 C-175.49644531 580.53003906 -176.49289063 579.74757813 -177.51953125 578.94140625 C-192.8837058 566.61050221 -207.36005124 552.84231228 -219.5 537.3125 C-220.38007691 536.22149833 -221.26165767 535.1317085 -222.14453125 534.04296875 C-262.74348755 483.6822412 -287.38389998 415.39479617 -283.5 350.3125 C-282.0522781 337.34935683 -277.43129702 326.54588959 -269.5 316.3125 C-268.9534375 315.59964844 -268.406875 314.88679688 -267.84375 314.15234375 C-260.83117573 305.5685559 -251.73030004 300.29095001 -241.5 296.3125 C-240.71882813 295.99152344 -239.93765625 295.67054688 -239.1328125 295.33984375 C-223.79959252 290.073642 -205.60855064 292.36682463 -191.11328125 298.8203125 C-183.53390562 302.60559882 -177.48951922 307.3500215 -171.5 313.3125 C-169.34645285 311.15895285 -168.97478385 310.11443065 -168.125 307.26171875 C-167.86678467 306.42769531 -167.60856934 305.59367187 -167.3425293 304.734375 C-167.06449463 303.83203125 -166.78645996 302.9296875 -166.5 302 C-163.08714746 291.29330363 -158.49488858 281.39558429 -153.48974609 271.35546875 C-152.37293295 269.05021655 -151.39076712 266.71412627 -150.5 264.3125 C-201.88595964 230.54458367 -264.9647777 235.85008328 -307.04248047 281.64794922 Z M135.34765625 279.12109375 C114.95580296 301.4477891 106.08663389 329.20136328 105 359 C104.04449688 385.05053288 95.19803615 408.90974933 77.5 428.3125 C76.81550781 429.07820312 76.13101562 429.84390625 75.42578125 430.6328125 C70.06954357 436.31577077 64.03635843 440.7346756 57.63671875 445.1484375 C55.21215195 446.82117724 52.83820833 448.52276029 50.5 450.3125 C50.99701416 450.56306152 51.49402832 450.81362305 52.00610352 451.07177734 C67.50765114 458.93397689 81.97967864 467.11623402 94.5 479.3125 C99.26627588 477.11750453 102.68221846 473.86247631 106.5 470.3125 C107.42425781 469.45398438 108.34851563 468.59546875 109.30078125 467.7109375 C139.89207602 438.59144066 153.63716331 398.83530689 155.62304688 357.4453125 C156.76688971 337.28894687 163.48933009 320.94547828 178.5 307.3125 C194.3768965 294.96127536 211.93629078 291.86788422 231.5 293.3125 C240.69771041 294.58424192 248.62848426 298.57501368 256.5 303.3125 C257.16 303.6425 257.82 303.9725 258.5 304.3125 C256.43187216 292.92236311 253.26680388 281.97310153 249.625 271 C249.21459473 269.75009277 248.80418945 268.50018555 248.38134766 267.21240234 C244.34886348 254.85565852 244.34886348 254.85565852 238.5 243.3125 C205.74421753 228.11802069 157.26072598 256.07559386 135.34765625 279.12109375 Z M-62.75 300.6875 C-77.78576738 318.42356846 -85.11788123 340.05372233 -83.68457031 363.18261719 C-81.68897794 386.21111968 -70.47893267 407.52765091 -52.875 422.47265625 C-34.08528236 437.0285066 -11.24008984 443.81199293 12.41796875 440.81640625 C35.48436 436.58557594 55.16961398 425.10359015 68.9921875 406.109375 C81.63503835 387.63359449 86.71665891 365.0920563 83.21875 343 C80.10921396 327.04672813 74.21317402 313.60048842 63.5 301.3125 C63.03207031 300.70148438 62.56414062 300.09046875 62.08203125 299.4609375 C50.49257048 284.57476795 30.22951101 275.80931131 12.06640625 272.73046875 C-16.23793199 269.41331191 -43.37024163 279.81699098 -62.75 300.6875 Z M-251.5 326.3125 C-259.83166104 336.37992375 -263.86928346 347.18755036 -263.5 360.3125 C-262.43543273 369.12588861 -259.62730314 376.10798174 -254.5 383.3125 C-253.7575 384.364375 -253.015 385.41625 -252.25 386.5 C-243.19096336 395.76492383 -232.83723098 400.43671345 -219.875 400.75 C-207.89110324 400.38314602 -195.91824544 396.2456913 -187.5 387.3125 C-179.16833896 377.24507625 -175.13071654 366.43744964 -175.5 353.3125 C-176.56456727 344.49911139 -179.37269686 337.51701826 -184.5 330.3125 C-185.2425 329.260625 -185.985 328.20875 -186.75 327.125 C-195.80903664 317.86007617 -206.16276902 313.18828655 -219.125 312.875 C-231.10889676 313.24185398 -243.08175456 317.3793087 -251.5 326.3125 Z M188.5 326.3125 C180.16833896 336.37992375 176.13071654 347.18755036 176.5 360.3125 C177.56456727 369.12588861 180.37269686 376.10798174 185.5 383.3125 C186.2425 384.364375 186.985 385.41625 187.75 386.5 C196.80903664 395.76492383 207.16276902 400.43671345 220.125 400.75 C233.41829109 400.32992658 244.4703195 395.36505777 253.6796875 385.65234375 C262.16558886 374.74450059 264.393455 362.81359773 263.5 349.3125 C261.58788112 337.61483155 254.56661393 327.70011135 245.5 320.3125 C227.81274216 309.06943688 203.26873889 310.64035421 188.5 326.3125 Z M-93.5 407.3125 C-94.24443359 408.83617187 -94.24443359 408.83617187 -95.00390625 410.390625 C-108.95071146 438.75132018 -108.95071146 438.75132018 -119.83203125 448.375 C-121.71661719 450.13508817 -121.71661719 450.13508817 -121.48828125 452.28125 C-119.20009522 456.98424105 -115.07202128 460.56522804 -111.5 464.3125 C-110.82783447 465.03348877 -110.82783447 465.03348877 -110.14208984 465.76904297 C-82.2781729 495.5845183 -43.42941967 511.22199839 -3 512.75 C15.88757409 513.53293069 33.7792242 518.56777869 47.5 532.3125 C61.30952268 547.76654986 65.4229052 564.80570112 64.64355469 584.98779297 C63.99202532 595.53857981 59.40864337 604.17487158 54.5 613.3125 C54.17 613.9725 53.84 614.6325 53.5 615.3125 C59.66732822 614.70074657 65.36792036 613.4198281 71.3125 611.6875 C72.22249756 611.42388672 73.13249512 611.16027344 74.07006836 610.88867188 C87.42215679 606.94071601 101.555275 602.64737866 113.5 595.3125 C120.27452273 581.76345453 114.81577979 557.07834932 110.5 543.3125 C99.98166401 512.50880176 79.72306846 487.92403423 50.5 473.3125 C35.27983284 466.22838332 19.3897093 462.52773674 2.61401367 462.07348633 C-24.89631185 461.24034336 -49.84945434 452.91399927 -70.5 434.3125 C-71.27988281 433.61511719 -72.05976563 432.91773438 -72.86328125 432.19921875 C-79.86453585 425.58490741 -85.40076821 417.79917828 -90.1328125 409.421875 C-90.80957031 408.37773437 -90.80957031 408.37773437 -91.5 407.3125 C-92.16 407.3125 -92.82 407.3125 -93.5 407.3125 Z M320.5 448.3125 C319.3553125 449.7665625 319.3553125 449.7665625 318.1875 451.25 C304.00197757 467.77196141 282.94206034 478.85531285 262.6796875 485.90234375 C261.95998779 486.15540283 261.24028809 486.40846191 260.4987793 486.66918945 C258.5 487.3125 258.5 487.3125 255.26171875 487.9765625 C250.95213056 490.06125721 249.59030242 493.61078152 247.4375 497.75 C235.80079997 518.89866511 221.22249242 537.93012626 204.5 555.3125 C203.9519873 555.88242676 203.40397461 556.45235352 202.83935547 557.03955078 C195.45205763 564.67426021 187.91691932 571.80603578 179.5 578.3125 C178.23528809 579.31721887 176.9709947 580.32246471 175.70703125 581.328125 C125.04284435 621.2766175 56.63181912 646.30490178 -8.5 641.3125 C-25.55288856 639.10458868 -40.6832406 629.97378563 -51.3125 616.625 C-62.30644265 601.15861115 -65.82666302 583.42731814 -62.96484375 564.8359375 C-62.27767664 561.92955858 -61.45907674 559.13990805 -60.5 556.3125 C-60.23316406 555.46558594 -59.96632813 554.61867188 -59.69140625 553.74609375 C-56.46962134 544.5962246 -50.52174202 536.9086819 -43.5 530.3125 C-43.17 529.6525 -42.84 528.9925 -42.5 528.3125 C-43.18288086 528.09223145 -43.86576172 527.87196289 -44.56933594 527.64501953 C-57.63015471 523.38986166 -70.24048371 518.9467192 -82.35449219 512.41259766 C-83.11149414 512.00702637 -83.86849609 511.60145508 -84.6484375 511.18359375 C-85.29989746 510.82193115 -85.95135742 510.46026855 -86.62255859 510.08764648 C-88.77768337 509.05808252 -88.77768337 509.05808252 -92.5 509.3125 C-94.17990248 511.29981531 -95.47348372 513.10862915 -96.8125 515.3125 C-97.20276367 515.94260986 -97.59302734 516.57271973 -97.99511719 517.22192383 C-113.78438375 543.42243942 -118.89332923 574.88607201 -111.7578125 604.69921875 C-103.81351462 634.93413373 -85.36251769 660.35693148 -58.45849609 676.54052734 C-15.64665836 701.40061701 37.6407281 693.94069118 83.6640625 682.203125 C104.20719372 676.68516565 124.406999 669.7128806 143.5 660.3125 C144.86408823 659.66172161 146.22866247 659.01196085 147.59375 658.36328125 C164.08107532 650.42889446 179.66691622 641.00896471 194.5 630.3125 C195.55703125 629.55195312 196.6140625 628.79140625 197.703125 628.0078125 C212.84222437 616.8714593 226.7809314 604.20930992 240.0625 590.9375 C240.94357422 590.06867188 241.82464844 589.19984375 242.73242188 588.3046875 C248.76045913 582.28999645 254.21024236 575.98090444 259.5 569.3125 C260.42919007 568.17821098 261.35986274 567.04513232 262.29296875 565.9140625 C285.27872292 537.34123269 303.04813177 504.74154283 315.5 470.3125 C315.82291016 469.4261084 316.14582031 468.5397168 316.47851562 467.62646484 C317.37854938 465.13180607 318.25772137 462.63121419 319.125 460.125 C319.38522949 459.38846191 319.64545898 458.65192383 319.91357422 457.89306641 C321.53698446 453.10538355 321.53698446 453.10538355 320.5 448.3125 Z M-143.625 469.3125 C-167.72862627 486.45516523 -195.60218138 491.3775889 -224.5 493.3125 C-222.89046342 498.09485869 -220.23947182 501.90236847 -217.375 506 C-216.63141235 507.07000244 -216.63141235 507.07000244 -215.87280273 508.16162109 C-211.96692896 513.73710904 -207.88347224 519.102109 -203.5 524.3125 C-203.08202148 524.8192627 -202.66404297 525.32602539 -202.23339844 525.84814453 C-191.19410416 539.2270748 -179.27572981 551.72128955 -165.5 562.3125 C-164.1429856 563.3746889 -162.78623516 564.43721508 -161.4296875 565.5 C-149.43330746 576.34023582 -149.43330746 576.34023582 -135.5 582.3125 C-135.46261719 581.06597656 -135.42523438 579.81945312 -135.38671875 578.53515625 C-134.35572336 549.8825481 -127.15949581 524.44854897 -111.5 500.3125 C-110.49300469 498.65005054 -109.49054251 496.98480479 -108.5 495.3125 C-109.89412109 494.13494141 -109.89412109 494.13494141 -111.31640625 492.93359375 C-120.38865187 485.23972121 -128.58255487 477.76948563 -135.80078125 468.25390625 C-136.64189453 467.29291016 -136.64189453 467.29291016 -137.5 466.3125 C-140.32496577 466.3125 -141.38055459 467.60824314 -143.625 469.3125 Z M138.5 466.3125 C137.33984375 467.68921875 137.33984375 467.68921875 136.15625 469.09375 C127.92179359 478.81838979 119.7852611 487.69378808 109.5 495.3125 C109.9125 495.93253906 110.325 496.55257813 110.75 497.19140625 C126.02883556 520.62122775 134.81835661 544.74788838 136.0625 572.8125 C136.10568359 573.7303125 136.14886719 574.648125 136.19335938 575.59375 C136.29833456 577.83322061 136.40049248 580.07278092 136.5 582.3125 C150.35872476 577.29122291 163.53571274 565.24870743 174.23828125 555.390625 C176.29026416 553.50521065 178.38151954 551.68479967 180.5 549.875 C188.12759989 543.19893169 194.98250174 535.99639642 201.296875 528.0703125 C202.71704641 526.2925802 204.16340172 524.5353031 205.640625 522.8046875 C210.52101172 517.06408874 214.81475638 511.07389299 219 504.8125 C219.79337769 503.62708618 219.79337769 503.62708618 220.6027832 502.41772461 C223.47608027 498.08142236 223.47608027 498.08142236 225.5 493.3125 C224.69071045 493.24780518 223.8814209 493.18311035 223.04760742 493.11645508 C194.28061094 490.73943891 169.06693435 485.52229711 144.625 469.31640625 C141.64330413 467.22365649 141.64330413 467.22365649 138.5 466.3125 Z M-35.671875 551.7421875 C-42.38491286 561.18060397 -44.44747872 571.95610015 -43.5 583.3125 C-41.02529345 595.45977385 -35.25035465 605.55468014 -25.5 613.3125 C-13.6905021 620.578644 -2.09473356 623.12925413 11.5 620.1875 C21.4247892 617.45182093 31.06594592 611.6394515 36.50585938 602.65039062 C43.19221929 590.58390359 45.6400169 578.68241046 42.81640625 565 C38.70562062 552.99172993 30.79672337 543.50214983 19.625 537.4375 C-0.64335017 528.06102025 -21.70089987 535.51605497 -35.671875 551.7421875 Z " fill="#1F1F30" transform="translate(399.5,42.6875)"/>
</svg>
