<svg width="15" height="13" viewBox="0 0 15 13" fill="none"
    xmlns="http://www.w3.org/2000/svg">
    <path d="M14.3536 8.95743L13.659 3.16678C13.4721 1.60773 12.1469 0.431641 10.5764 0.431641H3.94205C2.37157 0.431641 1.04636 1.60773 0.859504 3.16678L0.165606 8.95743C0.0600241 9.83818 0.336858 10.724 0.925901 11.3874C1.51422 12.0514 2.36086 12.4316 3.24815 12.4316H11.2711C12.1576 12.4316 13.0043 12.0514 13.5933 11.3874C14.1816 10.7242 14.4592 9.83837 14.3536 8.95743ZM12.4508 10.3811C12.1355 10.7364 11.7005 10.9317 11.2263 10.9317H3.29314C2.8182 10.9317 2.383 10.7364 2.06861 10.3811C1.75332 10.0259 1.61145 9.57096 1.66769 9.09948L2.35379 3.37377C2.4523 2.55216 3.15109 1.93155 3.97924 1.93155H10.5394C11.3674 1.93155 12.0664 2.55198 12.1649 3.37377L12.8517 9.09948C12.9079 9.57096 12.7652 10.0259 12.4508 10.3811Z" fill="#004956"/>
    <path d="M11.2453 7.17962C11.1361 7.01218 10.9683 6.89735 10.7727 6.85617C10.5768 6.81499 10.3772 6.85254 10.2098 6.96157C8.21228 8.26428 6.26828 8.2641 4.26695 6.96139C4.09951 6.85236 3.89941 6.81481 3.70403 6.85635C3.50847 6.89771 3.34085 7.01273 3.23182 7.18017C3.12279 7.34761 3.08542 7.54753 3.12678 7.74309C3.16814 7.93865 3.28316 8.10627 3.4506 8.2153C4.70125 9.02948 5.97621 9.44219 7.2401 9.44219C8.50418 9.44219 9.77823 9.0293 11.0271 8.21494C11.1945 8.10573 11.3093 7.93792 11.3505 7.74236C11.3919 7.54698 11.3545 7.34707 11.2453 7.17962Z" fill="#004956"/>
</svg>
