<svg width="24" height="24" viewBox="0 0 24 24" fill="none" xmlns="http://www.w3.org/2000/svg">
<rect width="24" height="24" fill="#004892"/>
<g clip-path="url(#clip0_49_1054)">
<path d="M22 2H2V22H22V2Z" fill="#004892"/>
<path fill-rule="evenodd" clip-rule="evenodd" d="M11.5358 13.102V13.04L11.5998 13.024C11.7158 12.992 11.7018 12.884 11.7058 12.85V12.138L12.1378 12.376V12.85C12.1418 12.882 12.1258 12.994 12.2458 13.024L12.3058 13.04V13.102H11.5358ZM12.1378 10.412V11.694L11.7058 11.454V10.412C11.7018 10.38 11.7178 10.268 11.5978 10.238L11.5378 10.222V10.16H12.3078V10.222L12.2438 10.238C12.1258 10.27 12.1398 10.378 12.1378 10.412ZM11.6738 9.756C11.6738 9.62 11.7838 9.51 11.9198 9.51C12.0558 9.51 12.1658 9.62 12.1658 9.756C12.1658 9.892 12.0558 10.002 11.9198 10.002C11.7838 10.004 11.6738 9.892 11.6738 9.756ZM11.3598 13.37C11.2398 13.342 11.1898 13.37 11.1558 13.39C11.1098 13.426 11.0798 13.472 11.0798 13.472H11.0278V12.694H11.0898C11.0898 12.694 11.1038 12.746 11.1138 12.778C11.1698 12.944 11.3418 13.164 11.3418 13.164C11.7638 13.56 12.2318 13.414 12.2318 13.414C12.6218 13.274 12.6738 12.926 12.5758 12.702C12.4778 12.478 12.2238 12.354 12.2238 12.354C12.2238 12.354 11.7658 12.098 11.6338 12.026C11.5038 11.954 11.4298 11.92 11.3218 11.838C11.1138 11.682 10.9998 11.508 10.9998 11.234C10.9998 10.864 11.2638 10.558 11.6518 10.502V10.588C11.4318 10.626 11.2598 10.8 11.2598 11.01C11.2598 11.144 11.3178 11.252 11.4098 11.33C11.4098 11.33 11.4658 11.388 11.5858 11.464C11.7058 11.538 12.1798 11.796 12.1798 11.796C12.1798 11.796 12.4618 11.946 12.5498 12.016C12.5918 12.048 12.6438 12.098 12.6438 12.098C12.8118 12.248 12.9158 12.466 12.9158 12.71C12.9158 12.784 12.9058 12.854 12.8878 12.922C12.8878 12.922 12.7758 13.334 12.3558 13.476C12.3558 13.476 12.2238 13.53 12.0818 13.538C12.1738 13.592 12.2278 13.694 12.2198 13.798C12.2118 13.946 12.1038 14.11 11.9938 14.208C11.9798 14.22 11.9158 14.234 11.8998 14.22C11.8878 14.21 11.9278 14.182 11.9738 14.112C12.0198 14.042 12.0298 13.998 12.0318 13.976C12.0338 13.954 12.0358 13.936 12.0218 13.938C12.0078 13.94 11.9758 13.95 11.9458 13.956C11.9158 13.962 11.8738 13.962 11.8738 13.962C11.7578 13.952 11.6878 13.842 11.6878 13.74C11.6878 13.644 11.7478 13.564 11.8338 13.526C11.7338 13.51 11.6438 13.478 11.5378 13.432C11.5378 13.432 11.3998 13.384 11.3718 13.378L11.3598 13.37ZM12.6818 11.274H12.6158L12.6078 11.226C12.6018 11.19 12.5878 11.12 12.5798 11.092C12.5658 11.052 12.5258 10.95 12.4718 10.876C12.4158 10.802 12.3698 10.756 12.3398 10.734C12.3098 10.712 12.2718 10.68 12.1978 10.644V10.552L12.3598 10.614C12.3598 10.614 12.4358 10.646 12.4958 10.64C12.5478 10.634 12.5718 10.622 12.5978 10.588L12.6278 10.544H12.6838V10.58V11.274H12.6818ZM8.21785 12.496V11.36H7.95585V12.496H8.21785ZM7.94185 11.144C7.94185 11.064 8.00785 10.998 8.08785 10.998C8.16785 10.998 8.23385 11.064 8.23385 11.144C8.23385 11.224 8.16785 11.29 8.08785 11.29C8.00585 11.29 7.94185 11.224 7.94185 11.144ZM5.17985 11.994V11.36H4.91985V11.998C4.91985 12.18 4.81785 12.292 4.65185 12.292C4.48585 12.292 4.38585 12.176 4.38585 11.996V11.36H4.12385V11.998C4.12385 12.328 4.33585 12.514 4.65185 12.514C4.98185 12.514 5.17985 12.324 5.17985 11.994ZM4.30585 11.142C4.30585 11.062 4.37185 10.996 4.45185 10.996C4.53185 10.996 4.59785 11.062 4.59785 11.142C4.59785 11.222 4.53185 11.288 4.45185 11.288C4.37185 11.288 4.30585 11.222 4.30585 11.142ZM4.70785 11.142C4.70785 11.062 4.77385 10.996 4.85385 10.996C4.93385 10.996 4.99985 11.062 4.99985 11.142C4.99985 11.222 4.93385 11.288 4.85385 11.288C4.77385 11.288 4.70785 11.222 4.70785 11.142ZM10.6138 12.496V12.274H9.93985V12H10.3138V11.78H9.93985V11.584H10.5858V11.36H9.67985V12.496H10.6138ZM9.58385 11.36H9.28785L9.10385 11.63C9.05585 11.702 8.98585 11.81 8.96185 11.852C8.93785 11.81 8.86585 11.698 8.81985 11.63L8.63585 11.36H8.33585L8.82985 12.05V12.494H9.09185V12.044L9.58385 11.36ZM7.80785 12.496L7.32785 11.754L7.70985 11.362H7.39385L7.02785 11.75C6.99185 11.788 6.94385 11.84 6.92585 11.866C6.92785 11.83 6.92985 11.728 6.92985 11.686V11.36H6.66785V12.496H6.92985V12.162L7.13785 11.948L7.49185 12.496H7.80785ZM6.20185 11.726C6.20185 11.824 6.13585 11.874 6.01585 11.874H5.67385V11.582H6.01585C6.13185 11.582 6.20185 11.624 6.20185 11.726ZM6.46985 12.496L6.21985 12.054C6.38585 11.998 6.46985 11.89 6.46985 11.72C6.46985 11.478 6.26585 11.36 6.01985 11.36H5.41185V12.496H5.67385V12.088H5.93785L6.17185 12.496H6.46985ZM3.95585 11.584V11.36H2.94385V11.584H3.31985V12.496H3.57985V11.584H3.95585ZM18.8358 12.028H18.5378L18.6218 11.822C18.6478 11.756 18.6738 11.688 18.6878 11.646C18.7018 11.688 18.7278 11.756 18.7538 11.822L18.8358 12.028ZM18.1778 12.496H18.0658H17.8638L17.5098 11.948L17.2998 12.162V12.496H17.0398V11.36H17.2998V11.682C17.2998 11.724 17.2978 11.826 17.2958 11.862C17.3138 11.836 17.3638 11.784 17.3978 11.746L17.7638 11.358H18.0798L17.6978 11.75L18.1098 12.39L18.5638 11.358H18.8178L19.3138 12.494H19.0258L18.9238 12.24H18.4458L18.3438 12.494H18.1778V12.496ZM20.7898 12.496V11.36H20.5278V12.496H20.7898ZM20.3278 12.152C20.3278 11.906 20.0978 11.844 19.8918 11.802C19.6838 11.76 19.6278 11.738 19.6278 11.666C19.6278 11.616 19.6738 11.564 19.8138 11.564C19.9338 11.564 20.0258 11.606 20.1098 11.68L20.2978 11.522C20.1738 11.41 20.0258 11.344 19.8218 11.344C19.5638 11.344 19.3558 11.47 19.3558 11.676C19.3558 11.9 19.5238 11.966 19.7638 12.016C20.0098 12.064 20.0558 12.098 20.0558 12.17C20.0558 12.256 19.9838 12.294 19.8278 12.294C19.7018 12.294 19.5858 12.256 19.4938 12.164L19.3058 12.31C19.4038 12.436 19.5958 12.516 19.8138 12.516C20.1718 12.514 20.3278 12.368 20.3278 12.152ZM16.7878 12.496V11.36H16.5298V11.84C16.5298 11.904 16.5338 12.046 16.5338 12.088C16.5178 12.058 16.4738 12.002 16.4418 11.96L15.9798 11.36H15.7298V12.496H15.9878V11.996C15.9878 11.932 15.9838 11.79 15.9838 11.748C15.9998 11.778 16.0438 11.834 16.0758 11.876L16.5558 12.496H16.7878ZM15.1378 12.028H14.8398L14.9238 11.822C14.9498 11.756 14.9758 11.688 14.9898 11.646C15.0038 11.688 15.0298 11.756 15.0558 11.822L15.1378 12.028ZM15.6178 12.496L15.1218 11.36H14.8678L14.3678 12.496H14.6478L14.7498 12.242H15.2278L15.3298 12.496H15.6178ZM14.0558 12.132C14.0558 12.222 13.9958 12.28 13.8698 12.28H13.5218V11.986H13.8698C13.9978 11.986 14.0558 12.036 14.0558 12.132ZM14.0158 11.678C14.0158 11.742 13.9758 11.786 13.8678 11.786H13.5218V11.57H13.8538C13.9698 11.57 14.0158 11.608 14.0158 11.678ZM14.3258 12.13C14.3258 12.006 14.2478 11.922 14.1438 11.882C14.2298 11.836 14.2818 11.758 14.2818 11.662C14.2818 11.468 14.1218 11.362 13.8678 11.362H13.2698V12.498H13.8638C14.1398 12.496 14.3258 12.368 14.3258 12.13Z" fill="white"/>
<path fill-rule="evenodd" clip-rule="evenodd" d="M13.232 13.158L13.132 13.554C13.13 13.566 13.128 13.574 13.128 13.578C13.128 13.586 13.132 13.592 13.138 13.596C13.144 13.6 13.158 13.602 13.178 13.604L13.174 13.624C13.136 13.62 13.106 13.618 13.082 13.618C13.06 13.618 13.028 13.62 12.988 13.624L12.994 13.604C13.02 13.602 13.038 13.598 13.046 13.594C13.054 13.588 13.06 13.576 13.064 13.556L13.162 13.16H13.13C13.104 13.16 13.084 13.166 13.068 13.178C13.052 13.19 13.036 13.214 13.016 13.252H12.998L13.048 13.136H13.36L13.352 13.252H13.334C13.334 13.216 13.33 13.192 13.32 13.178C13.31 13.164 13.292 13.158 13.264 13.158H13.232ZM13.514 13.264L13.454 13.506C13.45 13.524 13.448 13.538 13.448 13.55C13.448 13.58 13.464 13.594 13.494 13.594C13.54 13.594 13.574 13.554 13.592 13.476L13.642 13.276C13.662 13.276 13.684 13.274 13.71 13.268L13.654 13.49C13.644 13.53 13.638 13.556 13.638 13.568C13.638 13.584 13.644 13.592 13.656 13.592C13.668 13.592 13.682 13.58 13.696 13.554L13.712 13.564C13.698 13.588 13.686 13.606 13.674 13.614C13.662 13.624 13.646 13.628 13.628 13.628C13.594 13.628 13.576 13.608 13.572 13.57C13.54 13.608 13.506 13.628 13.466 13.628C13.44 13.628 13.42 13.622 13.404 13.608C13.388 13.594 13.38 13.576 13.38 13.554C13.38 13.54 13.382 13.524 13.388 13.506L13.428 13.346C13.43 13.334 13.432 13.326 13.432 13.322C13.432 13.312 13.428 13.304 13.418 13.302C13.414 13.302 13.404 13.3 13.39 13.3L13.392 13.286C13.438 13.28 13.478 13.274 13.514 13.264ZM13.54 13.132C13.55 13.132 13.56 13.136 13.566 13.142C13.572 13.148 13.576 13.156 13.576 13.168C13.576 13.182 13.572 13.194 13.562 13.202C13.552 13.212 13.54 13.216 13.528 13.216C13.518 13.216 13.508 13.212 13.502 13.206C13.496 13.2 13.492 13.19 13.492 13.18C13.492 13.168 13.498 13.156 13.508 13.146C13.516 13.136 13.528 13.132 13.54 13.132ZM13.666 13.132C13.676 13.132 13.686 13.136 13.692 13.142C13.698 13.148 13.702 13.156 13.702 13.168C13.702 13.182 13.698 13.194 13.688 13.202C13.678 13.212 13.666 13.216 13.654 13.216C13.644 13.216 13.634 13.212 13.628 13.206C13.622 13.2 13.618 13.19 13.618 13.18C13.618 13.168 13.624 13.156 13.634 13.146C13.642 13.136 13.654 13.132 13.666 13.132ZM13.812 13.302L13.816 13.288C13.858 13.284 13.89 13.278 13.914 13.27C13.916 13.278 13.916 13.284 13.916 13.288C13.916 13.302 13.912 13.324 13.906 13.354C13.924 13.324 13.94 13.302 13.956 13.29C13.972 13.276 13.992 13.27 14.012 13.27C14.026 13.27 14.036 13.274 14.044 13.284C14.052 13.292 14.056 13.304 14.056 13.318C14.056 13.33 14.052 13.342 14.044 13.35C14.036 13.358 14.026 13.364 14.014 13.364C13.996 13.364 13.988 13.356 13.988 13.338C13.988 13.328 13.992 13.32 14.002 13.316C14 13.308 13.994 13.304 13.984 13.304C13.968 13.304 13.95 13.318 13.934 13.344C13.918 13.37 13.904 13.406 13.892 13.45L13.85 13.622H13.784L13.852 13.354C13.856 13.338 13.858 13.326 13.858 13.318C13.858 13.308 13.846 13.302 13.824 13.302H13.812ZM14.182 13.448L14.308 13.34C14.324 13.326 14.332 13.316 14.332 13.308C14.332 13.298 14.32 13.294 14.298 13.292L14.302 13.276C14.326 13.278 14.35 13.28 14.372 13.28C14.394 13.28 14.418 13.278 14.448 13.276L14.444 13.292C14.416 13.294 14.382 13.312 14.344 13.344L14.278 13.398L14.332 13.538C14.342 13.566 14.35 13.582 14.356 13.592C14.362 13.6 14.37 13.604 14.382 13.604C14.386 13.604 14.396 13.602 14.412 13.596L14.406 13.614C14.386 13.624 14.366 13.63 14.348 13.63C14.328 13.63 14.312 13.624 14.302 13.614C14.29 13.604 14.28 13.584 14.268 13.558L14.222 13.442L14.172 13.484L14.136 13.624H14.07L14.174 13.208C14.178 13.194 14.18 13.186 14.18 13.182C14.18 13.17 14.166 13.164 14.136 13.164L14.14 13.15C14.176 13.146 14.216 13.14 14.26 13.128L14.182 13.448ZM14.632 13.264L14.568 13.508C14.558 13.542 14.554 13.564 14.554 13.572C14.554 13.586 14.56 13.594 14.57 13.594C14.582 13.594 14.596 13.58 14.612 13.554L14.628 13.562C14.608 13.606 14.582 13.63 14.548 13.63C14.53 13.63 14.516 13.626 14.504 13.616C14.494 13.606 14.488 13.594 14.488 13.576C14.488 13.564 14.494 13.538 14.504 13.498L14.544 13.344C14.548 13.332 14.55 13.322 14.55 13.318C14.55 13.306 14.536 13.3 14.506 13.3L14.51 13.286C14.554 13.28 14.596 13.274 14.632 13.264ZM14.624 13.132C14.648 13.132 14.658 13.144 14.658 13.166C14.658 13.18 14.654 13.19 14.644 13.2C14.634 13.21 14.624 13.214 14.612 13.214C14.602 13.214 14.592 13.21 14.586 13.204C14.58 13.198 14.576 13.188 14.576 13.178C14.576 13.166 14.58 13.154 14.59 13.144C14.6 13.138 14.612 13.132 14.624 13.132ZM14.788 13.61L14.746 13.328C14.744 13.314 14.74 13.304 14.734 13.3C14.728 13.296 14.718 13.292 14.7 13.292L14.704 13.276C14.732 13.278 14.756 13.28 14.78 13.28C14.804 13.28 14.83 13.278 14.858 13.276L14.854 13.292C14.836 13.292 14.824 13.294 14.82 13.298C14.814 13.3 14.812 13.306 14.812 13.314L14.814 13.328L14.836 13.536L14.95 13.348C14.962 13.328 14.968 13.312 14.968 13.304C14.968 13.294 14.96 13.29 14.944 13.29H14.934L14.932 13.274C14.962 13.272 14.988 13.264 15.01 13.25C15.014 13.26 15.016 13.268 15.016 13.274C15.016 13.286 15.008 13.304 14.99 13.332L14.972 13.362L14.792 13.648C14.762 13.696 14.738 13.726 14.716 13.742C14.696 13.758 14.67 13.766 14.64 13.766H14.628V13.718C14.644 13.724 14.656 13.726 14.666 13.726C14.696 13.726 14.732 13.696 14.774 13.634L14.788 13.61ZM15.276 13.51H15.308C15.294 13.548 15.274 13.576 15.246 13.598C15.22 13.618 15.19 13.63 15.156 13.63C15.12 13.63 15.09 13.62 15.07 13.598C15.05 13.578 15.04 13.548 15.04 13.51C15.04 13.45 15.058 13.396 15.096 13.346C15.134 13.296 15.18 13.27 15.234 13.27C15.264 13.27 15.286 13.276 15.304 13.29C15.322 13.304 15.33 13.322 15.33 13.344C15.33 13.378 15.31 13.408 15.268 13.43C15.228 13.452 15.174 13.464 15.112 13.466C15.106 13.486 15.104 13.504 15.104 13.52C15.104 13.576 15.128 13.602 15.174 13.602C15.196 13.602 15.216 13.594 15.234 13.576C15.252 13.56 15.266 13.538 15.276 13.51ZM15.116 13.446C15.16 13.446 15.196 13.436 15.226 13.414C15.256 13.392 15.272 13.366 15.272 13.334C15.272 13.322 15.268 13.312 15.26 13.304C15.252 13.296 15.242 13.292 15.23 13.292C15.208 13.292 15.186 13.306 15.166 13.332C15.146 13.358 15.13 13.396 15.116 13.446ZM15.472 13.32H15.444C15.478 13.282 15.498 13.244 15.506 13.208C15.492 13.208 15.486 13.204 15.48 13.198C15.474 13.192 15.472 13.182 15.472 13.172C15.472 13.16 15.476 13.15 15.486 13.14C15.496 13.13 15.506 13.126 15.52 13.126C15.532 13.126 15.542 13.13 15.548 13.138C15.556 13.146 15.56 13.154 15.56 13.166C15.558 13.21 15.53 13.26 15.472 13.32ZM15.61 13.302L15.612 13.288C15.652 13.282 15.688 13.276 15.718 13.266V13.274C15.718 13.286 15.716 13.304 15.71 13.328C15.744 13.29 15.78 13.27 15.824 13.27C15.848 13.27 15.866 13.276 15.88 13.29C15.894 13.304 15.902 13.32 15.902 13.342C15.902 13.356 15.9 13.374 15.894 13.398L15.868 13.508C15.86 13.542 15.856 13.564 15.856 13.572C15.856 13.586 15.862 13.594 15.872 13.594C15.884 13.594 15.898 13.58 15.912 13.554L15.928 13.562C15.91 13.606 15.884 13.63 15.85 13.63C15.832 13.63 15.818 13.626 15.806 13.616C15.796 13.606 15.79 13.592 15.79 13.576C15.79 13.564 15.794 13.544 15.8 13.514L15.804 13.5L15.83 13.396C15.834 13.376 15.838 13.36 15.838 13.348C15.838 13.336 15.834 13.326 15.826 13.318C15.818 13.31 15.808 13.306 15.794 13.306C15.748 13.306 15.716 13.336 15.702 13.398L15.646 13.624H15.58L15.648 13.35C15.652 13.336 15.654 13.326 15.654 13.318C15.654 13.31 15.648 13.304 15.636 13.304L15.61 13.302ZM16.16 13.264L16.096 13.508C16.086 13.542 16.082 13.564 16.082 13.572C16.082 13.586 16.088 13.594 16.098 13.594C16.11 13.594 16.124 13.58 16.14 13.554L16.156 13.562C16.136 13.606 16.11 13.63 16.076 13.63C16.058 13.63 16.044 13.626 16.032 13.616C16.022 13.606 16.016 13.594 16.016 13.576C16.016 13.564 16.022 13.538 16.032 13.498L16.072 13.344C16.076 13.332 16.078 13.322 16.078 13.318C16.078 13.306 16.064 13.3 16.034 13.3L16.038 13.286C16.082 13.28 16.124 13.274 16.16 13.264ZM16.152 13.132C16.176 13.132 16.186 13.144 16.186 13.166C16.186 13.18 16.182 13.19 16.172 13.2C16.162 13.21 16.152 13.214 16.14 13.214C16.13 13.214 16.12 13.21 16.114 13.204C16.108 13.198 16.104 13.188 16.104 13.178C16.104 13.166 16.108 13.154 16.118 13.144C16.13 13.138 16.14 13.132 16.152 13.132ZM16.26 13.302L16.262 13.288C16.302 13.282 16.338 13.276 16.368 13.266V13.274C16.368 13.286 16.366 13.304 16.36 13.328C16.394 13.29 16.43 13.27 16.474 13.27C16.498 13.27 16.516 13.276 16.53 13.29C16.544 13.304 16.552 13.32 16.552 13.342C16.552 13.356 16.55 13.374 16.544 13.398L16.518 13.508C16.51 13.542 16.506 13.564 16.506 13.572C16.506 13.586 16.512 13.594 16.522 13.594C16.534 13.594 16.548 13.58 16.562 13.554L16.578 13.562C16.56 13.606 16.534 13.63 16.5 13.63C16.482 13.63 16.468 13.626 16.456 13.616C16.446 13.606 16.44 13.592 16.44 13.576C16.44 13.564 16.444 13.544 16.45 13.514L16.454 13.5L16.48 13.396C16.484 13.376 16.488 13.36 16.488 13.348C16.488 13.336 16.484 13.326 16.476 13.318C16.468 13.31 16.458 13.306 16.444 13.306C16.398 13.306 16.366 13.336 16.352 13.398L16.296 13.624H16.23L16.298 13.35C16.302 13.336 16.304 13.326 16.304 13.318C16.304 13.31 16.298 13.304 16.286 13.304L16.26 13.302ZM16.95 13.134H17.128C17.214 13.134 17.258 13.164 17.258 13.226C17.258 13.258 17.248 13.284 17.226 13.31C17.206 13.334 17.178 13.35 17.142 13.362C17.196 13.374 17.224 13.404 17.224 13.45C17.224 13.476 17.218 13.502 17.204 13.528C17.19 13.554 17.174 13.574 17.152 13.588C17.118 13.61 17.072 13.622 17.012 13.622H16.828L16.834 13.602C16.86 13.6 16.878 13.596 16.886 13.592C16.894 13.586 16.9 13.574 16.906 13.554L16.992 13.206C16.994 13.194 16.996 13.186 16.996 13.18C16.996 13.172 16.992 13.166 16.986 13.164C16.98 13.16 16.966 13.158 16.946 13.156L16.95 13.134ZM17.022 13.356H17.066C17.11 13.356 17.144 13.34 17.164 13.31C17.182 13.282 17.19 13.252 17.19 13.222C17.19 13.198 17.184 13.182 17.172 13.174C17.16 13.164 17.138 13.16 17.106 13.16H17.072L17.022 13.356ZM17.018 13.378L16.974 13.55C16.97 13.564 16.968 13.572 16.968 13.576C16.968 13.588 16.98 13.594 17.002 13.594H17.024C17.066 13.594 17.098 13.578 17.122 13.544C17.144 13.512 17.154 13.478 17.154 13.438C17.154 13.416 17.148 13.4 17.134 13.39C17.12 13.38 17.1 13.374 17.068 13.374H17.018V13.378ZM17.646 13.27L17.582 13.494C17.57 13.536 17.564 13.564 17.564 13.572C17.564 13.588 17.57 13.594 17.582 13.594C17.594 13.594 17.608 13.582 17.624 13.556L17.64 13.566C17.618 13.608 17.59 13.63 17.556 13.63C17.52 13.63 17.502 13.61 17.5 13.568C17.474 13.608 17.442 13.63 17.402 13.63C17.37 13.63 17.346 13.62 17.328 13.6C17.31 13.58 17.302 13.554 17.302 13.52C17.302 13.49 17.308 13.458 17.32 13.426C17.332 13.392 17.348 13.362 17.368 13.338C17.404 13.292 17.446 13.27 17.494 13.27C17.534 13.27 17.556 13.29 17.56 13.332L17.576 13.276C17.602 13.276 17.624 13.274 17.646 13.27ZM17.5 13.29C17.47 13.29 17.442 13.318 17.414 13.372C17.382 13.436 17.368 13.492 17.368 13.544C17.368 13.586 17.382 13.606 17.412 13.606C17.448 13.606 17.478 13.578 17.504 13.52C17.516 13.494 17.524 13.466 17.534 13.43C17.542 13.396 17.548 13.368 17.548 13.35C17.546 13.312 17.532 13.29 17.5 13.29ZM17.744 13.302L17.746 13.288C17.786 13.282 17.822 13.276 17.852 13.266V13.274C17.852 13.286 17.85 13.304 17.844 13.328C17.878 13.29 17.916 13.27 17.958 13.27C17.982 13.27 18 13.276 18.014 13.29C18.028 13.304 18.036 13.32 18.036 13.342C18.036 13.356 18.034 13.374 18.028 13.398L18.002 13.508C17.994 13.542 17.99 13.564 17.99 13.572C17.99 13.586 17.996 13.594 18.006 13.594C18.018 13.594 18.032 13.58 18.046 13.554L18.062 13.562C18.044 13.606 18.018 13.63 17.984 13.63C17.966 13.63 17.952 13.626 17.94 13.616C17.93 13.606 17.924 13.592 17.924 13.576C17.924 13.564 17.928 13.544 17.934 13.514L17.938 13.5L17.964 13.396C17.968 13.376 17.972 13.36 17.972 13.348C17.972 13.336 17.968 13.326 17.96 13.318C17.952 13.31 17.942 13.306 17.928 13.306C17.882 13.306 17.85 13.336 17.836 13.398L17.78 13.624H17.714L17.782 13.35C17.786 13.336 17.788 13.326 17.788 13.318C17.788 13.31 17.782 13.304 17.77 13.304L17.744 13.302ZM18.246 13.448L18.372 13.34C18.388 13.326 18.396 13.316 18.396 13.308C18.396 13.298 18.384 13.294 18.362 13.292L18.366 13.276C18.39 13.278 18.414 13.28 18.436 13.28C18.458 13.28 18.482 13.278 18.512 13.276L18.508 13.292C18.48 13.294 18.446 13.312 18.408 13.344L18.342 13.398L18.396 13.538C18.406 13.566 18.414 13.582 18.42 13.592C18.426 13.6 18.434 13.604 18.446 13.604C18.45 13.604 18.46 13.602 18.476 13.596L18.47 13.614C18.45 13.624 18.43 13.63 18.412 13.63C18.392 13.63 18.376 13.624 18.366 13.614C18.354 13.604 18.344 13.584 18.332 13.558L18.286 13.442L18.236 13.484L18.2 13.624H18.134L18.238 13.208C18.242 13.194 18.244 13.186 18.244 13.182C18.244 13.17 18.23 13.164 18.2 13.164L18.204 13.15C18.24 13.146 18.28 13.14 18.324 13.128L18.246 13.448ZM18.876 13.27L18.812 13.494C18.8 13.536 18.794 13.564 18.794 13.572C18.794 13.588 18.8 13.594 18.812 13.594C18.824 13.594 18.838 13.582 18.854 13.556L18.87 13.566C18.848 13.608 18.82 13.63 18.786 13.63C18.75 13.63 18.732 13.61 18.73 13.568C18.704 13.608 18.672 13.63 18.632 13.63C18.6 13.63 18.576 13.62 18.558 13.6C18.54 13.58 18.532 13.554 18.532 13.52C18.532 13.49 18.538 13.458 18.55 13.426C18.562 13.392 18.578 13.362 18.598 13.338C18.634 13.292 18.676 13.27 18.724 13.27C18.764 13.27 18.786 13.29 18.79 13.332L18.806 13.276C18.832 13.276 18.854 13.274 18.876 13.27ZM18.73 13.29C18.7 13.29 18.672 13.318 18.644 13.372C18.612 13.436 18.598 13.492 18.598 13.544C18.598 13.586 18.612 13.606 18.642 13.606C18.678 13.606 18.708 13.578 18.734 13.52C18.746 13.494 18.754 13.466 18.764 13.43C18.772 13.396 18.778 13.368 18.778 13.35C18.776 13.312 18.76 13.29 18.73 13.29ZM19.204 13.274L19.184 13.372H19.166V13.364C19.166 13.338 19.16 13.32 19.15 13.308C19.14 13.296 19.124 13.29 19.104 13.29C19.086 13.29 19.068 13.296 19.056 13.306C19.042 13.318 19.036 13.33 19.036 13.346C19.036 13.358 19.04 13.368 19.046 13.374C19.054 13.382 19.072 13.394 19.106 13.414C19.134 13.432 19.154 13.448 19.164 13.46C19.174 13.474 19.18 13.488 19.18 13.508C19.18 13.542 19.166 13.57 19.14 13.592C19.114 13.614 19.08 13.626 19.042 13.626C18.998 13.626 18.96 13.61 18.928 13.576L18.944 13.5H18.962V13.516C18.962 13.544 18.968 13.564 18.982 13.58C18.996 13.596 19.016 13.602 19.04 13.602C19.062 13.602 19.08 13.594 19.096 13.58C19.112 13.564 19.12 13.548 19.12 13.526C19.12 13.512 19.116 13.5 19.108 13.492C19.1 13.484 19.08 13.468 19.044 13.446C19.018 13.43 19.002 13.416 18.992 13.404C18.982 13.392 18.978 13.378 18.978 13.364C18.978 13.334 18.99 13.31 19.012 13.292C19.036 13.272 19.064 13.262 19.098 13.262C19.114 13.262 19.132 13.266 19.154 13.272C19.162 13.274 19.17 13.276 19.176 13.276C19.184 13.284 19.194 13.28 19.204 13.274ZM19.424 13.264L19.36 13.508C19.35 13.544 19.346 13.566 19.346 13.572C19.346 13.586 19.352 13.594 19.362 13.594C19.374 13.594 19.388 13.58 19.404 13.554L19.42 13.562C19.4 13.606 19.374 13.63 19.34 13.63C19.322 13.63 19.308 13.626 19.296 13.616C19.286 13.606 19.28 13.592 19.28 13.576C19.28 13.564 19.284 13.54 19.294 13.504L19.336 13.344C19.34 13.33 19.342 13.322 19.342 13.318C19.342 13.306 19.328 13.3 19.298 13.3L19.302 13.286C19.346 13.28 19.386 13.274 19.424 13.264Z" fill="white"/>
<path d="M10.8698 12.796H4.03784" stroke="white" stroke-width="0.14954" stroke-miterlimit="3.8636"/>
<path d="M19.9623 12.796H13.1143" stroke="white" stroke-width="0.14954" stroke-miterlimit="3.8636"/>
</g>
<defs>
<clipPath id="clip0_49_1054">
<rect width="20" height="20" fill="white" transform="translate(2 2)"/>
</clipPath>
</defs>
</svg>
