<svg width="24" height="24" viewBox="0 0 24 24" fill="none" xmlns="http://www.w3.org/2000/svg">
<g clip-path="url(#clip0_49_1108)">
<rect width="24" height="24" fill="white"/>
<path fill-rule="evenodd" clip-rule="evenodd" d="M2 2H22V22H2V2Z" fill="white"/>
<path fill-rule="evenodd" clip-rule="evenodd" d="M3.95692 10.6721C4.40547 10.4323 4.73801 10.3163 4.97012 10.3241L4.88504 10.2854C4.73034 10.2003 4.54471 10.1849 4.35141 10.2236C4.18903 10.2623 3.9647 10.3396 3.694 10.4787L2.6035 11.0742C2.53388 11.1129 2.51074 11.1516 2.51074 11.1902L2.5262 11.283L2.6422 11.3836L3.95692 10.6721Z" fill="#AAACAE"/>
<path fill-rule="evenodd" clip-rule="evenodd" d="M2.29419 11.8477C2.29419 12.0564 2.35613 12.1957 2.47213 12.2575L3.24555 12.6829L3.70955 12.6598C3.9261 12.6211 4.15042 12.5437 4.36686 12.4278L2.58814 11.461C2.51084 11.4223 2.45667 11.3681 2.43343 11.3295C2.41019 11.2677 2.41019 11.2135 2.43343 11.1671C2.34057 11.2445 2.29419 11.3682 2.29419 11.5616V11.8477Z" fill="#AAACAE"/>
<path fill-rule="evenodd" clip-rule="evenodd" d="M3.12913 11.6543L4.44395 10.9428C4.86925 10.7108 5.2405 10.6103 5.54213 10.6335L5.21726 10.4711C4.92342 10.4402 4.58309 10.533 4.18871 10.7496L2.81982 11.4841L3.12913 11.6543ZM4.98526 12.7369C4.53671 12.9846 4.19638 13.1005 3.97984 13.085L4.05724 13.1237C4.22741 13.2166 4.40525 13.2242 4.59865 13.1855C4.76871 13.1468 5.00072 13.0618 5.27142 12.9148L6.36192 12.3348C6.41598 12.2961 6.43922 12.2574 6.45468 12.211L6.43922 12.1338L6.32322 12.0254L4.98526 12.7369Z" fill="#AAACAE"/>
<path fill-rule="evenodd" clip-rule="evenodd" d="M4.58325 10.9815L6.36208 11.9482C6.4316 11.979 6.47808 12.0177 6.51678 12.0798C6.55549 12.1416 6.55549 12.1957 6.53224 12.2499C6.62511 12.1727 6.66371 12.0411 6.66371 11.8478V11.5616C6.66371 11.3451 6.60965 11.2136 6.49354 11.1517L5.72013 10.7264L5.24056 10.7496C5.03958 10.7881 4.81526 10.8654 4.58325 10.9815Z" fill="#AAACAE"/>
<path fill-rule="evenodd" clip-rule="evenodd" d="M3.73237 12.9459C4.01853 12.969 4.36654 12.8685 4.7687 12.6441L6.12991 11.925L5.8206 11.7548L4.4981 12.4664C4.07269 12.6828 3.70923 12.7913 3.41528 12.7756L3.73237 12.9459Z" fill="#AAACAE"/>
<path fill-rule="evenodd" clip-rule="evenodd" d="M7.79264 11.0356L7.75394 11.0588H7.70756L7.6921 11.0974L7.7308 11.2676L7.96281 12.0254L8.32627 11.0897C8.33405 11.051 8.34951 11.0201 8.36497 11.0201L8.41135 11.113L8.79038 12.0177H8.79806L9.03006 11.2135L9.04552 11.113C9.04552 11.0743 9.02228 11.0589 8.96812 11.0589L8.92942 11.0357L8.98348 11.0202H9.30056L9.33926 11.0357L9.33148 11.0589H9.25408C9.23862 11.0743 9.20002 11.1362 9.16121 11.2522L8.79806 12.3271L8.73622 12.4122C8.72076 12.4122 8.71298 12.3889 8.68206 12.3271L8.31081 11.4223C8.17157 11.8244 8.04011 12.1183 7.94735 12.3116L7.90097 12.4123C7.88551 12.4123 7.86227 12.389 7.84691 12.3349L7.47566 11.2058C7.44474 11.1362 7.4216 11.0898 7.40614 11.0743L7.32874 11.0589L7.29004 11.0357L7.3441 11.0202H7.75405L7.79264 11.0356ZM9.85753 11.167V12.2574C9.87299 12.3115 9.89623 12.3348 9.93494 12.3348L10.0277 12.3502L10.0509 12.3657L10.0277 12.3889H9.50953C9.49407 12.3889 9.48629 12.3735 9.48629 12.3657L9.50953 12.3502L9.57137 12.3348C9.60239 12.3348 9.61007 12.3115 9.62553 12.2574L9.64099 11.167C9.62553 11.0974 9.60229 11.0742 9.56359 11.0588H9.50953C9.48629 11.0588 9.47083 11.051 9.47083 11.0356L9.50953 11.0201H9.97354L10.0122 11.0356L9.989 11.0588H9.91937C9.88078 11.0743 9.85753 11.0974 9.85753 11.167ZM10.3602 11.0201H10.8475L10.8862 11.0356C10.8862 11.051 10.8785 11.0588 10.8475 11.0588H10.7857C10.7469 11.0742 10.7316 11.0974 10.7238 11.167V11.863C10.7238 12.1028 10.7316 12.2343 10.7471 12.2497C10.7858 12.2731 10.8631 12.2884 10.9636 12.2884C11.0796 12.2884 11.1492 12.2731 11.1878 12.2344L11.2498 12.1028L11.2652 12.1338L11.2342 12.3349C11.2265 12.3736 11.1878 12.389 11.1182 12.389H10.3757L10.337 12.3658L10.3602 12.3503L10.4221 12.3349C10.4608 12.3349 10.4762 12.3116 10.4762 12.2498L10.4917 11.1671C10.4762 11.0975 10.453 11.0743 10.4144 11.0589H10.3448C10.337 11.0589 10.3215 11.0511 10.3215 11.0357L10.3602 11.0201ZM11.7524 11.4841L11.6518 12.2884C11.6518 12.3116 11.6595 12.3271 11.6982 12.3348L11.7755 12.3502L11.8064 12.3657C11.8064 12.3734 11.791 12.3889 11.7523 12.3889H11.3889L11.3502 12.3657L11.3889 12.3502L11.443 12.3348C11.4817 12.3348 11.5048 12.2961 11.5204 12.211L11.6982 11.0201C11.6982 10.9969 11.7137 10.9814 11.7291 10.9814L11.7755 11.0356L12.2704 12.0563L12.7578 11.02L12.7963 10.9813L12.835 11.0355L12.9896 12.1568C13.0051 12.2573 13.0438 12.327 13.0824 12.3347L13.1985 12.3501L13.2217 12.3656C13.2217 12.3733 13.2063 12.3888 13.183 12.3888L12.8119 12.3734C12.7809 12.3734 12.7732 12.3657 12.7579 12.3501L12.781 12.3347V12.2573L12.6805 11.4608H12.6651L12.2782 12.2883L12.2164 12.3734L12.1545 12.2883L11.7524 11.4841ZM13.9024 11.0588H13.8561C13.8174 11.0742 13.7863 11.0974 13.7787 11.167L13.7863 12.2574C13.8017 12.3115 13.8174 12.3348 13.8561 12.3348L13.9409 12.3502L13.9796 12.3657C13.9796 12.3734 13.972 12.3889 13.9409 12.3889H13.4383C13.415 12.3889 13.3996 12.3735 13.3996 12.3657L13.4307 12.3502L13.4925 12.3348C13.5156 12.3348 13.5312 12.3115 13.5465 12.2574V11.167C13.5465 11.0974 13.5312 11.0742 13.4925 11.0588H13.4151L13.3997 11.0356L13.4384 11.0201H13.8946L13.9333 11.0356L13.9024 11.0588ZM14.4978 11.3836L14.5132 12.1338C14.521 12.2574 14.5365 12.3271 14.5752 12.3349L14.6757 12.3503L14.6911 12.3658L14.668 12.389H14.2426L14.2039 12.3658L14.227 12.3503L14.3199 12.3349C14.3586 12.3273 14.3662 12.2575 14.3662 12.1183L14.3818 11.0511C14.3818 11.0124 14.3972 10.9815 14.4049 10.9815L14.4747 11.0511L15.4259 12.0255H15.4413L15.4259 11.2291C15.4104 11.1362 15.4026 11.0898 15.3639 11.0744L15.2557 11.059C15.248 11.059 15.2325 11.0512 15.2325 11.0358L15.2866 11.0203H15.6733L15.7197 11.0358L15.681 11.059H15.6346C15.5959 11.0744 15.5651 11.1285 15.5651 11.2137L15.5417 12.3505L15.5186 12.4046L15.4645 12.3661L14.4978 11.3836ZM16.1375 11.6388C16.1375 11.8321 16.1839 12.0023 16.2998 12.1183C16.4157 12.2498 16.5705 12.3116 16.7639 12.3116L16.9108 12.2962C16.9339 12.2885 16.9495 12.2731 16.9495 12.2344V11.8477C16.9495 11.7936 16.9185 11.7548 16.8721 11.7471H16.8026C16.7792 11.7471 16.7639 11.7317 16.7639 11.7162L16.8179 11.7085H17.282L17.3205 11.7162L17.2974 11.7471H17.2587C17.2046 11.7549 17.1815 11.7858 17.1815 11.8477V12.2575C17.1815 12.2962 17.1659 12.3116 17.1505 12.3273C17.0499 12.3891 16.9107 12.4123 16.7174 12.4123C16.4699 12.4123 16.2764 12.366 16.1374 12.2498C15.9671 12.1183 15.8897 11.9405 15.8897 11.7085C15.8897 11.4378 15.9903 11.2445 16.1991 11.1131C16.3307 11.0358 16.493 10.9971 16.6863 10.9971L16.9957 11.0203L17.1426 11.0512L17.1657 11.0744V11.3605L17.1426 11.3992L17.1272 11.3838C17.1117 11.3219 17.1039 11.2678 17.0652 11.2292C16.9723 11.1363 16.8332 11.0899 16.6476 11.0899C16.5083 11.0899 16.3924 11.1286 16.2996 11.2059C16.1839 11.2908 16.1375 11.4377 16.1375 11.6388ZM18.3262 11.1284H18.0942L18.1095 12.2498C18.1172 12.3117 18.1482 12.3349 18.1869 12.3349L18.272 12.3503L18.3028 12.3658L18.272 12.389H17.7615C17.7305 12.389 17.7228 12.3736 17.7228 12.3658L17.7462 12.3503L17.808 12.3349C17.8467 12.3349 17.8621 12.3116 17.8621 12.2498L17.8774 11.1284H17.6067C17.5141 11.1362 17.4521 11.1517 17.4366 11.1748L17.3979 11.2444L17.3826 11.2677L17.3592 11.2444L17.3979 11.0357L17.4213 10.997L17.4985 11.0202H18.5195L18.5735 11.0125L18.5812 11.0512V11.2523L18.5581 11.2832L18.5425 11.2523V11.2291C18.5348 11.167 18.4653 11.1284 18.3262 11.1284ZM18.8056 12.1725C18.9292 12.3348 19.1148 12.4123 19.3546 12.4123C19.5789 12.4123 19.7569 12.3349 19.8961 12.1957C20.0431 12.0564 20.1049 11.8864 20.1049 11.6697C20.1049 11.461 20.0431 11.2908 19.8961 11.1748C19.78 11.0588 19.6021 10.997 19.3703 10.997C19.1226 10.997 18.9449 11.0743 18.8057 11.229C18.6896 11.3681 18.6355 11.5228 18.6355 11.7084C18.6354 11.8863 18.6895 12.041 18.8056 12.1725ZM18.8828 11.6388C18.8828 11.2676 19.0221 11.0897 19.3159 11.0897C19.4707 11.0897 19.6021 11.1361 19.6948 11.2521C19.7956 11.3681 19.8496 11.5383 19.8496 11.747C19.8496 12.1338 19.7027 12.3271 19.432 12.3271C19.2695 12.3271 19.1226 12.2574 19.0221 12.1338C18.9292 12.0023 18.8828 11.8321 18.8828 11.6388ZM20.4684 11.3836L20.4915 12.1338C20.5071 12.2574 20.5148 12.3271 20.5535 12.3349L20.6618 12.3503L20.6849 12.3658C20.6849 12.3735 20.6695 12.389 20.6462 12.389H20.221C20.1977 12.389 20.1823 12.3736 20.1823 12.3658L20.2054 12.3503L20.2983 12.3349C20.337 12.3273 20.3524 12.2575 20.3524 12.1183L20.36 11.0511C20.36 11.0124 20.3756 10.9815 20.3911 10.9815L20.4529 11.0511L21.4197 12.0255L21.4042 11.2291C21.4042 11.1362 21.381 11.0898 21.3423 11.0744L21.2418 11.059L21.2107 11.0358L21.2648 11.0203H21.6671L21.7058 11.0358L21.6671 11.059H21.613C21.5743 11.0744 21.5512 11.1285 21.5512 11.2137L21.5356 12.3505C21.5356 12.3892 21.5203 12.4046 21.4969 12.4046C21.4816 12.4046 21.4738 12.3892 21.4429 12.3661L20.4762 11.3838H20.4684V11.3836ZM7.47556 12.7757L7.52194 12.7913H8.17157L8.29535 12.7757L8.31081 12.799V12.9536L8.29535 12.9847L8.28757 12.9536L8.27211 12.946C8.27211 12.8919 8.21795 12.8686 8.11741 12.8686L7.96281 12.8532V13.6807C7.97827 13.7194 7.98605 13.7425 8.01686 13.7581H8.0787L8.10195 13.7658L8.0787 13.7811H7.70756L7.67664 13.7658L7.70756 13.7581H7.75394L7.79264 13.6807V12.8531L7.59924 12.8685C7.52194 12.8685 7.48324 12.8761 7.47556 12.9072L7.44464 12.9459L7.43696 12.9535L7.4215 12.9459L7.44474 12.7913L7.47556 12.7757ZM8.51957 12.8144C8.55827 12.8298 8.58152 12.8531 8.58152 12.8918V13.6806L8.54281 13.758H8.48876L8.46551 13.7656L8.50422 13.781H8.85222L8.87546 13.7656L8.86779 13.758H8.79806C8.76986 13.7393 8.74823 13.7122 8.73622 13.6806V13.379L8.75168 13.3714H8.86768L8.89092 13.379L9.02238 13.5647C9.09979 13.6652 9.16163 13.7269 9.20033 13.758L9.33957 13.7811H9.45557L9.48649 13.7658L9.47103 13.7581H9.43233C9.37049 13.7425 9.33179 13.704 9.29319 13.6652L9.00703 13.3172C9.12303 13.2243 9.17719 13.1239 9.17719 13.0232C9.17719 12.946 9.14627 12.8762 9.08433 12.8375C9.02238 12.799 8.94508 12.7914 8.83686 12.7914H8.45016L8.48118 12.8145L8.51957 12.8144ZM8.82898 12.8531C8.95266 12.8531 9.02228 12.9305 9.02228 13.0851C9.02228 13.1856 8.99136 13.2552 8.94498 13.2784L8.85212 13.3015L8.75158 13.2939L8.73612 13.263V12.8685L8.75158 12.8531H8.82898ZM9.44769 12.7913H9.81894L9.80348 12.8144H9.76477C9.72607 12.8298 9.71839 12.8531 9.71839 12.8918V13.3402C9.71839 13.5105 9.7571 13.6109 9.81894 13.6651C9.85764 13.7038 9.9118 13.7269 9.97364 13.7269C10.0509 13.7269 10.1128 13.7038 10.1669 13.6498C10.2056 13.6034 10.2288 13.4949 10.2288 13.3326V12.8918C10.2288 12.8531 10.2211 12.8298 10.1824 12.8144H10.1282L10.1128 12.7913H10.4608L10.4375 12.8144H10.3988C10.3756 12.8298 10.3601 12.8531 10.3601 12.8918L10.3447 13.3015C10.3447 13.4948 10.306 13.6264 10.221 13.7038C10.1514 13.7657 10.0663 13.7967 9.95029 13.7967C9.83429 13.7967 9.72597 13.7657 9.66413 13.7038C9.58672 13.6418 9.54802 13.5259 9.54802 13.3557V12.8918C9.53267 12.8531 9.52489 12.8298 9.48618 12.8144H9.43202L9.40878 12.7913H9.44769ZM10.8088 12.9535C10.8088 13.0231 10.8629 13.0851 10.9558 13.1468L10.9945 13.1779C11.1337 13.2938 11.1956 13.3943 11.1956 13.5104C11.1956 13.6033 11.1569 13.6805 11.0796 13.7422C11.0178 13.7809 10.9559 13.7965 10.8785 13.7965L10.6852 13.7578C10.6698 13.7578 10.6543 13.7422 10.6543 13.7191V13.549L10.6852 13.5103V13.5257L10.693 13.6031C10.7239 13.6879 10.7858 13.7266 10.8863 13.7266C11.0024 13.7266 11.0565 13.6803 11.0565 13.572C11.0565 13.5102 11.0178 13.4328 10.9249 13.371L10.8785 13.3169C10.7471 13.224 10.6852 13.1236 10.6852 13.0075C10.6852 12.9456 10.7085 12.8759 10.7703 12.8372C10.8244 12.7987 10.9018 12.7754 10.9946 12.7754L11.157 12.7909L11.1725 12.7986V12.9532L11.1492 13.0073V12.9841L11.1105 12.8913C11.0796 12.8526 11.0332 12.8292 10.9636 12.8292C10.8629 12.8298 10.8088 12.8685 10.8088 12.9535ZM11.443 12.7913H12.1932L12.2317 12.7757V12.9536L12.2164 12.9847L12.201 12.9536V12.946C12.201 12.8919 12.1546 12.8686 12.0463 12.8686L11.8838 12.8531L11.8915 13.6806C11.8915 13.7193 11.907 13.7424 11.9456 13.758H12.0075L12.023 13.7656L12.0075 13.781H11.6363L11.6131 13.7656L11.6209 13.758H11.675C11.6904 13.7424 11.6982 13.7193 11.7137 13.6806V12.8531L11.5204 12.8685C11.4585 12.8685 11.4044 12.8761 11.3889 12.9072L11.3657 12.9459L11.3502 12.9535V12.9459L11.3657 12.7913L11.3889 12.7757L11.443 12.7913Z" fill="black"/>
</g>
<defs>
<clipPath id="clip0_49_1108">
<rect width="24" height="24" fill="white"/>
</clipPath>
</defs>
</svg>
