<svg width="11" height="13" viewBox="0 0 11 13" fill="none"
    xmlns="http://www.w3.org/2000/svg">
    <g clip-path="url(#clip0_2903_41389)">
        <path d="M0.388672 7.76323H4.84505V6.49465C4.84505 5.86483 4.59399 5.3841 4.09187 5.0524C3.58974 4.72071 2.94949 4.55485 2.17113 4.55485C1.80903 4.55743 1.44782 4.59079 1.09149 4.65465C1.04606 4.40409 1.02095 4.15037 1.01641 3.89586C1.01641 3.50641 1.09798 3.23091 1.26113 3.0693C1.42428 2.90766 1.68152 2.81085 2.03285 2.77885C2.31797 2.76254 2.52721 2.75422 2.66058 2.75391C3.48934 2.75391 4.21116 2.90312 4.82606 3.20156C5.41985 3.48079 5.91435 3.93158 6.24451 4.49461C6.57493 5.05945 6.74014 5.72678 6.74014 6.49652V9.60322H0.388672V7.76323Z" fill="#320A70"/>
        <path d="M8.04517 10.5484C8.30463 10.5484 8.49298 10.478 8.61019 10.3371C8.7274 10.1962 8.78601 9.9516 8.78601 9.60326V4.75588C8.78601 4.34981 8.87393 4.04934 9.04973 3.85448C9.22555 3.65958 9.52255 3.56214 9.94073 3.56214C10.1901 3.56525 10.4388 3.58967 10.6839 3.63511V9.6042C10.6839 10.491 10.4831 11.1624 10.0814 11.6184C9.6797 12.0743 9.10566 12.302 8.35928 12.3014C7.82067 12.2938 7.28672 12.2015 6.77734 12.0279L7.14136 10.4115C7.52627 10.5028 7.82721 10.5484 8.04423 10.5484M8.98607 2.23004C8.81335 2.05761 8.70632 1.83122 8.68313 1.58942C8.65994 1.3476 8.72207 1.1053 8.8589 0.903753C8.99575 0.702179 9.19889 0.553822 9.43373 0.483909C9.66856 0.413996 9.92059 0.426857 10.1469 0.520275C10.3733 0.613692 10.56 0.781927 10.6752 0.996335C10.7905 1.21074 10.8271 1.45807 10.779 1.69625C10.7309 1.93442 10.601 2.14873 10.4113 2.30269C10.2217 2.45666 9.98398 2.54076 9.73876 2.54071C9.59854 2.54261 9.4594 2.51603 9.32993 2.46261C9.20048 2.40915 9.08346 2.33001 8.98607 2.23004Z" fill="#320A70"/>
    </g>
    <defs>
        <clipPath id="clip0_2903_41389">
            <rect width="10.6957" height="12" fill="white" transform="translate(0.143555 0.431641)"/>
        </clipPath>
    </defs>
</svg>
