<svg width="1172" height="93" viewBox="0 0 1172 93" fill="none" xmlns="http://www.w3.org/2000/svg">
<g clip-path="url(#clip0_2688_104914)">
<g clip-path="url(#clip1_2688_104914)">
<g clip-path="url(#clip2_2688_104914)">
<path d="M-47.9615 -9.31637L190.658 -257.63C280.908 -351.541 397.153 -416.345 524.483 -443.734L861.32 -516.205" stroke="#EBEBEB" stroke-width="0.5" stroke-miterlimit="10" stroke-linecap="round"/>
<path d="M-45.1949 -4.51315L193.424 -252.827C283.675 -346.738 399.92 -411.542 527.249 -438.931L864.086 -511.402" stroke="#EBEBEB" stroke-width="0.5" stroke-miterlimit="10" stroke-linecap="round"/>
<path d="M-42.4214 0.283728L196.198 -248.03C286.448 -341.941 402.693 -406.745 530.023 -434.134L866.86 -506.605" stroke="#EBEBEB" stroke-width="0.5" stroke-miterlimit="10" stroke-linecap="round"/>
<path d="M-39.6548 5.08401L198.965 -243.229C289.215 -337.14 405.46 -401.944 532.789 -429.334L869.626 -501.804" stroke="#EBEBEB" stroke-width="0.5" stroke-miterlimit="10" stroke-linecap="round"/>
<path d="M-36.8755 9.88774L201.744 -238.426C291.994 -332.337 408.239 -397.141 535.569 -424.53L872.406 -497.001" stroke="#EBEBEB" stroke-width="0.5" stroke-miterlimit="10" stroke-linecap="round"/>
<path d="M-34.1031 14.6841L204.516 -233.629C294.767 -327.54 411.012 -392.344 538.341 -419.734L875.178 -492.204" stroke="#EBEBEB" stroke-width="0.5" stroke-miterlimit="10" stroke-linecap="round"/>
<path d="M-31.3365 19.479L207.283 -228.834C297.533 -322.745 413.778 -387.549 541.108 -414.939L877.945 -487.409" stroke="#EBEBEB" stroke-width="0.5" stroke-miterlimit="10" stroke-linecap="round"/>
<path d="M-28.563 24.2788L210.056 -224.035C300.307 -317.946 416.552 -382.75 543.881 -410.139L880.718 -482.61" stroke="#EBEBEB" stroke-width="0.5" stroke-miterlimit="10" stroke-linecap="round"/>
<path d="M-25.7964 29.0826L212.823 -219.231C303.073 -313.142 419.318 -377.946 546.648 -405.335L883.485 -477.806" stroke="#EBEBEB" stroke-width="0.5" stroke-miterlimit="10" stroke-linecap="round"/>
<path d="M-23.023 33.8794L215.596 -214.434C305.847 -308.345 422.092 -373.149 549.421 -400.539L886.258 -473.009" stroke="#EBEBEB" stroke-width="0.5" stroke-miterlimit="10" stroke-linecap="round"/>
<path d="M-20.2564 38.6797L218.363 -209.634C308.613 -303.545 424.858 -368.349 552.188 -395.738L889.025 -468.209" stroke="#EBEBEB" stroke-width="0.5" stroke-miterlimit="10" stroke-linecap="round"/>
<path d="M-17.4781 43.483L221.141 -204.831C311.392 -298.741 427.637 -363.546 554.966 -390.935L891.803 -463.406" stroke="#EBEBEB" stroke-width="0.5" stroke-miterlimit="10" stroke-linecap="round"/>
<path d="M-14.7046 48.2798L223.915 -200.034C314.165 -293.945 430.41 -358.749 557.74 -386.138L894.577 -458.609" stroke="#EBEBEB" stroke-width="0.5" stroke-miterlimit="10" stroke-linecap="round"/>
<path d="M-11.938 53.0801L226.681 -195.233C316.932 -289.144 433.177 -353.948 560.506 -381.338L897.343 -453.808" stroke="#EBEBEB" stroke-width="0.5" stroke-miterlimit="10" stroke-linecap="round"/>
<path d="M-9.16458 57.878L229.455 -190.436C319.705 -284.346 435.95 -349.151 563.28 -376.54L900.117 -449.01" stroke="#EBEBEB" stroke-width="0.5" stroke-miterlimit="10" stroke-linecap="round"/>
<path d="M-6.39798 62.6807L232.221 -185.633C322.472 -279.544 438.717 -344.348 566.046 -371.737L902.883 -444.208" stroke="#EBEBEB" stroke-width="0.5" stroke-miterlimit="10" stroke-linecap="round"/>
<path d="M-3.62454 67.4805L234.995 -180.833C325.245 -274.744 441.49 -339.548 568.82 -366.937L905.657 -439.408" stroke="#EBEBEB" stroke-width="0.5" stroke-miterlimit="10" stroke-linecap="round"/>
<path d="M-0.857943 72.2783L237.761 -176.035C328.012 -269.946 444.257 -334.75 571.586 -362.14L908.423 -434.61" stroke="#EBEBEB" stroke-width="0.5" stroke-miterlimit="10" stroke-linecap="round"/>
<path d="M1.9155 77.0786L240.535 -171.235C330.785 -265.146 447.03 -329.95 574.36 -357.339L911.197 -429.81" stroke="#EBEBEB" stroke-width="0.5" stroke-miterlimit="10" stroke-linecap="round"/>
<path d="M4.69382 81.8814L243.313 -166.432C333.564 -260.343 449.809 -325.147 577.138 -352.537L913.975 -425.007" stroke="#EBEBEB" stroke-width="0.5" stroke-miterlimit="10" stroke-linecap="round"/>
<path d="M7.46043 86.6758L246.08 -161.638C336.33 -255.549 452.575 -320.353 579.905 -347.742L916.742 -420.213" stroke="#EBEBEB" stroke-width="0.5" stroke-miterlimit="10" stroke-linecap="round"/>
<path d="M10.2339 91.4737L248.853 -156.84C339.104 -250.751 455.349 -315.555 582.678 -342.944L919.515 -415.415" stroke="#EBEBEB" stroke-width="0.5" stroke-miterlimit="10" stroke-linecap="round"/>
<path d="M13.0005 96.2759L251.62 -152.038C341.87 -245.948 458.115 -310.753 585.445 -338.142L922.282 -410.613" stroke="#EBEBEB" stroke-width="0.5" stroke-miterlimit="10" stroke-linecap="round"/>
<path d="M15.7739 101.076L254.393 -147.237C344.644 -241.148 460.889 -305.952 588.218 -333.342L925.055 -405.812" stroke="#EBEBEB" stroke-width="0.5" stroke-miterlimit="10" stroke-linecap="round"/>
<path d="M18.5405 105.874L257.16 -142.439C347.41 -236.35 463.655 -301.154 590.985 -328.544L927.822 -401.014" stroke="#EBEBEB" stroke-width="0.5" stroke-miterlimit="10" stroke-linecap="round"/>
<path d="M21.3139 110.675L259.933 -137.639C350.184 -231.55 466.429 -296.354 593.758 -323.743L930.595 -396.214" stroke="#EBEBEB" stroke-width="0.5" stroke-miterlimit="10" stroke-linecap="round"/>
<path d="M24.0805 115.477L262.7 -132.837C352.95 -226.748 469.195 -291.552 596.525 -318.941L933.362 -391.412" stroke="#EBEBEB" stroke-width="0.5" stroke-miterlimit="10" stroke-linecap="round"/>
<path d="M26.854 120.274L265.473 -128.039C355.724 -221.95 471.969 -286.754 599.298 -314.144L936.135 -386.614" stroke="#EBEBEB" stroke-width="0.5" stroke-miterlimit="10" stroke-linecap="round"/>
<path d="M29.6323 125.075L268.252 -123.238C358.502 -217.149 474.747 -281.953 602.076 -309.343L938.914 -381.813" stroke="#EBEBEB" stroke-width="0.5" stroke-miterlimit="10" stroke-linecap="round"/>
<path d="M32.3989 129.877L271.018 -118.437C361.269 -212.347 477.514 -277.151 604.843 -304.541L941.68 -377.011" stroke="#EBEBEB" stroke-width="0.5" stroke-miterlimit="10" stroke-linecap="round"/>
<path d="M35.1723 134.675L273.792 -113.639C364.042 -207.55 480.287 -272.354 607.617 -299.743L944.454 -372.214" stroke="#EBEBEB" stroke-width="0.5" stroke-miterlimit="10" stroke-linecap="round"/>
<path d="M37.9389 139.476L276.558 -108.838C366.809 -202.749 483.054 -267.553 610.383 -294.942L947.22 -367.413" stroke="#EBEBEB" stroke-width="0.5" stroke-miterlimit="10" stroke-linecap="round"/>
<path d="M40.7124 144.272L279.332 -104.041C369.582 -197.952 485.827 -262.756 613.157 -290.145L949.994 -362.616" stroke="#EBEBEB" stroke-width="0.5" stroke-miterlimit="10" stroke-linecap="round"/>
<path d="M43.479 149.076L282.098 -99.2373C372.349 -193.148 488.594 -257.952 615.923 -285.342L952.76 -357.812" stroke="#EBEBEB" stroke-width="0.5" stroke-miterlimit="10" stroke-linecap="round"/>
<path d="M46.2514 153.876L284.871 -94.4375C375.121 -188.348 491.366 -253.152 618.696 -280.542L955.533 -353.012" stroke="#EBEBEB" stroke-width="0.5" stroke-miterlimit="10" stroke-linecap="round"/>
<path d="M49.019 158.671L287.638 -89.6426C377.889 -183.553 494.134 -248.358 621.463 -275.747L958.3 -348.218" stroke="#EBEBEB" stroke-width="0.5" stroke-miterlimit="10" stroke-linecap="round"/>
<path d="M51.7973 163.473L290.417 -84.8408C380.667 -178.752 496.912 -243.556 624.242 -270.945L961.079 -343.416" stroke="#EBEBEB" stroke-width="0.5" stroke-miterlimit="10" stroke-linecap="round"/>
<path d="M54.5708 168.271L293.19 -80.043C383.441 -173.954 499.686 -238.758 627.015 -266.147L963.852 -338.618" stroke="#EBEBEB" stroke-width="0.5" stroke-miterlimit="10" stroke-linecap="round"/>
<path d="M57.3374 173.071L295.957 -75.2422C386.207 -169.153 502.452 -233.957 629.782 -261.347L966.619 -333.817" stroke="#EBEBEB" stroke-width="0.5" stroke-miterlimit="10" stroke-linecap="round"/>
<path d="M60.1098 177.868L298.729 -70.4453C388.98 -164.356 505.225 -229.16 632.554 -256.55L969.391 -329.02" stroke="#EBEBEB" stroke-width="0.5" stroke-miterlimit="10" stroke-linecap="round"/>
<path d="M62.8774 182.671L301.497 -65.6426C391.747 -159.553 507.992 -224.358 635.322 -251.747L972.159 -324.218" stroke="#EBEBEB" stroke-width="0.5" stroke-miterlimit="10" stroke-linecap="round"/>
<path d="M65.6499 187.472L304.269 -60.8418C394.52 -154.753 510.765 -219.557 638.094 -246.946L974.931 -319.417" stroke="#EBEBEB" stroke-width="0.5" stroke-miterlimit="10" stroke-linecap="round"/>
<path d="M68.4174 192.269L307.037 -56.0449C397.287 -149.956 513.532 -214.76 640.862 -242.149L977.699 -314.62" stroke="#EBEBEB" stroke-width="0.5" stroke-miterlimit="10" stroke-linecap="round"/>
<path d="M71.1958 197.072L309.815 -51.2412C400.066 -145.152 516.311 -209.956 643.64 -237.346L980.477 -309.816" stroke="#EBEBEB" stroke-width="0.5" stroke-miterlimit="10" stroke-linecap="round"/>
<path d="M73.9682 201.872L312.588 -46.4414C402.838 -140.352 519.083 -205.156 646.412 -232.546L983.25 -305.016" stroke="#EBEBEB" stroke-width="0.5" stroke-miterlimit="10" stroke-linecap="round"/>
<path d="M76.7358 206.669L315.355 -41.6445C405.606 -135.555 521.851 -200.36 649.18 -227.749L986.017 -300.219" stroke="#EBEBEB" stroke-width="0.5" stroke-miterlimit="10" stroke-linecap="round"/>
<path d="M79.5083 211.469L318.128 -36.8447C408.378 -130.756 524.623 -195.56 651.952 -222.949L988.79 -295.42" stroke="#EBEBEB" stroke-width="0.5" stroke-miterlimit="10" stroke-linecap="round"/>
<path d="M82.2758 216.272L320.895 -32.041C411.146 -125.952 527.391 -190.756 654.72 -218.145L991.557 -290.616" stroke="#EBEBEB" stroke-width="0.5" stroke-miterlimit="10" stroke-linecap="round"/>
<path d="M85.0483 221.069L323.668 -27.2442C413.918 -121.155 530.163 -185.959 657.493 -213.349L994.33 -285.819" stroke="#EBEBEB" stroke-width="0.5" stroke-miterlimit="10" stroke-linecap="round"/>
<path d="M87.8159 225.864L326.435 -22.4492C416.686 -116.36 532.931 -181.164 660.26 -208.554L997.097 -281.024" stroke="#EBEBEB" stroke-width="0.5" stroke-miterlimit="10" stroke-linecap="round"/>
<path d="M90.5942 230.668L329.214 -17.6455C419.464 -111.556 535.709 -176.36 663.038 -203.75L999.875 -276.22" stroke="#EBEBEB" stroke-width="0.5" stroke-miterlimit="10" stroke-linecap="round"/>
<path d="M93.3667 235.468L331.986 -12.8457C422.236 -106.757 538.481 -171.561 665.811 -198.95L1002.65 -271.421" stroke="#EBEBEB" stroke-width="0.5" stroke-miterlimit="10" stroke-linecap="round"/>
<path d="M96.1343 240.265L334.754 -8.04884C425.004 -101.96 541.249 -166.764 668.578 -194.153L1005.42 -266.624" stroke="#EBEBEB" stroke-width="0.5" stroke-miterlimit="10" stroke-linecap="round"/>
<path d="M98.9067 245.064L337.526 -3.24903C427.776 -97.1599 544.021 -161.964 671.351 -189.353L1008.19 -261.824" stroke="#EBEBEB" stroke-width="0.5" stroke-miterlimit="10" stroke-linecap="round"/>
<path d="M101.674 249.868L340.294 1.55469C430.544 -92.3562 546.789 -157.16 674.118 -184.55L1010.96 -257.02" stroke="#EBEBEB" stroke-width="0.5" stroke-miterlimit="10" stroke-linecap="round"/>
<path d="M104.447 254.665L343.066 6.35155C433.317 -87.5593 549.562 -152.363 676.891 -179.753L1013.73 -252.223" stroke="#EBEBEB" stroke-width="0.5" stroke-miterlimit="10" stroke-linecap="round"/>
<path d="M107.214 259.465L345.834 11.1514C436.084 -82.7595 552.329 -147.564 679.659 -174.953L1016.5 -247.424" stroke="#EBEBEB" stroke-width="0.5" stroke-miterlimit="10" stroke-linecap="round"/>
<path d="M109.993 264.269L348.612 15.9551C438.862 -77.9558 555.107 -142.76 682.437 -170.149L1019.27 -242.62" stroke="#EBEBEB" stroke-width="0.5" stroke-miterlimit="10" stroke-linecap="round"/>
<path d="M112.765 269.065L351.384 20.752C441.635 -73.1589 557.88 -137.963 685.209 -165.353L1022.05 -237.823" stroke="#EBEBEB" stroke-width="0.5" stroke-miterlimit="10" stroke-linecap="round"/>
<path d="M115.533 273.866L354.152 25.5527C444.402 -68.3581 560.647 -133.162 687.977 -160.552L1024.81 -233.022" stroke="#EBEBEB" stroke-width="0.5" stroke-miterlimit="10" stroke-linecap="round"/>
<path d="M118.305 278.664L356.924 30.3506C447.175 -63.5603 563.42 -128.364 690.749 -155.754L1027.59 -228.224" stroke="#EBEBEB" stroke-width="0.5" stroke-miterlimit="10" stroke-linecap="round"/>
<path d="M121.073 283.466L359.692 35.1524C449.943 -58.7585 566.187 -123.563 693.517 -150.952L1030.35 -223.423" stroke="#EBEBEB" stroke-width="0.5" stroke-miterlimit="10" stroke-linecap="round"/>
<path d="M123.845 288.267L362.465 39.9531C452.715 -53.9577 568.96 -118.762 696.289 -146.151L1033.13 -218.622" stroke="#EBEBEB" stroke-width="0.5" stroke-miterlimit="10" stroke-linecap="round"/>
<path d="M126.613 293.061L365.232 44.7471C455.483 -49.1638 571.728 -113.968 699.057 -141.357L1035.89 -213.828" stroke="#EBEBEB" stroke-width="0.5" stroke-miterlimit="10" stroke-linecap="round"/>
<path d="M129.385 297.858L368.005 49.5449C458.255 -44.3659 574.5 -109.17 701.829 -136.56L1038.67 -209.03" stroke="#EBEBEB" stroke-width="0.5" stroke-miterlimit="10" stroke-linecap="round"/>
<path d="M132.164 302.661L370.783 54.3477C461.033 -39.5632 577.278 -104.367 704.608 -131.757L1041.44 -204.227" stroke="#EBEBEB" stroke-width="0.5" stroke-miterlimit="10" stroke-linecap="round"/>
<path d="M134.931 307.461L373.55 59.1475C463.801 -34.7634 580.046 -99.5675 707.375 -126.957L1044.21 -199.427" stroke="#EBEBEB" stroke-width="0.5" stroke-miterlimit="10" stroke-linecap="round"/>
<path d="M137.704 312.26L376.323 63.9463C466.573 -29.9646 582.818 -94.7687 710.148 -122.158L1046.98 -194.629" stroke="#EBEBEB" stroke-width="0.5" stroke-miterlimit="10" stroke-linecap="round"/>
<path d="M140.471 317.062L379.091 68.7481C469.341 -25.1628 585.586 -89.9669 712.915 -117.356L1049.75 -189.827" stroke="#EBEBEB" stroke-width="0.5" stroke-miterlimit="10" stroke-linecap="round"/>
<path d="M143.244 321.862L381.863 73.5488C472.113 -20.362 588.358 -85.1661 715.688 -112.556L1052.52 -185.026" stroke="#EBEBEB" stroke-width="0.5" stroke-miterlimit="10" stroke-linecap="round"/>
<path d="M146.011 326.66L384.631 78.3467C474.881 -15.5642 591.126 -80.3683 718.455 -107.758L1055.29 -180.228" stroke="#EBEBEB" stroke-width="0.5" stroke-miterlimit="10" stroke-linecap="round"/>
<path d="M148.784 331.46L387.403 83.1465C477.653 -10.7644 593.898 -75.5685 721.228 -102.958L1058.06 -175.428" stroke="#EBEBEB" stroke-width="0.5" stroke-miterlimit="10" stroke-linecap="round"/>
<path d="M151.551 336.263L390.171 87.9492C480.421 -5.96163 596.666 -70.7658 723.995 -98.1553L1060.83 -170.626" stroke="#EBEBEB" stroke-width="0.5" stroke-miterlimit="10" stroke-linecap="round"/>
<path d="M154.324 341.061L392.943 92.7471C483.193 -1.1638 599.438 -65.9679 726.768 -93.3574L1063.6 -165.828" stroke="#EBEBEB" stroke-width="0.5" stroke-miterlimit="10" stroke-linecap="round"/>
<path d="M157.102 345.86L395.721 97.5469C485.972 3.63602 602.217 -61.1681 729.546 -88.5576L1066.38 -161.028" stroke="#EBEBEB" stroke-width="0.5" stroke-miterlimit="10" stroke-linecap="round"/>
<path d="M159.87 350.663L398.489 102.35C488.739 8.43875 604.984 -56.3654 732.314 -83.7549L1069.15 -156.225" stroke="#EBEBEB" stroke-width="0.5" stroke-miterlimit="10" stroke-linecap="round"/>
<path d="M162.642 355.461L401.261 107.147C491.512 13.2366 607.757 -51.5675 735.086 -78.957L1071.92 -151.427" stroke="#EBEBEB" stroke-width="0.5" stroke-miterlimit="10" stroke-linecap="round"/>
<path d="M165.41 360.261L404.029 111.947C494.279 18.0364 610.524 -46.7677 737.854 -74.1572L1074.69 -146.628" stroke="#EBEBEB" stroke-width="0.5" stroke-miterlimit="10" stroke-linecap="round"/>
<path d="M168.182 365.056L406.801 116.742C497.052 22.8313 613.297 -41.9728 740.626 -69.3623L1077.46 -141.833" stroke="#EBEBEB" stroke-width="0.5" stroke-miterlimit="10" stroke-linecap="round"/>
<path d="M170.95 369.858L409.569 121.545C499.819 27.6341 616.064 -37.1701 743.394 -64.5595L1080.23 -137.03" stroke="#EBEBEB" stroke-width="0.5" stroke-miterlimit="10" stroke-linecap="round"/>
<path d="M173.722 374.656L412.341 126.343C502.592 32.4319 618.837 -32.3722 746.166 -59.7617L1083 -132.232" stroke="#EBEBEB" stroke-width="0.5" stroke-miterlimit="10" stroke-linecap="round"/>
<path d="M176.49 379.456L415.109 131.143C505.36 37.2317 621.604 -27.5724 748.934 -54.9619L1085.77 -127.432" stroke="#EBEBEB" stroke-width="0.5" stroke-miterlimit="10" stroke-linecap="round"/>
<path d="M179.268 384.259L417.887 135.945C508.138 42.0345 624.383 -22.7697 751.712 -50.1592L1088.55 -122.63" stroke="#EBEBEB" stroke-width="0.5" stroke-miterlimit="10" stroke-linecap="round"/>
<path d="M182.04 389.057L420.66 140.743C510.91 46.8323 627.155 -17.9718 754.485 -45.3613L1091.32 -117.832" stroke="#EBEBEB" stroke-width="0.5" stroke-miterlimit="10" stroke-linecap="round"/>
<path d="M184.808 393.857L423.427 145.543C513.678 51.6321 629.923 -13.172 757.252 -40.5615L1094.09 -113.032" stroke="#EBEBEB" stroke-width="0.5" stroke-miterlimit="10" stroke-linecap="round"/>
<path d="M187.581 398.653L426.2 150.34C516.45 56.429 632.695 -8.37514 760.025 -35.7646L1096.86 -108.235" stroke="#EBEBEB" stroke-width="0.5" stroke-miterlimit="10" stroke-linecap="round"/>
<path d="M190.347 403.457L428.966 155.144C519.217 61.2327 635.462 -3.57143 762.791 -30.9609L1099.63 -103.431" stroke="#EBEBEB" stroke-width="0.5" stroke-miterlimit="10" stroke-linecap="round"/>
<path d="M193.121 408.257L431.74 159.943C521.99 66.0325 638.235 1.22838 765.565 -26.1611L1102.4 -98.6316" stroke="#EBEBEB" stroke-width="0.5" stroke-miterlimit="10" stroke-linecap="round"/>
<path d="M195.887 413.054L434.507 164.74C524.757 70.8294 641.002 6.02528 768.331 -21.3642L1105.17 -93.8347" stroke="#EBEBEB" stroke-width="0.5" stroke-miterlimit="10" stroke-linecap="round"/>
<path d="M198.666 417.857L437.286 169.544C527.536 75.6331 643.781 10.829 771.111 -16.5605L1107.95 -89.031" stroke="#EBEBEB" stroke-width="0.5" stroke-miterlimit="10" stroke-linecap="round"/>
<path d="M201.439 422.658L440.058 174.345C530.309 80.4339 646.554 15.6297 773.883 -11.7597L1110.72 -84.2302" stroke="#EBEBEB" stroke-width="0.5" stroke-miterlimit="10" stroke-linecap="round"/>
<path d="M204.207 427.454L442.826 179.141C533.076 85.2298 649.321 20.4256 776.651 -6.96385L1113.49 -79.4343" stroke="#EBEBEB" stroke-width="0.5" stroke-miterlimit="10" stroke-linecap="round"/>
<path d="M206.979 432.249L445.598 183.936C535.849 90.0247 652.094 25.2206 779.423 -2.16893L1116.26 -74.6394" stroke="#EBEBEB" stroke-width="0.5" stroke-miterlimit="10" stroke-linecap="round"/>
<path d="M209.746 437.053L448.365 188.739C538.615 94.8284 654.86 30.0243 782.19 2.63482L1119.03 -69.8357" stroke="#EBEBEB" stroke-width="0.5" stroke-miterlimit="10" stroke-linecap="round"/>
<path d="M212.519 441.853L451.138 193.539C541.389 99.6282 657.634 34.8241 784.963 7.43459L1121.8 -65.0359" stroke="#EBEBEB" stroke-width="0.5" stroke-miterlimit="10" stroke-linecap="round"/>
<path d="M215.286 446.649L453.905 198.336C544.155 104.425 660.4 39.621 787.73 12.2315L1124.57 -60.239" stroke="#EBEBEB" stroke-width="0.5" stroke-miterlimit="10" stroke-linecap="round"/>
<path d="M218.064 451.453L456.683 203.14C546.934 109.229 663.179 44.4247 790.508 17.0352L1127.35 -55.4353" stroke="#EBEBEB" stroke-width="0.5" stroke-miterlimit="10" stroke-linecap="round"/>
<path d="M220.837 456.253L459.457 207.939C549.707 114.029 665.952 49.2245 793.282 21.835L1130.12 -50.6355" stroke="#EBEBEB" stroke-width="0.5" stroke-miterlimit="10" stroke-linecap="round"/>
<path d="M223.604 461.05L462.223 212.736C552.474 118.825 668.719 54.0214 796.048 26.6319L1132.89 -45.8386" stroke="#EBEBEB" stroke-width="0.5" stroke-miterlimit="10" stroke-linecap="round"/>
<path d="M226.377 465.851L464.997 217.537C555.247 123.626 671.492 58.8221 798.822 31.4326L1135.66 -41.0378" stroke="#EBEBEB" stroke-width="0.5" stroke-miterlimit="10" stroke-linecap="round"/>
<path d="M229.144 470.654L467.763 222.341C558.014 128.43 674.259 63.6258 801.588 36.2363L1138.43 -36.2341" stroke="#EBEBEB" stroke-width="0.5" stroke-miterlimit="10" stroke-linecap="round"/>
<path d="M231.917 475.451L470.537 227.138C560.787 133.227 677.032 68.4227 804.362 41.0332L1141.2 -31.4373" stroke="#EBEBEB" stroke-width="0.5" stroke-miterlimit="10" stroke-linecap="round"/>
<path d="M234.684 480.251L473.303 231.937C563.554 138.027 679.799 73.2225 807.128 45.8331L1143.97 -26.6374" stroke="#EBEBEB" stroke-width="0.5" stroke-miterlimit="10" stroke-linecap="round"/>
<path d="M237.462 485.055L476.082 236.741C566.332 142.83 682.577 78.0262 809.907 50.6367L1146.74 -21.8337" stroke="#EBEBEB" stroke-width="0.5" stroke-miterlimit="10" stroke-linecap="round"/>
<path d="M240.236 489.852L478.855 241.538C569.106 147.627 685.351 82.8231 812.68 55.4336L1149.52 -17.0369" stroke="#EBEBEB" stroke-width="0.5" stroke-miterlimit="10" stroke-linecap="round"/>
<path d="M243.002 494.651L481.622 246.338C571.872 152.427 688.117 87.6229 815.447 60.2334L1152.28 -12.2371" stroke="#EBEBEB" stroke-width="0.5" stroke-miterlimit="10" stroke-linecap="round"/>
<path d="M245.776 499.446L484.395 251.133C574.646 157.222 690.891 92.4179 818.22 65.0284L1155.06 -7.44215" stroke="#EBEBEB" stroke-width="0.5" stroke-miterlimit="10" stroke-linecap="round"/>
<path d="M248.542 504.25L487.162 255.937C577.412 162.026 693.657 97.2216 820.987 69.8321L1157.82 -2.63839" stroke="#EBEBEB" stroke-width="0.5" stroke-miterlimit="10" stroke-linecap="round"/>
<path d="M251.316 509.046L489.935 260.732C580.186 166.822 696.431 102.017 823.76 74.6279L1160.6 2.15747" stroke="#EBEBEB" stroke-width="0.5" stroke-miterlimit="10" stroke-linecap="round"/>
<path d="M254.082 513.847L492.702 265.533C582.952 171.622 699.197 106.818 826.527 79.4287L1163.36 6.95825" stroke="#EBEBEB" stroke-width="0.5" stroke-miterlimit="10" stroke-linecap="round"/>
<path d="M256.856 518.645L495.475 270.331C585.726 176.42 701.971 111.616 829.3 84.2266L1166.14 11.7561" stroke="#EBEBEB" stroke-width="0.5" stroke-miterlimit="10" stroke-linecap="round"/>
<path d="M259.634 523.447L498.254 275.134C588.504 181.223 704.749 116.419 832.078 89.0293L1168.92 16.5588" stroke="#EBEBEB" stroke-width="0.5" stroke-miterlimit="10" stroke-linecap="round"/>
<path d="M262.401 528.247L501.02 279.934C591.271 186.023 707.516 121.219 834.845 93.8291L1171.68 21.3586" stroke="#EBEBEB" stroke-width="0.5" stroke-miterlimit="10" stroke-linecap="round"/>
<path d="M265.174 533.045L503.794 284.731C594.044 190.821 710.289 126.016 837.618 98.627L1174.46 26.1565" stroke="#EBEBEB" stroke-width="0.5" stroke-miterlimit="10" stroke-linecap="round"/>
<path d="M267.941 537.848L506.56 289.534C596.811 195.623 713.056 130.819 840.385 103.43L1177.22 30.9592" stroke="#EBEBEB" stroke-width="0.5" stroke-miterlimit="10" stroke-linecap="round"/>
<path d="M270.714 542.647L509.334 294.334C599.584 200.423 715.829 135.619 843.159 108.23L1180 35.759" stroke="#EBEBEB" stroke-width="0.5" stroke-miterlimit="10" stroke-linecap="round"/>
<path d="M273.481 547.445L512.1 299.132C602.351 205.221 718.596 140.417 845.925 113.027L1182.76 40.5569" stroke="#EBEBEB" stroke-width="0.5" stroke-miterlimit="10" stroke-linecap="round"/>
<path d="M276.254 552.246L514.874 303.933C605.124 210.022 721.369 145.218 848.699 117.828L1185.54 45.3577" stroke="#EBEBEB" stroke-width="0.5" stroke-miterlimit="10" stroke-linecap="round"/>
<path d="M279.021 557.048L517.64 308.734C607.891 214.824 724.136 150.019 851.465 122.63L1188.3 50.1594" stroke="#EBEBEB" stroke-width="0.5" stroke-miterlimit="10" stroke-linecap="round"/>
<path d="M281.793 561.846L520.413 313.532C610.663 219.621 726.908 154.817 854.238 127.428L1191.07 54.9573" stroke="#EBEBEB" stroke-width="0.5" stroke-miterlimit="10" stroke-linecap="round"/>
<path d="M284.573 566.641L523.192 318.327C613.442 224.416 729.688 159.612 857.017 132.223L1193.85 59.7522" stroke="#EBEBEB" stroke-width="0.5" stroke-miterlimit="10" stroke-linecap="round"/>
<path d="M287.339 571.448L525.959 323.135C616.209 229.224 732.454 164.42 859.784 137.03L1196.62 64.5599" stroke="#EBEBEB" stroke-width="0.5" stroke-miterlimit="10" stroke-linecap="round"/>
<path d="M290.113 576.243L528.732 327.93C618.983 234.019 735.228 169.215 862.557 141.825L1199.39 69.3547" stroke="#EBEBEB" stroke-width="0.5" stroke-miterlimit="10" stroke-linecap="round"/>
<path d="M292.879 581.041L531.499 332.728C621.749 238.817 737.994 174.013 865.324 146.623L1202.16 74.1526" stroke="#EBEBEB" stroke-width="0.5" stroke-miterlimit="10" stroke-linecap="round"/>
<path d="M295.652 585.842L534.271 337.528C624.522 243.617 740.767 178.813 868.096 151.424L1204.93 78.9534" stroke="#EBEBEB" stroke-width="0.5" stroke-miterlimit="10" stroke-linecap="round"/>
<path d="M298.419 590.644L537.039 342.33C627.289 248.419 743.534 183.615 870.864 156.226L1207.7 83.7551" stroke="#EBEBEB" stroke-width="0.5" stroke-miterlimit="10" stroke-linecap="round"/>
<path d="M301.192 595.441L539.811 347.128C630.062 253.217 746.307 188.413 873.636 161.023L1210.47 88.553" stroke="#EBEBEB" stroke-width="0.5" stroke-miterlimit="10" stroke-linecap="round"/>
<path d="M303.959 600.242L542.579 351.929C632.829 258.018 749.074 193.214 876.404 165.824L1213.24 93.3538" stroke="#EBEBEB" stroke-width="0.5" stroke-miterlimit="10" stroke-linecap="round"/>
<path d="M306.738 605.044L545.357 356.73C635.608 262.82 751.853 198.015 879.182 170.626L1216.02 98.1555" stroke="#EBEBEB" stroke-width="0.5" stroke-miterlimit="10" stroke-linecap="round"/>
<path d="M309.51 609.842L548.13 361.528C638.38 267.617 754.625 202.813 881.954 175.424L1218.79 102.953" stroke="#EBEBEB" stroke-width="0.5" stroke-miterlimit="10" stroke-linecap="round"/>
<path d="M312.278 614.643L550.897 366.329C641.148 272.418 757.393 207.614 884.722 180.225L1221.56 107.754" stroke="#EBEBEB" stroke-width="0.5" stroke-miterlimit="10" stroke-linecap="round"/>
<path d="M315.05 619.439L553.67 371.126C643.92 277.215 760.165 212.411 887.494 185.022L1224.33 112.551" stroke="#EBEBEB" stroke-width="0.5" stroke-miterlimit="10" stroke-linecap="round"/>
<path d="M317.818 624.243L556.437 375.93C646.688 282.019 762.933 217.215 890.262 189.825L1227.1 117.355" stroke="#EBEBEB" stroke-width="0.5" stroke-miterlimit="10" stroke-linecap="round"/>
<path d="M320.59 629.043L559.21 380.729C649.46 286.819 765.705 222.015 893.035 194.625L1229.87 122.155" stroke="#EBEBEB" stroke-width="0.5" stroke-miterlimit="10" stroke-linecap="round"/>
<path d="M323.358 633.84L561.977 385.526C652.228 291.615 768.473 226.811 895.802 199.422L1232.64 126.951" stroke="#EBEBEB" stroke-width="0.5" stroke-miterlimit="10" stroke-linecap="round"/>
<path d="M326.136 638.644L564.756 390.33C655.006 296.419 771.251 231.615 898.58 204.226L1235.42 131.755" stroke="#EBEBEB" stroke-width="0.5" stroke-miterlimit="10" stroke-linecap="round"/>
<path d="M328.909 643.438L567.528 395.124C657.778 301.213 774.023 236.409 901.353 209.02L1238.19 136.549" stroke="#EBEBEB" stroke-width="0.5" stroke-miterlimit="10" stroke-linecap="round"/>
<path d="M331.676 648.238L570.296 399.925C660.546 306.014 776.791 241.21 904.12 213.82L1240.96 141.35" stroke="#EBEBEB" stroke-width="0.5" stroke-miterlimit="10" stroke-linecap="round"/>
<path d="M334.449 653.035L573.068 404.722C663.318 310.811 779.563 246.007 906.893 218.617L1243.73 146.147" stroke="#EBEBEB" stroke-width="0.5" stroke-miterlimit="10" stroke-linecap="round"/>
<path d="M337.216 657.839L575.836 409.525C666.086 315.615 782.331 250.81 909.66 223.421L1246.5 150.95" stroke="#EBEBEB" stroke-width="0.5" stroke-miterlimit="10" stroke-linecap="round"/>
<path d="M339.989 662.639L578.608 414.325C668.859 320.414 785.104 255.61 912.433 228.221L1249.27 155.75" stroke="#EBEBEB" stroke-width="0.5" stroke-miterlimit="10" stroke-linecap="round"/>
<path d="M342.756 667.436L581.376 419.122C671.626 325.211 787.871 260.407 915.201 233.018L1252.04 160.547" stroke="#EBEBEB" stroke-width="0.5" stroke-miterlimit="10" stroke-linecap="round"/>
<path d="M345.535 672.239L584.154 423.926C674.404 330.015 790.649 265.211 917.979 237.821L1254.82 165.351" stroke="#EBEBEB" stroke-width="0.5" stroke-miterlimit="10" stroke-linecap="round"/>
<path d="M348.307 677.039L586.926 428.726C677.177 334.815 793.422 270.011 920.751 242.621L1257.59 170.151" stroke="#EBEBEB" stroke-width="0.5" stroke-miterlimit="10" stroke-linecap="round"/>
<path d="M351.075 681.836L589.694 433.522C679.944 339.612 796.189 274.808 923.519 247.418L1260.36 174.948" stroke="#EBEBEB" stroke-width="0.5" stroke-miterlimit="10" stroke-linecap="round"/>
<path d="M353.847 686.636L592.466 438.322C682.717 344.411 798.962 279.607 926.291 252.218L1263.13 179.747" stroke="#EBEBEB" stroke-width="0.5" stroke-miterlimit="10" stroke-linecap="round"/>
<path d="M356.615 691.439L595.234 443.126C685.485 349.215 801.729 284.411 929.059 257.022L1265.9 184.551" stroke="#EBEBEB" stroke-width="0.5" stroke-miterlimit="10" stroke-linecap="round"/>
<path d="M359.387 696.236L598.007 447.923C688.257 354.012 804.502 289.208 931.831 261.818L1268.67 189.348" stroke="#EBEBEB" stroke-width="0.5" stroke-miterlimit="10" stroke-linecap="round"/>
<path d="M362.155 701.036L600.774 452.723C691.025 358.812 807.27 294.008 934.599 266.618L1271.44 194.148" stroke="#EBEBEB" stroke-width="0.5" stroke-miterlimit="10" stroke-linecap="round"/>
<path d="M364.927 705.831L603.547 457.518C693.797 363.607 810.042 298.803 937.371 271.413L1274.21 198.943" stroke="#EBEBEB" stroke-width="0.5" stroke-miterlimit="10" stroke-linecap="round"/>
<path d="M367.706 710.635L606.325 462.321C696.575 368.41 812.82 303.606 940.15 276.217L1276.99 203.746" stroke="#EBEBEB" stroke-width="0.5" stroke-miterlimit="10" stroke-linecap="round"/>
<path d="M370.473 715.432L609.092 467.118C699.343 373.207 815.588 308.403 942.917 281.014L1279.75 208.543" stroke="#EBEBEB" stroke-width="0.5" stroke-miterlimit="10" stroke-linecap="round"/>
<path d="M373.246 720.232L611.865 471.918C702.115 378.007 818.36 313.203 945.69 285.814L1282.53 213.343" stroke="#EBEBEB" stroke-width="0.5" stroke-miterlimit="10" stroke-linecap="round"/>
<path d="M376.013 725.035L614.632 476.722C704.883 382.811 821.128 318.007 948.457 290.617L1285.29 218.147" stroke="#EBEBEB" stroke-width="0.5" stroke-miterlimit="10" stroke-linecap="round"/>
</g>
</g>
</g>
<defs>
<clipPath id="clip0_2688_104914">
<rect width="1172" height="93" fill="white"/>
</clipPath>
<clipPath id="clip1_2688_104914">
<rect width="1172" height="93" fill="white"/>
</clipPath>
<clipPath id="clip2_2688_104914">
<rect width="1041.45" height="1140.83" fill="white" transform="translate(-150.653 -186.626) rotate(-30)"/>
</clipPath>
</defs>
</svg>
