<svg width="14" height="14" viewBox="0 0 14 14" fill="none" xmlns="http://www.w3.org/2000/svg">
<path d="M11.6667 2.91669C11.6667 3.88319 9.57737 4.66669 7.00004 4.66669C4.42271 4.66669 2.33337 3.88319 2.33337 2.91669M11.6667 2.91669C11.6667 1.95019 9.57737 1.16669 7.00004 1.16669C4.42271 1.16669 2.33337 1.95019 2.33337 2.91669M11.6667 2.91669V5.63887C11.6667 6.60537 9.57737 7.38887 7.00004 7.38887C4.42271 7.38887 2.33337 6.60537 2.33337 5.63887M2.33337 2.91669V11.0834C2.33337 12.0499 4.42271 12.8334 7.00004 12.8334M7.00004 10.1092C4.42271 10.1092 2.33337 9.32569 2.33337 8.35919" stroke="#666666" stroke-linecap="round" stroke-linejoin="round"/>
<path d="M11 13V9M9 11H13" stroke="#666666" stroke-linecap="round" stroke-linejoin="round"/>
</svg>
