<svg width="14" height="15" viewBox="0 0 14 15" fill="none" xmlns="http://www.w3.org/2000/svg">
    <path
        d="M3.79191 5.45833C3.79191 5.13617 3.53074 4.875 3.20858 4.875C2.88641 4.875 2.62524 5.13617 2.62524 5.45833C2.62524 5.7805 2.88641 6.04167 3.20858 6.04167C3.53074 6.04167 3.79191 5.7805 3.79191 5.45833Z"
        stroke="#8F8F8F" stroke-width="0.875" stroke-linecap="round" stroke-linejoin="round" />
    <path
        d="M7.87524 5.45833C7.87524 5.13617 7.61408 4.875 7.29191 4.875C6.96974 4.875 6.70858 5.13617 6.70858 5.45833C6.70858 5.7805 6.96974 6.04167 7.29191 6.04167C7.61408 6.04167 7.87524 5.7805 7.87524 5.45833Z"
        stroke="#8F8F8F" stroke-width="0.875" stroke-linecap="round" stroke-linejoin="round" />
    <path
        d="M11.9586 5.45833C11.9586 5.13617 11.6974 4.875 11.3752 4.875C11.0531 4.875 10.7919 5.13617 10.7919 5.45833C10.7919 5.7805 11.0531 6.04167 11.3752 6.04167C11.6974 6.04167 11.9586 5.7805 11.9586 5.45833Z"
        stroke="#8F8F8F" stroke-width="0.875" stroke-linecap="round" stroke-linejoin="round" />
    <path
        d="M3.79191 9.54167C3.79191 9.2195 3.53074 8.95833 3.20858 8.95833C2.88641 8.95833 2.62524 9.2195 2.62524 9.54167C2.62524 9.86383 2.88641 10.125 3.20858 10.125C3.53074 10.125 3.79191 9.86383 3.79191 9.54167Z"
        stroke="#8F8F8F" stroke-width="0.875" stroke-linecap="round" stroke-linejoin="round" />
    <path
        d="M7.87524 9.54167C7.87524 9.2195 7.61408 8.95833 7.29191 8.95833C6.96974 8.95833 6.70858 9.2195 6.70858 9.54167C6.70858 9.86383 6.96974 10.125 7.29191 10.125C7.61408 10.125 7.87524 9.86383 7.87524 9.54167Z"
        stroke="#8F8F8F" stroke-width="0.875" stroke-linecap="round" stroke-linejoin="round" />
    <path
        d="M11.9586 9.54167C11.9586 9.2195 11.6974 8.95833 11.3752 8.95833C11.0531 8.95833 10.7919 9.2195 10.7919 9.54167C10.7919 9.86383 11.0531 10.125 11.3752 10.125C11.6974 10.125 11.9586 9.86383 11.9586 9.54167Z"
        stroke="#8F8F8F" stroke-width="0.875" stroke-linecap="round" stroke-linejoin="round" />
</svg>