<svg width="14" height="14" viewBox="0 0 14 14" fill="none" xmlns="http://www.w3.org/2000/svg">
<path d="M0.875 3.0625C0.875 2.82088 1.07088 2.625 1.3125 2.625H12.6875C12.9291 2.625 13.125 2.82088 13.125 3.0625C13.125 3.30412 12.9291 3.5 12.6875 3.5H1.3125C1.07088 3.5 0.875 3.30412 0.875 3.0625ZM3.62814 5.37814C3.799 5.20729 4.07601 5.20729 4.24686 5.37814L5.99686 7.12814C6.16771 7.299 6.16771 7.57601 5.99686 7.74686C5.82601 7.91771 5.549 7.91771 5.37814 7.74686L4.375 6.74372V10.9375C4.375 11.1791 4.17912 11.375 3.9375 11.375C3.69588 11.375 3.5 11.1791 3.5 10.9375V6.74372L2.49686 7.74686C2.326 7.91771 2.049 7.91771 1.87814 7.74686C1.70729 7.57601 1.70729 7.299 1.87814 7.12814L3.62814 5.37814ZM12.6875 5.25H7.4375C7.19588 5.25 7 5.44588 7 5.6875C7 5.92913 7.19588 6.125 7.4375 6.125H12.6875C12.9291 6.125 13.125 5.92913 13.125 5.6875C13.125 5.44588 12.9291 5.25 12.6875 5.25Z" fill="#171717"/>
</svg>
