<svg width="14" height="14" viewBox="0 0 14 14" fill="none" xmlns="http://www.w3.org/2000/svg">
<path d="M0.875 3.0625C0.875 2.82088 1.07088 2.625 1.3125 2.625H12.6875C12.9291 2.625 13.125 2.82088 13.125 3.0625C13.125 3.30412 12.9291 3.5 12.6875 3.5H1.3125C1.07088 3.5 0.875 3.30412 0.875 3.0625ZM4.24686 11.2469L5.99686 9.49686C6.16771 9.32601 6.16771 9.049 5.99686 8.87814C5.82601 8.70729 5.549 8.70729 5.37814 8.87814L4.375 9.88128V5.6875C4.375 5.44588 4.17912 5.25 3.9375 5.25C3.69588 5.25 3.5 5.44588 3.5 5.6875V9.88128L2.49686 8.87814C2.326 8.70729 2.049 8.70729 1.87814 8.87814C1.70729 9.049 1.70729 9.32601 1.87814 9.49686L3.62814 11.2469C3.799 11.4177 4.07601 11.4177 4.24686 11.2469ZM7.4375 5.25C7.19588 5.25 7 5.44588 7 5.6875C7 5.92913 7.19588 6.125 7.4375 6.125H12.6875C12.9291 6.125 13.125 5.92913 13.125 5.6875C13.125 5.44588 12.9291 5.25 12.6875 5.25H7.4375Z" fill="#171717"/>
</svg>
