<svg width="12" height="13" viewBox="0 0 12 13" fill="none" xmlns="http://www.w3.org/2000/svg">
    <path d="M2.66638 1V6.48153C2.66638 8.42473 4.24166 10 6.18485 10H7.66638" stroke="#8F8F8F" />
    <path d="M2.66638 1V5H7.66638" stroke="#8F8F8F" />
    <path
        d="M10.8287 4.81445C10.8287 5.64288 10.1572 6.31445 9.32874 6.31445C8.50031 6.31445 7.82874 5.64288 7.82874 4.81445C7.82874 3.98603 8.50031 3.31445 9.32874 3.31445C10.1572 3.31445 10.8287 3.98603 10.8287 4.81445Z"
        stroke="#8F8F8F" />
    <path
        d="M10.8287 9.74023C10.8287 10.5687 10.1572 11.2402 9.32874 11.2402C8.50031 11.2402 7.82874 10.5687 7.82874 9.74023C7.82874 8.91181 8.50031 8.24023 9.32874 8.24023C10.1572 8.24023 10.8287 8.91181 10.8287 9.74023Z"
        stroke="#8F8F8F" />
</svg>