<svg width="115" height="28" viewBox="0 0 115 28" fill="none" xmlns="http://www.w3.org/2000/svg">
<path d="M29.6932 2.8H33.466V19H29.6932V16.6384C29.146 17.5312 28.4308 18.2032 27.5476 18.6544C26.674 19.1056 25.642 19.3312 24.4516 19.3312C22.906 19.3312 21.5428 18.9808 20.362 18.28C19.1812 17.5696 18.2644 16.576 17.6116 15.2992C16.9588 14.0224 16.6324 12.5536 16.6324 10.8928C16.6324 9.232 16.9588 7.7632 17.6116 6.4864C18.2644 5.2096 19.1812 4.2208 20.362 3.52C21.5428 2.8096 22.906 2.4544 24.4516 2.4544C25.642 2.4544 26.674 2.68 27.5476 3.1312C28.4308 3.5824 29.146 4.2544 29.6932 5.1472V2.8ZM25.0852 15.7312C26.0068 15.7312 26.8132 15.5344 27.5044 15.1408C28.2052 14.7376 28.7428 14.1712 29.1172 13.4416C29.5012 12.712 29.6932 11.8624 29.6932 10.8928C29.6932 9.9232 29.5012 9.0736 29.1172 8.344C28.7428 7.6144 28.2052 7.0528 27.5044 6.6592C26.8132 6.256 26.0068 6.0544 25.0852 6.0544C24.154 6.0544 23.338 6.256 22.6372 6.6592C21.946 7.0528 21.4084 7.6144 21.0244 8.344C20.65 9.0736 20.4628 9.9232 20.4628 10.8928C20.4628 11.8624 20.6548 12.712 21.0388 13.4416C21.4228 14.1712 21.9604 14.7376 22.6516 15.1408C23.3524 15.5344 24.1636 15.7312 25.0852 15.7312Z" fill="black"/>
<path d="M36.6367 19V2.8H40.4383V4.7008C40.7359 3.9712 41.1631 3.4192 41.7199 3.0448C42.2767 2.6608 42.9295 2.4688 43.6783 2.4688C44.4271 2.4688 45.0847 2.6704 45.6511 3.0736C46.2271 3.4768 46.6831 4.0576 47.0191 4.816C47.4319 4.0288 47.9503 3.4432 48.5743 3.0592C49.2079 2.6656 49.9711 2.4688 50.8639 2.4688C51.8623 2.4688 52.7167 2.6848 53.4271 3.1168C54.1375 3.5488 54.6799 4.1776 55.0543 5.0032C55.4287 5.8192 55.6159 6.8032 55.6159 7.9552V19H51.8143V8.128C51.8143 7.4656 51.6607 6.9616 51.3535 6.616C51.0559 6.2608 50.6143 6.0832 50.0287 6.0832C49.4527 6.0832 48.9919 6.2656 48.6463 6.6304C48.3103 6.9952 48.0847 7.5808 47.9695 8.3872V19H44.2831V8.128C44.2831 7.4752 44.1343 6.9712 43.8367 6.616C43.5391 6.2608 43.1119 6.0832 42.5551 6.0832C41.3359 6.0832 40.6303 6.8512 40.4383 8.3872V19H36.6367Z" fill="black"/>
<path d="M67.7708 2.4832C69.326 2.4832 70.694 2.8336 71.8748 3.5344C73.0652 4.2352 73.9868 5.224 74.6396 6.5008C75.2924 7.7776 75.6188 9.2512 75.6188 10.9216C75.6188 12.592 75.2924 14.0656 74.6396 15.3424C73.9868 16.6192 73.0652 17.608 71.8748 18.3088C70.694 19.0096 69.326 19.36 67.7708 19.36C66.5996 19.36 65.5772 19.1488 64.7036 18.7264C63.8396 18.304 63.1244 17.6752 62.558 16.84V27.784H58.7852V2.8144H62.558V5.0032C63.1244 4.168 63.8396 3.5392 64.7036 3.1168C65.5772 2.6944 66.5996 2.4832 67.7708 2.4832ZM67.166 15.76C68.0876 15.76 68.8988 15.5632 69.5996 15.1696C70.3004 14.7664 70.838 14.2 71.2124 13.4704C71.5964 12.7408 71.7884 11.8912 71.7884 10.9216C71.7884 9.952 71.5964 9.1024 71.2124 8.3728C70.8284 7.6432 70.286 7.0816 69.5852 6.688C68.894 6.2848 68.0876 6.0832 67.166 6.0832C66.2444 6.0832 65.4332 6.2848 64.7324 6.688C64.0412 7.0816 63.5036 7.6432 63.1196 8.3728C62.7452 9.1024 62.558 9.952 62.558 10.9216C62.558 11.8912 62.7452 12.7408 63.1196 13.4704C63.5036 14.2 64.0412 14.7664 64.7324 15.1696C65.4332 15.5632 66.2444 15.76 67.166 15.76Z" fill="black"/>
<path d="M14.8896 5.8528L5.0688 15.472H15.264V19H0V15.9472L9.9072 6.328H0.1008V2.8H14.8896V5.8528Z" fill="black"/>
<path d="M89.3769 0H112.127L109.238 9H86.1269L89.3769 0Z" fill="black"/>
<path d="M91.3769 13H114.127L111.238 22H88.1269L91.3769 13Z" fill="black"/>
</svg>
