<svg width="98" height="24" viewBox="0 0 98 24" fill="none" xmlns="http://www.w3.org/2000/svg">
<path d="M25.4974 2.40484H28.737V16.3186H25.4974V14.2902C25.0275 15.057 24.4133 15.6342 23.6549 16.0217C22.9048 16.4093 22.0186 16.603 20.9964 16.603C19.6692 16.603 18.4987 16.3021 17.4847 15.7002C16.4708 15.09 15.6835 14.2367 15.123 13.14C14.5624 12.0434 14.2821 10.7819 14.2821 9.35552C14.2821 7.9291 14.5624 6.66759 15.123 5.57098C15.6835 4.47438 16.4708 3.62513 17.4847 3.02323C18.4987 2.41309 19.6692 2.10801 20.9964 2.10801C22.0186 2.10801 22.9048 2.30178 23.6549 2.6893C24.4133 3.07682 25.0275 3.65398 25.4974 4.42078V2.40484ZM21.5405 13.5111C22.3319 13.5111 23.0243 13.3421 23.6179 13.004C24.2196 12.6577 24.6813 12.1712 25.0028 11.5446C25.3325 10.918 25.4974 10.1883 25.4974 9.35552C25.4974 8.52275 25.3325 7.79306 25.0028 7.16642C24.6813 6.53979 24.2196 6.05745 23.6179 5.7194C23.0243 5.3731 22.3319 5.19995 21.5405 5.19995C20.7409 5.19995 20.0402 5.3731 19.4384 5.7194C18.8449 6.05745 18.3833 6.53979 18.0535 7.16642C17.732 7.79306 17.5713 8.52275 17.5713 9.35552C17.5713 10.1883 17.7361 10.918 18.0659 11.5446C18.3956 12.1712 18.8573 12.6577 19.4508 13.004C20.0526 13.3421 20.7491 13.5111 21.5405 13.5111Z" fill="#181B28"/>
<path d="M31.4597 16.3186V2.40484H34.7241V4.03738C34.9796 3.41075 35.3465 2.93665 35.8246 2.61509C36.3027 2.28529 36.8633 2.12038 37.5063 2.12038C38.1493 2.12038 38.7139 2.29353 39.2003 2.63983C39.6949 2.98612 40.0865 3.48496 40.375 4.13632C40.7295 3.46022 41.1746 2.95727 41.7104 2.62746C42.2545 2.28941 42.9099 2.12038 43.6765 2.12038C44.5338 2.12038 45.2675 2.3059 45.8775 2.67693C46.4875 3.04796 46.9533 3.58802 47.2748 4.29711C47.5963 4.99794 47.757 5.84307 47.757 6.83249V16.3186H44.4926V6.98091C44.4926 6.41199 44.3607 5.97912 44.0969 5.68229C43.8414 5.37722 43.4622 5.22469 42.9593 5.22469C42.4647 5.22469 42.069 5.38134 41.7723 5.69466C41.4837 6.00798 41.29 6.51093 41.1911 7.20353V16.3186H38.0256V6.98091C38.0256 6.42024 37.8978 5.98736 37.6423 5.68229C37.3867 5.37722 37.0199 5.22469 36.5418 5.22469C35.4949 5.22469 34.889 5.8843 34.7241 7.20353V16.3186H31.4597Z" fill="#181B28"/>
<path d="M58.1943 2.13275C59.5297 2.13275 60.7044 2.4337 61.7183 3.0356C62.7405 3.63749 63.5319 4.48675 64.0925 5.58335C64.653 6.67996 64.9333 7.94559 64.9333 9.38025C64.9333 10.8149 64.653 12.0805 64.0925 13.1771C63.5319 14.2738 62.7405 15.123 61.7183 15.7249C60.7044 16.3268 59.5297 16.6278 58.1943 16.6278C57.1886 16.6278 56.3106 16.4464 55.5605 16.0836C54.8186 15.7208 54.2044 15.1807 53.7181 14.4634V23.8629H50.4784V2.41721H53.7181V4.29711C54.2044 3.57978 54.8186 3.03972 55.5605 2.67693C56.3106 2.31414 57.1886 2.13275 58.1943 2.13275ZM57.6749 13.5358C58.4663 13.5358 59.1629 13.3668 59.7647 13.0287C60.3664 12.6824 60.8281 12.196 61.1496 11.5693C61.4793 10.9427 61.6442 10.213 61.6442 9.38025C61.6442 8.54749 61.4793 7.81779 61.1496 7.19116C60.8198 6.56453 60.3541 6.08218 59.7523 5.74413C59.1588 5.39784 58.4663 5.22469 57.6749 5.22469C56.8836 5.22469 56.187 5.39784 55.5852 5.74413C54.9917 6.08218 54.5301 6.56453 54.2003 7.19116C53.8788 7.81779 53.7181 8.54749 53.7181 9.38025C53.7181 10.213 53.8788 10.9427 54.2003 11.5693C54.5301 12.196 54.9917 12.6824 55.5852 13.0287C56.187 13.3668 56.8836 13.5358 57.6749 13.5358Z" fill="#181B28"/>
<path d="M12.7856 5.0268L4.35254 13.2885H13.1071V16.3186H0V13.6966L8.50724 5.43494H0.0865562V2.40484H12.7856V5.0268Z" fill="#181B28"/>
<path d="M76.7474 0H96.2826L93.8019 7.72984H73.9566L76.7474 0Z" fill="#181B28"/>
<path d="M78.4647 11.1653H98L95.5193 18.8952H75.674L78.4647 11.1653Z" fill="#181B28"/>
</svg>
